# Blender v3.1.2 OBJ File: 'marco_Tumba.blend'
# www.blender.org
mtllib marco_Tumba.mtl
o Cube_Cube.001
v -0.077710 0.138239 0.018211
v 0.102934 0.130646 0.020099
v 0.097539 0.007497 0.041008
v -0.083105 0.015090 0.039120
v -0.077695 0.137466 0.013661
v 0.102949 0.129873 0.015550
v 0.097554 0.006724 0.036459
v -0.083089 0.014317 0.034570
v 0.112455 0.128804 0.020444
v 0.101109 0.137269 0.018968
v 0.104288 0.131487 0.019961
v 0.109277 0.134586 0.019451
v 0.101134 0.135994 0.011464
v 0.112480 0.127529 0.012940
v 0.109302 0.133311 0.011947
v -0.092672 0.015889 0.038952
v -0.082809 0.008531 0.040235
v -0.083141 0.015067 0.039123
v -0.089510 0.014545 0.039191
v -0.086807 0.012790 0.039498
v -0.084486 0.010797 0.039844
v -0.082784 0.007256 0.032732
v -0.092647 0.014614 0.031449
v -0.084461 0.009522 0.032341
v -0.086782 0.011515 0.031995
v -0.089485 0.013270 0.031688
v -0.079442 0.144858 0.017080
v -0.087234 0.140018 0.017877
v -0.081818 0.141304 0.017676
v -0.087209 0.138743 0.010374
v -0.079417 0.143583 0.009577
v 0.099570 0.000865 0.042142
v 0.106170 0.008168 0.040923
v 0.101852 0.004279 0.041569
v 0.106194 0.006893 0.033419
v 0.099594 -0.000410 0.034638
vt 0.524689 0.224748
vt 0.520027 0.224145
vt 0.520027 0.045989
vt 0.522536 0.043909
vt 0.524706 0.048252
vt 0.524706 0.224713
vt 0.525445 0.039865
vt 0.611866 0.038889
vt 0.613538 0.046968
vt 0.612896 0.048252
vt 0.053724 0.989922
vt 0.037178 0.973376
vt 0.037178 0.578531
vt 0.044669 0.560446
vt 0.062755 0.552955
vt 0.449874 0.555140
vt 0.474145 0.568848
vt 0.474145 0.967689
vt 0.467115 0.971566
vt 0.461047 0.976824
vt 0.455789 0.982892
vt 0.451912 0.989922
vt 0.052680 0.520581
vt 0.052680 0.363123
vt 0.196418 0.363123
vt 0.196418 0.520581
vt 0.614963 0.228850
vt 0.613881 0.234076
vt 0.524990 0.234076
vt 0.612896 0.224713
vt 0.272327 0.188877
vt 0.062364 0.188877
vt 0.062364 0.014630
vt 0.272327 0.014630
vt 0.979115 0.007738
vt 0.979202 0.621650
vt 0.628610 0.621650
vt 0.625596 0.007738
vt 0.483894 0.518478
vt 0.483894 0.363123
vt 0.627632 0.363123
vt 0.627632 0.518478
vt 0.340156 0.518478
vt 0.340156 0.363123
vt 0.483894 0.363123
vt 0.483894 0.518478
vt 0.340156 0.363123
vt 0.340156 0.519321
vt 0.196418 0.519321
vt 0.615903 0.042235
vt 0.617575 0.050314
vt 0.052680 0.188877
vt 0.052680 0.014630
vt 0.052680 0.363123
vt 0.062936 0.188877
vt 0.062936 0.363123
vt 0.275338 0.363123
vt 0.275338 0.188877
vt 0.524125 0.230935
vt 0.522951 0.228225
vt 0.521597 0.225876
vt 0.504296 0.188877
vt 0.504296 0.363123
vt 0.500186 0.363123
vt 0.500186 0.188877
vt 0.496468 0.363123
vt 0.496468 0.188877
vt 0.506586 0.014630
vt 0.506586 0.188877
vt 0.502868 0.188877
vt 0.502868 0.014630
vt 0.498758 0.188877
vt 0.498758 0.014630
vt 0.617575 0.226685
vt 0.283074 0.188877
vt 0.283074 0.363123
vt 0.498758 0.188877
vt 0.285713 0.188877
vt 0.285713 0.014630
vt 0.498758 0.014630
vt 0.285713 0.014630
vt 0.285713 0.188877
vt 0.496468 0.363123
vt 0.283074 0.363123
vt 0.283074 0.188877
vt 0.496468 0.188877
vn -0.0033 0.1675 0.9859
vn 0.0033 -0.1675 -0.9859
vn 0.9991 -0.0420 0.0104
vn 0.9987 -0.0500 0.0118
vn -0.0431 -0.9850 0.1672
vn -0.9991 0.0420 -0.0104
vn 0.0431 0.9850 -0.1672
vn 0.8792 0.4701 -0.0770
vn 0.3166 0.9353 -0.1579
vn -0.3963 -0.9054 0.1525
vn -0.5506 -0.8233 0.1381
vn -0.6568 -0.7438 0.1242
vn -0.8080 -0.5813 0.0961
vn -0.5327 0.8340 -0.1435
vn -0.0032 0.1675 0.9859
vn 0.7465 -0.6556 0.1139
usemtl MarcoTumba
s off
f 18/1/1 17/2/1 32/3/1 34/4/1 3/5/1 4/6/1
f 34/4/1 33/7/1 9/8/1 11/9/1 2/10/1 3/5/1
f 30/11/2 31/12/2 13/13/2 15/14/2 14/15/2 35/16/2 36/17/2 22/18/2 24/19/2 25/20/2 26/21/2 23/22/2
f 1/23/3 4/24/3 8/25/3 5/26/3
f 29/27/1 28/28/1 16/29/1 18/1/1 4/6/1 1/30/1
f 35/31/4 14/32/4 9/33/4 33/34/4
f 8/35/1 7/36/1 6/37/1 5/38/1
f 2/39/5 1/40/5 5/41/5 6/42/5
f 3/43/6 2/44/6 6/45/6 7/46/6
f 4/47/7 3/48/7 7/49/7 8/25/7
f 9/8/1 12/50/1 11/9/1
f 12/50/1 10/51/1 11/9/1
f 9/33/8 14/32/8 15/52/8 12/53/8
f 12/54/9 15/52/9 13/55/9 10/56/9
f 27/57/7 10/56/7 13/55/7 31/58/7
f 16/29/1 19/59/1 18/1/1
f 19/59/1 20/60/1 18/1/1
f 20/60/1 21/61/1 18/1/1
f 21/61/1 17/2/1 18/1/1
f 16/62/10 23/63/10 26/64/10 19/65/10
f 19/65/11 26/64/11 25/66/11 20/67/11
f 20/68/12 25/69/12 24/70/12 21/71/12
f 21/71/13 24/70/13 22/72/13 17/73/13
f 11/9/1 10/51/1 27/74/1 29/27/1 1/30/1 2/10/1
f 27/74/1 28/28/1 29/27/1
f 30/75/14 28/76/14 27/57/14 31/58/14
f 30/77/6 23/78/6 16/79/6 28/80/6
f 32/3/15 33/7/15 34/4/15
f 35/31/16 33/34/16 32/81/16 36/82/16
f 22/83/5 36/84/5 32/85/5 17/86/5
o Cube.001_Cube.002
v -0.006032 0.012210 -0.024878
v -0.005623 0.097896 0.017462
v -0.006026 0.013355 -0.027195
v -0.005617 0.099041 0.015144
v 0.013562 0.012117 -0.024878
v 0.013971 0.097802 0.017462
v 0.013567 0.013262 -0.027195
v 0.013976 0.098947 0.015144
v 0.009615 0.006216 -0.030686
v 0.005675 0.001763 -0.032895
v 0.001756 0.001782 -0.032895
v -0.002141 0.006272 -0.030686
v -0.001699 0.099022 0.015144
v 0.002220 0.099004 0.015144
v 0.006139 0.098985 0.015144
v 0.010057 0.098966 0.015144
v -0.002147 0.005127 -0.028369
v 0.001751 0.000637 -0.030578
v 0.005669 0.000618 -0.030578
v 0.009609 0.005071 -0.028369
v 0.010052 0.097821 0.017462
v 0.006133 0.097840 0.017462
v 0.002214 0.097859 0.017462
v -0.001704 0.097877 0.017462
v 0.003712 0.001122 -0.033217
v 0.004179 0.098994 0.015144
v 0.003707 -0.000023 -0.030899
v 0.004174 0.097849 0.017462
vt 0.979443 0.800785
vt 0.978864 0.898483
vt 0.862893 0.897795
vt 0.863472 0.800097
vt 0.770696 0.799547
vt 0.770116 0.897245
vt 0.746922 0.897108
vt 0.747501 0.799410
vt 0.630951 0.896420
vt 0.631531 0.798722
vt 0.538754 0.798172
vt 0.538175 0.895870
vt 0.514981 0.895732
vt 0.515560 0.798034
vt 0.747617 0.779870
vt 0.631647 0.779183
vt 0.746459 0.975266
vt 0.746343 0.994805
vt 0.630372 0.994118
vt 0.630488 0.974578
vt 0.746806 0.916647
vt 0.630836 0.915960
vt 0.746690 0.936187
vt 0.630720 0.935499
vt 0.746633 0.945956
vt 0.746575 0.955726
vt 0.630604 0.955039
vt 0.630662 0.945269
vt 0.748081 0.701712
vt 0.747965 0.721252
vt 0.631994 0.720564
vt 0.632110 0.701024
vt 0.747849 0.740791
vt 0.631878 0.740103
vt 0.747791 0.750561
vt 0.747733 0.760331
vt 0.631762 0.759643
vt 0.631820 0.749873
vt 0.607757 0.896282
vt 0.608337 0.798585
vt 0.584563 0.896145
vt 0.585142 0.798447
vt 0.573545 0.798378
vt 0.572966 0.896076
vt 0.561369 0.896007
vt 0.561948 0.798309
vt 0.839699 0.897658
vt 0.840278 0.799960
vt 0.816505 0.897520
vt 0.817084 0.799822
vt 0.805487 0.799754
vt 0.804908 0.897452
vt 0.793310 0.897383
vt 0.793890 0.799685
vn -1.0000 0.0048 0.0000
vn 0.0021 0.4430 -0.8965
vn 1.0000 -0.0048 -0.0000
vn -0.0021 -0.4430 0.8965
vn 0.8935 -0.4035 -0.1972
vn 0.0043 0.8965 0.4430
vn -0.8973 -0.3949 -0.1972
vn -0.7889 -0.5502 -0.2737
vn 0.3433 -0.8424 -0.4154
vn 0.7836 -0.5577 -0.2737
vn -0.3514 -0.8390 -0.4154
usemtl MarcoTumba
s off
f 37/87/17 38/88/17 40/89/17 39/90/17
f 45/91/18 52/92/18 44/93/18 43/94/18
f 43/94/19 44/93/19 42/95/19 41/96/19
f 53/97/20 60/98/20 38/99/20 37/100/20
f 45/101/21 43/94/21 41/96/21 56/102/21
f 49/103/22 40/104/22 38/105/22 60/106/22
f 44/93/22 52/107/22 57/108/22 42/95/22
f 52/107/22 51/109/22 58/110/22 57/108/22
f 62/111/22 50/112/22 59/113/22 64/114/22
f 50/112/22 49/103/22 60/106/22 59/113/22
f 39/115/23 48/116/23 53/117/23 37/118/23
f 48/116/24 47/119/24 54/120/24 53/117/24
f 61/121/25 46/122/25 55/123/25 63/124/25
f 46/122/26 45/101/26 56/102/26 55/123/26
f 41/96/20 42/95/20 57/125/20 56/126/20
f 56/126/20 57/125/20 58/127/20 55/128/20
f 63/129/20 64/130/20 59/131/20 54/132/20
f 54/132/20 59/131/20 60/98/20 53/97/20
f 39/90/18 40/89/18 49/133/18 48/134/18
f 48/134/18 49/133/18 50/135/18 47/136/18
f 61/137/18 62/138/18 51/139/18 46/140/18
f 46/140/18 51/139/18 52/92/18 45/91/18
f 47/136/18 50/135/18 62/138/18 61/137/18
f 55/128/20 58/127/20 64/130/20 63/129/20
f 47/119/27 61/121/27 63/124/27 54/120/27
f 51/109/22 62/111/22 64/114/22 58/110/22
