# Blender v3.1.2 OBJ File: ''
# www.blender.org
mtllib Arenero.mtl
o Cube.004
v -2.228629 -0.005212 -2.221627
v -2.228629 0.408486 -2.221627
v 2.222261 0.408486 -2.227988
v 2.222261 -0.005211 -2.227988
v 2.225316 -0.005211 -0.091560
v 2.225316 0.408486 -0.091560
v 2.228622 0.408487 2.222905
v 2.228622 -0.005210 2.222905
v -2.222268 0.408486 2.229266
v -2.222268 -0.005211 2.229266
v -2.225576 -0.005211 -0.085198
v -2.225576 0.408486 -0.085198
v 1.965612 0.408486 1.957150
v -1.960020 0.408486 1.962760
v 1.962698 0.408486 -0.084181
v -1.965631 0.408486 -1.962874
v -1.962938 0.408486 -0.078570
v -1.962938 -0.257520 -0.078570
v -1.965631 -0.257520 -1.962874
v -1.960020 -0.257520 1.962760
v 1.960002 0.408486 -1.968485
v 1.962698 -0.257520 -0.084181
v 1.960002 -0.257520 -1.968485
v 1.965612 -0.257520 1.957150
vt 0.634666 0.496528
vt 0.634666 0.514328
vt 0.485788 0.514328
vt 0.485788 0.496528
vt 0.563205 0.496528
vt 0.563205 0.514328
vt 0.485788 0.514328
vt 0.485788 0.496528
vt 0.365334 0.496528
vt 0.365334 0.514328
vt 0.514212 0.514328
vt 0.514212 0.496528
vt 0.442750 0.496528
vt 0.442750 0.514328
vt 0.514212 0.514328
vt 0.514212 0.496528
vt 0.563205 0.427970
vt 0.485788 0.365334
vt 0.365334 0.514212
vt 0.442750 0.576848
vt 0.365334 0.514212
vt 0.485788 0.365334
vt 0.487582 0.381321
vt 0.381343 0.512630
vt 0.563205 0.427970
vt 0.555863 0.436565
vt 0.634666 0.485788
vt 0.514212 0.634666
vt 0.365334 0.496528
vt 0.365334 0.514328
vt 0.634666 0.496528
vt 0.634666 0.514328
vt 0.512652 0.514328
vt 0.449624 0.514328
vt 0.449624 0.485672
vt 0.512652 0.485672
vt 0.381343 0.514328
vt 0.381343 0.485672
vt 0.442750 0.576848
vt 0.449624 0.567874
vt 0.634666 0.485788
vt 0.618891 0.487560
vt 0.514212 0.634666
vt 0.512652 0.618869
vt 0.555863 0.436565
vt 0.618891 0.487560
vt 0.512652 0.618869
vt 0.449624 0.567874
vt 0.487582 0.381321
vt 0.381343 0.512630
vt 0.487582 0.514328
vt 0.555863 0.514328
vt 0.555863 0.485672
vt 0.487582 0.485672
vt 0.618891 0.514328
vt 0.618891 0.485672
vt 0.512630 0.514328
vt 0.381321 0.514328
vt 0.381321 0.485672
vt 0.512630 0.485672
vt 0.487560 0.514328
vt 0.618869 0.514328
vt 0.618869 0.485672
vt 0.487560 0.485672
vn -0.0014 0.0000 -1.0000
vn 1.0000 0.0000 -0.0014
vn 0.0014 0.0000 1.0000
vn -1.0000 0.0000 0.0014
vn 0.0000 -1.0000 0.0000
vn -0.0000 1.0000 -0.0000
usemtl Marco_Arena
s 1
f 1/1/1 2/2/1 3/3/1 4/4/1
f 5/5/2 6/6/2 7/7/2 8/8/2
f 8/9/3 7/10/3 9/11/3 10/12/3
f 11/13/4 12/14/4 2/15/4 1/16/4
f 5/17/5 8/18/5 10/19/5 11/20/5
f 9/21/6 7/22/6 13/23/6 14/24/6
f 7/22/6 6/25/6 15/26/6 13/23/6
f 4/27/5 5/17/5 11/20/5 1/28/5
f 10/29/4 9/30/4 12/14/4 11/13/4
f 4/31/2 3/32/2 6/6/2 5/5/2
f 16/33/2 17/34/2 18/35/2 19/36/2
f 17/34/2 14/37/2 20/38/2 18/35/2
f 12/39/6 9/21/6 14/24/6 17/40/6
f 6/25/6 3/41/6 21/42/6 15/26/6
f 3/41/6 2/43/6 16/44/6 21/42/6
f 2/43/6 12/39/6 17/40/6 16/44/6
f 22/45/6 23/46/6 19/47/6 18/48/6
f 24/49/6 22/45/6 18/48/6 20/50/6
f 13/51/4 15/52/4 22/53/4 24/54/4
f 15/52/4 21/55/4 23/56/4 22/53/4
f 14/57/1 13/58/1 24/59/1 20/60/1
f 21/61/3 16/62/3 19/63/3 23/64/3
o Plane.001
v 1.158922 0.121469 -1.309913
v 1.938902 0.004121 -1.316543
v 1.933378 0.000000 -1.966527
v 1.153397 0.023784 -1.959897
v -1.961002 0.004121 -1.283393
v -1.181021 0.153147 -1.290023
v -1.186545 0.023784 -1.940008
v -1.966527 0.000000 -1.933378
v -0.401040 0.192505 -1.296653
v -0.406565 0.098297 -1.946637
v -0.011050 0.108842 -1.299968
v 0.378941 0.068904 -1.303283
v 0.373416 0.098297 -1.953267
v -0.016574 0.107611 -1.949951
v 0.406565 0.098297 1.946637
v 1.186545 0.023784 1.940008
v 1.181021 0.153147 1.290023
v 0.401040 0.227660 1.296653
v 1.175496 0.230765 0.640040
v 0.395516 0.305278 0.646669
v 1.169971 0.220739 -0.009945
v 0.389990 0.171307 -0.003315
v 1.164446 0.109680 -0.659928
v 0.384465 0.059465 -0.653299
v 0.016574 0.107611 1.949951
v 0.011050 0.236975 1.299968
v 0.005525 0.314593 0.649983
v 0.000000 0.211637 0.000000
v -0.005525 0.099697 -0.649983
v -1.153397 0.023784 1.959897
v -0.373416 0.098297 1.953267
v -0.378941 0.199900 1.303283
v -1.158922 0.031998 1.309912
v -0.384465 0.212876 0.653299
v -1.164446 0.043181 0.659928
v -0.389991 0.268572 0.003315
v -1.169971 0.134658 0.009945
v -0.395515 0.183065 -0.646669
v -1.175496 0.230765 -0.640040
v -1.933378 -0.000000 1.966527
v -1.938902 -0.015678 1.316543
v -1.944427 -0.008081 0.666558
v -1.949951 0.082201 0.016574
v -1.955477 0.081739 -0.633410
v 1.966527 -0.000000 1.933378
v 1.961002 0.004121 1.283393
v 1.955477 0.081739 0.633410
v 1.949951 0.107611 -0.016574
v 1.944427 0.081738 -0.666558
vt 0.800000 0.833333
vt 1.000000 0.833333
vt 1.000000 1.000000
vt 0.800000 1.000000
vt 0.000000 0.833333
vt 0.200000 0.833333
vt 0.200000 1.000000
vt 0.000000 1.000000
vt 0.400000 0.833333
vt 0.400000 1.000000
vt 0.500000 0.833333
vt 0.600000 0.833333
vt 0.600000 1.000000
vt 0.500000 1.000000
vt 0.600000 0.000000
vt 0.800000 0.000000
vt 0.800000 0.166667
vt 0.600000 0.166667
vt 0.800000 0.333333
vt 0.600000 0.333333
vt 0.800000 0.500000
vt 0.600000 0.500000
vt 0.800000 0.666667
vt 0.600000 0.666667
vt 0.500000 0.000000
vt 0.500000 0.166667
vt 0.500000 0.333333
vt 0.500000 0.500000
vt 0.500000 0.666667
vt 0.200000 0.000000
vt 0.400000 0.000000
vt 0.400000 0.166667
vt 0.200000 0.166667
vt 0.400000 0.333333
vt 0.200000 0.333333
vt 0.400000 0.500000
vt 0.200000 0.500000
vt 0.400000 0.666667
vt 0.200000 0.666667
vt 0.000000 0.000000
vt 0.000000 0.166667
vt 0.000000 0.333333
vt 0.000000 0.500000
vt 0.000000 0.666667
vt 1.000000 0.000000
vt 1.000000 0.166667
vt 1.000000 0.333333
vt 1.000000 0.500000
vt 1.000000 0.666667
vn 0.0322 0.9986 -0.0413
vn 0.0907 0.9938 -0.0649
vn 0.0892 0.9929 -0.0785
vn 0.0516 0.9965 -0.0657
vn -0.1487 0.9830 -0.1078
vn -0.0921 0.9897 -0.1097
vn -0.0920 0.9867 -0.1343
vn -0.1104 0.9888 -0.1006
vn 0.0592 0.9957 -0.0710
vn 0.0100 0.9925 -0.1219
vn 0.1176 0.9930 -0.0068
vn 0.0284 0.9996 -0.0003
vn 0.0385 0.9991 -0.0157
vn 0.0787 0.9966 -0.0263
vn 0.0603 0.9791 0.1943
vn 0.1028 0.9838 0.1469
vn 0.1225 0.9836 0.1321
vn 0.0601 0.9859 0.1561
vn 0.1164 0.9927 0.0332
vn 0.0495 0.9987 -0.0137
vn 0.0517 0.9943 -0.0935
vn 0.0279 0.9872 -0.1573
vn 0.0128 0.9969 -0.0775
vn 0.0181 0.9969 -0.0771
vn -0.0160 0.9826 0.1852
vn -0.0458 0.9891 0.1399
vn -0.0362 0.9993 -0.0070
vn 0.0704 0.9884 -0.1347
vn 0.1468 0.9864 -0.0736
vn -0.0993 0.9943 0.0396
vn -0.1051 0.9859 0.1298
vn -0.1490 0.9849 0.0878
vn -0.1184 0.9925 0.0286
vn -0.1589 0.9864 0.0422
vn -0.1322 0.9886 0.0716
vn -0.0325 0.9993 -0.0163
vn -0.1098 0.9904 0.0838
vn 0.0846 0.9953 -0.0461
vn -0.0913 0.9956 -0.0214
vn -0.0458 0.9989 -0.0053
vn -0.0545 0.9985 0.0048
vn -0.0640 0.9950 0.0768
vn -0.0958 0.9897 0.1065
vn -0.1582 0.9872 -0.0213
vn 0.1104 0.9888 0.1006
vn 0.1487 0.9830 0.1078
vn 0.1769 0.9822 0.0633
vn 0.1276 0.9907 -0.0474
vn 0.0905 0.9928 -0.0781
usemtl Arena
s 1
f 25/65/7 26/66/8 27/67/9 28/68/10
f 29/69/11 30/70/12 31/71/13 32/72/14
f 30/70/12 33/73/15 34/74/16 31/71/13
f 35/75/17 36/76/18 37/77/19 38/78/20
f 36/76/18 25/65/7 28/68/10 37/77/19
f 39/79/21 40/80/22 41/81/23 42/82/24
f 42/82/24 41/81/23 43/83/25 44/84/26
f 44/84/26 43/83/25 45/85/27 46/86/28
f 46/86/28 45/85/27 47/87/29 48/88/30
f 48/88/30 47/87/29 25/65/7 36/76/18
f 49/89/31 39/79/21 42/82/24 50/90/32
f 50/90/32 42/82/24 44/84/26 51/91/33
f 51/91/33 44/84/26 46/86/28 52/92/34
f 52/92/34 46/86/28 48/88/30 53/93/35
f 53/93/35 48/88/30 36/76/18 35/75/17
f 54/94/36 55/95/37 56/96/38 57/97/39
f 57/97/39 56/96/38 58/98/40 59/99/41
f 59/99/41 58/98/40 60/100/42 61/101/43
f 61/101/43 60/100/42 62/102/44 63/103/45
f 63/103/45 62/102/44 33/73/15 30/70/12
f 64/104/46 54/94/36 57/97/39 65/105/47
f 65/105/47 57/97/39 59/99/41 66/106/48
f 66/106/48 59/99/41 61/101/43 67/107/49
f 67/107/49 61/101/43 63/103/45 68/108/50
f 68/108/50 63/103/45 30/70/12 29/69/11
f 40/80/22 69/109/51 70/110/52 41/81/23
f 41/81/23 70/110/52 71/111/53 43/83/25
f 43/83/25 71/111/53 72/112/54 45/85/27
f 45/85/27 72/112/54 73/113/55 47/87/29
f 47/87/29 73/113/55 26/66/8 25/65/7
f 62/102/44 53/93/35 35/75/17 33/73/15
f 60/100/42 52/92/34 53/93/35 62/102/44
f 58/98/40 51/91/33 52/92/34 60/100/42
f 56/96/38 50/90/32 51/91/33 58/98/40
f 55/95/37 49/89/31 50/90/32 56/96/38
f 33/73/15 35/75/17 38/78/20 34/74/16
