# Blender v3.1.2 OBJ File: 'buzon.blend'
# www.blender.org
mtllib buzon.mtl
o Cube_Cube.001
v -0.048377 -0.048377 0.048377
v -0.048377 0.955296 0.048377
v -0.048377 -0.048377 -0.048377
v -0.048377 0.955296 -0.048377
v 0.048377 -0.048377 0.048377
v 0.048377 0.955296 0.048377
v 0.048377 -0.048377 -0.048377
v 0.048377 0.955296 -0.048377
vt 0.616444 0.000000
vt 0.616444 0.520370
vt 0.566281 0.520370
vt 0.566281 0.000000
vt 0.516117 0.520370
vt 0.516117 0.000000
vt 0.465954 0.520370
vt 0.465954 0.000000
vt 0.415791 0.520370
vt 0.415791 0.000000
vt 0.465954 0.520370
vt 0.516117 0.520370
vt 0.516117 0.570533
vt 0.465954 0.570533
vt 0.566281 0.570533
vt 0.516117 0.570533
vn -1.0000 0.0000 0.0000
vn 0.0000 0.0000 -1.0000
vn 1.0000 0.0000 0.0000
vn 0.0000 0.0000 1.0000
vn 0.0000 -1.0000 0.0000
vn 0.0000 1.0000 0.0000
usemtl Buzon
s off
f 1/1/1 2/2/1 4/3/1 3/4/1
f 3/4/2 4/3/2 8/5/2 7/6/2
f 7/6/3 8/5/3 6/7/3 5/8/3
f 5/8/4 6/7/4 2/9/4 1/10/4
f 3/11/5 7/12/5 5/13/5 1/14/5
f 8/5/6 4/3/6 2/15/6 6/16/6
o Cube.001_Cube.002
v -0.101336 0.944382 0.264739
v -0.101336 0.944382 -0.272614
v 0.101336 0.944382 0.264739
v 0.101336 0.944382 -0.272614
v -0.017529 1.168367 0.264739
v -0.101336 1.084561 0.264739
v -0.059433 1.157139 0.264739
v -0.090108 1.126464 0.264739
v -0.101336 1.084561 -0.272614
v -0.017529 1.168367 -0.272614
v -0.090108 1.126464 -0.272614
v -0.059433 1.157139 -0.272614
v 0.101336 1.084561 0.264739
v 0.017529 1.168367 0.264739
v 0.090108 1.126464 0.264739
v 0.059433 1.157139 0.264739
v 0.017529 1.168367 -0.272614
v 0.101336 1.084561 -0.272614
v 0.059433 1.157139 -0.272614
v 0.090108 1.126464 -0.272614
v -0.088170 0.964104 0.264739
v 0.088170 0.964104 0.264739
v -0.051711 1.149220 0.264739
v -0.015252 1.158989 0.264739
v -0.078401 1.122530 0.264739
v -0.088170 1.086070 0.264739
v 0.015252 1.158989 0.264739
v 0.051711 1.149220 0.264739
v 0.078401 1.122530 0.264739
v 0.088170 1.086070 0.264739
v -0.088170 0.964104 -0.240370
v 0.088170 0.964104 -0.240370
v -0.051711 1.149220 -0.240370
v -0.015252 1.158989 -0.240370
v -0.078401 1.122530 -0.240370
v -0.088170 1.086070 -0.240370
v 0.015252 1.158989 -0.240370
v 0.051711 1.149220 -0.240370
v 0.078401 1.122530 -0.240370
v 0.088170 1.086070 -0.240370
vt 0.717601 0.793287
vt 0.726355 0.793287
vt 0.726355 0.927458
vt 0.717601 0.927458
vt 0.441114 0.927458
vt 0.406113 0.927458
vt 0.406113 0.793287
vt 0.441114 0.793287
vt 0.494237 0.927458
vt 0.459236 0.927458
vt 0.459236 0.793287
vt 0.494237 0.793287
vt 0.544842 0.793287
vt 0.544842 0.927458
vt 0.787423 0.793287
vt 0.787423 0.828288
vt 0.784620 0.838750
vt 0.776960 0.846410
vt 0.766497 0.849213
vt 0.757744 0.849213
vt 0.747281 0.846410
vt 0.739621 0.838750
vt 0.736818 0.828288
vt 0.736818 0.793287
vt 0.736818 0.793287
vt 0.736818 0.927458
vt 0.441114 0.927458
vt 0.441114 0.793287
vt 0.448773 0.793287
vt 0.448773 0.927458
vt 0.707138 0.927458
vt 0.707138 0.793287
vt 0.387991 0.927458
vt 0.387991 0.793287
vt 0.395650 0.793287
vt 0.395650 0.927458
vt 0.939239 0.793287
vt 0.939239 0.828288
vt 0.935951 0.828665
vt 0.935951 0.798211
vt 0.700475 0.919407
vt 0.691371 0.919407
vt 0.691371 0.793287
vt 0.700475 0.793287
vt 0.909560 0.849213
vt 0.899097 0.846410
vt 0.901025 0.844433
vt 0.910128 0.846872
vt 0.891438 0.838750
vt 0.888634 0.828288
vt 0.891921 0.828665
vt 0.894361 0.837768
vt 0.918313 0.849213
vt 0.917745 0.846872
vt 0.936435 0.838750
vt 0.933512 0.837768
vt 0.928776 0.846410
vt 0.926848 0.844433
vt 0.888634 0.793287
vt 0.891921 0.798211
vt 0.983270 0.793287
vt 0.983270 0.823741
vt 0.980831 0.832844
vt 0.974166 0.839508
vt 0.965063 0.841947
vt 0.957446 0.841947
vt 0.948343 0.839508
vt 0.941679 0.832844
vt 0.939239 0.823741
vt 0.939239 0.793287
vt 0.683755 0.919407
vt 0.674651 0.919407
vt 0.674651 0.793287
vt 0.683755 0.793287
vt 0.707138 0.919407
vt 0.707138 0.793287
vt 0.667987 0.919407
vt 0.667987 0.793287
vt 0.637532 0.793287
vt 0.667986 0.793287
vt 0.667986 0.919407
vt 0.637532 0.919407
vt 0.597975 0.919407
vt 0.588872 0.919407
vt 0.588872 0.793287
vt 0.597975 0.793287
vt 0.628429 0.793287
vt 0.628429 0.919407
vt 0.588872 0.919407
vt 0.544842 0.919407
vt 0.544842 0.793287
vt 0.588872 0.793287
vt 0.628429 0.919407
vt 0.628429 0.793287
vn 0.0000 1.0000 0.0000
vn 1.0000 0.0000 0.0000
vn -1.0000 0.0000 0.0000
vn 0.0000 -1.0000 0.0000
vn 0.0000 0.0000 -1.0000
vn -0.2588 0.9659 0.0000
vn -0.7071 0.7071 -0.0000
vn -0.9659 0.2588 0.0000
vn 0.2588 0.9659 -0.0000
vn 0.7071 0.7071 0.0000
vn 0.9659 0.2588 0.0000
vn -0.0000 0.0000 1.0000
vn -0.2588 -0.9659 0.0000
vn 0.2588 -0.9659 0.0000
vn -0.7071 -0.7071 0.0000
vn 0.7071 -0.7071 0.0000
vn -0.9659 -0.2588 0.0000
vn 0.9659 -0.2588 0.0000
usemtl Buzon
s off
f 25/17/7 18/18/7 13/19/7 22/20/7
f 12/21/8 26/22/8 21/23/8 11/24/8
f 9/25/9 14/26/9 17/27/9 10/28/9
f 10/28/10 12/29/10 11/30/10 9/25/10
f 10/31/11 17/32/11 19/33/11 20/34/11 18/35/11 25/36/11 27/37/11 28/38/11 26/39/11 12/40/11
f 13/19/12 18/18/12 20/41/12 15/42/12
f 15/43/13 20/44/13 19/45/13 16/46/13
f 16/46/14 19/45/14 17/27/14 14/26/14
f 25/17/15 22/20/15 24/47/15 27/48/15
f 27/49/16 24/50/16 23/51/16 28/52/16
f 28/52/17 23/51/17 21/23/17 26/22/17
f 11/53/18 21/54/18 38/55/18 30/56/18
f 36/57/19 35/58/19 45/59/19 46/60/19
f 13/61/18 15/62/18 31/63/18 32/64/18
f 16/65/18 14/66/18 34/67/18 33/68/18
f 15/62/18 16/65/18 33/68/18 31/63/18
f 22/69/18 13/61/18 32/64/18 35/70/18
f 21/54/18 23/71/18 37/72/18 38/55/18
f 23/71/18 24/73/18 36/74/18 37/72/18
f 14/66/18 9/75/18 29/76/18 34/67/18
f 24/73/18 22/69/18 35/70/18 36/74/18
f 9/75/18 11/53/18 30/56/18 29/76/18
f 40/77/18 48/78/18 47/79/18 46/80/18 45/81/18 42/82/18 41/83/18 43/84/18 44/85/18 39/86/18
f 32/87/20 31/88/20 41/89/20 42/90/20
f 35/58/10 32/87/10 42/90/10 45/59/10
f 37/91/21 36/57/21 46/60/21 47/92/21
f 31/88/22 33/93/22 43/94/22 41/89/22
f 34/95/8 29/96/8 39/97/8 44/98/8
f 38/99/23 37/100/23 47/101/23 48/102/23
f 33/103/24 34/95/24 44/98/24 43/104/24
f 29/105/7 30/106/7 40/107/7 39/108/7
f 30/109/9 38/99/9 48/102/9 40/110/9
o Cube.003_Cube.004
v 0.108323 1.234138 0.136363
v 0.108323 1.233335 0.123806
v 0.108323 0.983713 0.150649
v 0.108323 0.982911 0.138092
v 0.102696 1.234138 0.136363
v 0.102696 1.233335 0.123806
v 0.102696 0.983713 0.150649
v 0.102696 0.982911 0.138092
v 0.108323 1.161004 0.141038
v 0.108323 1.160201 0.128482
v 0.102696 1.161004 0.141038
v 0.102696 1.160201 0.128482
v 0.103570 1.169847 0.100864
v 0.103570 1.220251 0.097642
v 0.107449 1.220251 0.097642
v 0.107449 1.169847 0.100864
vt 0.157732 0.292160
vt 0.164589 0.999977
vt 0.214737 0.999977
vt 0.207881 0.292160
vt 0.615445 0.570533
vt 0.615445 0.520370
vt 0.566281 0.520370
vt 0.566281 0.570533
vt 0.000000 0.707817
vt 0.000000 0.999979
vt 0.050149 0.999979
vt 0.050149 0.707817
vt 0.616444 0.163468
vt 0.666607 0.163468
vt 0.666607 0.114304
vt 0.616444 0.114304
vt 0.365627 0.292160
vt 0.365627 0.000000
vt 0.315464 0.000000
vt 0.315464 0.292160
vt 0.157732 0.954576
vt 0.157732 0.753219
vt 0.415791 0.707842
vt 0.415791 0.000000
vt 0.365627 0.000000
vt 0.365627 0.707842
vt 0.365627 1.000000
vt 0.315464 1.000000
vt 0.006857 0.000000
vt 0.057005 0.000000
vt 0.157732 0.000000
vt 0.207881 0.000000
vt 0.651016 0.364822
vt 0.651016 0.163467
vt 0.616444 0.163467
vt 0.616444 0.364822
vt 0.315464 0.246761
vt 0.315464 0.045403
vt 0.658812 0.000000
vt 0.624240 0.000000
vt 0.415791 0.520370
vt 0.423586 0.634673
vt 0.458159 0.634673
vt 0.465954 0.520370
vn 1.0000 -0.0000 0.0000
vn 0.0000 -0.9980 0.0638
vn -1.0000 0.0000 0.0000
vn 0.0000 0.9980 -0.0638
vn 0.0000 0.0638 0.9980
vn -0.9995 -0.0021 -0.0324
vn 0.0000 -0.0541 -0.9985
vn 0.0000 0.0541 0.9985
vn 0.0000 -0.0638 -0.9980
vn 0.9995 -0.0021 -0.0324
vn 0.0000 0.8944 -0.4473
vn 0.0000 -0.9441 -0.3297
usemtl Buzon
s off
f 57/111/25 51/112/25 52/113/25 58/114/25
f 51/115/26 55/116/26 56/117/26 52/118/26
f 59/119/27 53/120/27 54/121/27 60/122/27
f 53/123/28 49/124/28 50/125/28 54/126/28
f 57/127/29 49/128/29 53/129/29 59/130/29
f 54/121/30 62/131/30 61/132/30 60/122/30
f 56/133/31 60/134/31 58/135/31 52/136/31
f 51/137/32 57/127/32 59/130/32 55/138/32
f 55/139/27 59/119/27 60/122/27 56/140/27
f 49/141/25 57/111/25 58/114/25 50/142/25
f 61/143/33 62/144/33 63/145/33 64/146/33
f 58/114/34 64/147/34 63/148/34 50/142/34
f 50/125/35 63/149/35 62/150/35 54/126/35
f 60/151/36 61/152/36 64/153/36 58/154/36
