# Blender 3.1.0
# www.blender.org
mtllib Casita_Perro.mtl
o Cube.008
v -0.546490 -0.041876 -0.224773
v -0.546490 0.041876 -0.224773
v -0.546490 0.041876 -0.449596
v -0.546490 -0.041876 -0.449596
v 0.546490 0.041876 -0.449596
v 0.546490 -0.041876 -0.449596
v 0.546490 -0.041876 0.193123
v 0.546490 0.041876 0.193123
v 0.546490 0.041876 0.449596
v 0.546490 -0.041876 0.449596
v -0.546490 0.041876 0.449596
v -0.546490 -0.041876 0.449596
v -0.546490 -0.041876 0.193123
v -0.546490 0.041876 0.193123
v 0.546490 0.041876 -0.224773
v 0.546490 -0.041876 -0.224773
v -0.656134 -0.041876 -0.224773
v -0.656134 0.041876 -0.224773
v -0.656134 -0.041876 0.193123
v -0.656134 0.041876 0.193123
v -0.547541 -0.057140 -0.438297
v -0.547541 1.033712 -0.438297
v -0.547541 1.033712 -0.540372
v -0.547541 -0.057140 -0.540372
v 0.543312 1.033712 -0.540372
v 0.543312 -0.057140 -0.540372
v 0.543312 1.033712 -0.438297
v 0.543312 -0.057140 -0.438297
v -0.547541 -0.057140 0.547991
v -0.547541 1.033712 0.547991
v -0.547541 1.033712 0.445916
v -0.547541 -0.057140 0.445916
v 0.543312 1.033712 0.445916
v 0.543312 -0.057140 0.445916
v 0.543312 1.033712 0.547991
v 0.543312 -0.057140 0.547991
v 0.647467 -0.057140 0.555212
v 0.647467 1.033712 0.555212
v 0.545392 1.033712 0.555212
v 0.545392 -0.057140 0.555212
v 0.545391 1.033712 -0.535640
v 0.545391 -0.057140 -0.535640
v 0.647467 1.033712 -0.535640
v 0.647467 -0.057140 -0.535640
v -0.546996 0.583177 0.199061
v -0.546996 0.583177 0.546793
v -0.546996 -0.053708 0.546793
v -0.546996 -0.053708 0.199061
v -0.649071 0.583177 -0.230161
v -0.649071 1.033712 -0.230161
v -0.649071 1.033712 -0.535640
v -0.649071 0.583177 -0.535640
v -0.546996 1.033712 -0.535640
v -0.546996 0.583177 -0.535640
v -0.546996 1.033712 -0.230161
v -0.546996 0.583177 -0.230161
v -0.649071 -0.057140 -0.230161
v -0.649071 -0.057140 -0.535640
v -0.546996 -0.057140 -0.535640
v -0.546996 -0.057140 -0.230161
v -0.546996 1.033712 0.546793
v -0.649071 1.033712 0.546793
v -0.649071 0.583177 0.546793
v -0.546996 1.033712 0.199061
v -0.649071 1.033712 0.199061
v -0.649071 0.583177 0.199061
v -0.649071 -0.053708 0.199061
v -0.649071 -0.053708 0.546793
v -0.683509 1.511323 -0.011544
v -0.683509 1.577252 -0.011544
v -0.683509 0.985460 -0.728928
v -0.683509 0.919532 -0.728928
v 0.751259 0.985460 -0.728928
v 0.751259 0.919532 -0.728928
v 0.751259 1.511323 -0.011544
v 0.751259 1.577252 -0.011545
v 0.751259 0.985460 0.705840
v 0.751259 0.919532 0.705840
v -0.683509 0.985460 0.705840
v -0.683509 0.919532 0.705840
v -0.649071 1.033712 -0.535640
v -0.546996 1.033712 -0.535640
v -0.546996 1.033712 -0.230161
v -0.649071 1.033712 -0.230161
v -0.546996 1.033712 0.199061
v -0.546996 1.033712 0.546793
v -0.649071 1.033712 0.546793
v -0.649071 1.033712 0.199061
v -0.546996 1.033712 -0.015550
v -0.649071 1.033712 -0.015550
v -0.649071 1.079289 -0.535640
v -0.649071 1.329958 -0.230161
v -0.546996 1.329958 -0.230161
v -0.546996 1.079289 -0.535640
v -0.546996 1.329958 0.199061
v -0.649071 1.329958 0.199061
v -0.649071 1.061058 0.546793
v -0.546996 1.061058 0.546793
v -0.546996 1.503148 -0.015550
v -0.649071 1.503148 -0.015550
v 0.533981 1.033712 -0.535640
v 0.636056 1.033712 -0.535640
v 0.636056 1.033712 -0.230161
v 0.533981 1.033712 -0.230161
v 0.636056 1.033712 0.199061
v 0.636056 1.033712 0.546793
v 0.533981 1.033712 0.546793
v 0.533981 1.033712 0.199061
v 0.636056 1.033712 -0.015550
v 0.533981 1.033712 -0.015550
v 0.533981 1.079289 -0.535640
v 0.533981 1.329958 -0.230161
v 0.636056 1.329958 -0.230161
v 0.636056 1.079289 -0.535640
v 0.636056 1.329958 0.199061
v 0.533981 1.329958 0.199061
v 0.533981 1.061058 0.546793
v 0.636056 1.061058 0.546793
v 0.636056 1.503148 -0.015550
v 0.533981 1.503148 -0.015550
vn -1.0000 -0.0000 -0.0000
vn -0.0000 -0.0000 -1.0000
vn 1.0000 -0.0000 -0.0000
vn -0.0000 -0.0000 1.0000
vn -0.0000 -1.0000 -0.0000
vn -0.0000 1.0000 -0.0000
vn -0.0000 0.0052 -1.0000
vn -0.0001 0.0052 1.0000
vn -0.0000 0.0052 1.0000
vn -0.0000 -0.0105 -0.9999
vn -0.0000 0.0105 0.9999
vn -0.0000 0.0105 -0.9999
vn -0.0000 -0.0105 0.9999
vn 0.0001 0.0052 -1.0000
vn -0.0000 0.0107 -0.9999
vn -0.0000 0.0110 0.9999
vn -0.0000 0.0055 1.0000
vn -0.0002 0.0055 1.0000
vn -0.0000 0.0107 0.9999
vt 0.349874 0.840836
vt 0.179874 0.781144
vt 0.334879 0.786880
vt 0.349874 0.780863
vt 0.179874 0.841095
vt 0.424609 0.786862
vt 0.364869 0.780863
vt 0.059973 0.841117
vt 0.409614 0.786862
vt 0.364869 0.840836
vt 0.119924 0.841117
vt 0.349874 0.786880
vt 0.059973 0.781144
vt 0.409614 0.846835
vt 0.059973 0.841117
vt 0.119924 0.781144
vt 0.349874 0.846853
vt 0.059973 0.781144
vt 0.307007 0.846853
vt 0.017106 0.781144
vt 0.452481 0.846835
vt 0.017106 0.841117
vt 0.000000 0.841117
vt 0.119924 0.841117
vt 0.469587 0.846835
vt 0.000000 0.781144
vt 0.179875 0.841117
vt 0.289901 0.846853
vt 0.119924 0.781144
vt 0.469587 0.786862
vt 0.514565 0.840819
vt 0.179875 0.781144
vt 0.289901 0.786880
vt 0.514565 0.780846
vt 0.497459 0.780846
vt 0.191907 0.781144
vt 0.307007 0.786880
vt 0.497459 0.840819
vt 0.452481 0.786862
vt 0.191907 0.841094
vt 0.424609 0.846835
vt 0.044978 0.841117
vt 0.334879 0.846853
vt 0.044978 0.781144
vt 0.185891 0.781144
vt 0.469587 0.780846
vt 0.334879 0.780863
vt 0.185891 0.841095
vt 0.469587 0.840819
vt 0.424609 0.780846
vt 0.497459 0.780846
vt 0.185891 0.781144
vt 0.307007 0.780863
vt 0.497459 0.840819
vt 0.452481 0.780846
vt 0.185891 0.841094
vt 0.977596 0.000000
vt 0.469470 0.000000
vt 0.385293 0.780863
vt 0.977596 0.781144
vt 0.469470 0.780846
vt 0.378485 0.840720
vt 0.970788 0.781144
vt 0.409614 0.780863
vt 0.385293 0.840720
vt 0.970788 0.000000
vt 0.409614 0.000000
vt 0.392101 0.780863
vt 0.349758 0.780863
vt 0.970788 0.781144
vt 0.385293 0.780863
vt 0.349758 0.000000
vt 0.970788 0.000000
vt 0.392101 0.840720
vt 0.963979 0.781144
vt 0.529326 0.780846
vt 0.378485 0.780863
vt 0.963980 0.000000
vt 0.529326 0.000000
vt 0.385293 0.840720
vt 0.963979 0.000000
vt 0.409614 0.000000
vt 0.364869 0.780863
vt 0.963979 0.781144
vt 0.409614 0.780846
vt 0.371677 0.840720
vt 0.957171 0.781144
vt 0.349757 0.780863
vt 0.378485 0.840720
vt 0.957171 0.000000
vt 0.349758 0.000000
vt 0.371677 0.780863
vt 0.289901 0.780863
vt 0.957171 0.781144
vt 0.378485 0.780863
vt 0.289901 0.000000
vt 0.957172 0.000000
vt 0.371677 0.840720
vt 0.950363 0.781144
vt 0.469470 0.780846
vt 0.371677 0.780863
vt 0.950364 0.000000
vt 0.469470 0.000000
vt 0.364869 0.840720
vt 0.994399 0.000000
vt 0.072756 0.000000
vt 0.514565 0.780846
vt 0.994399 0.780846
vt 0.072756 0.781144
vt 0.525767 0.780846
vt 0.988798 0.780846
vt 0.072756 0.781144
vt 0.520166 0.780846
vt 0.988798 0.000000
vt 0.072756 0.000000
vt 0.520166 0.780846
vt 0.000000 0.781144
vt 0.983197 0.780863
vt 0.520166 0.853602
vt 0.000000 0.000000
vt 0.983197 0.000000
vt 0.520166 0.853602
vt 0.977596 0.780863
vt 0.145512 0.781144
vt 0.525767 0.853602
vt 0.977596 0.000000
vt 0.145512 0.000000
vt 0.514565 0.853602
vt 0.240899 0.458522
vt 0.197508 0.809772
vt 0.692382 0.926884
vt 0.217707 0.458522
vt 1.000000 0.455890
vt 0.217707 0.002458
vt 0.203109 0.804337
vt 1.000000 0.000000
vt 0.240899 0.002458
vt 0.203109 0.781144
vt 0.692382 0.470984
vt 0.686781 0.929331
vt 0.165887 0.458522
vt 0.191907 0.781144
vt 0.165887 0.781144
vt 0.397702 0.801238
vt 0.145512 0.781144
vt 0.988798 0.780863
vt 0.397702 0.780863
vt 0.988798 0.458357
vt 0.145512 0.458522
vt 0.983197 0.780863
vt 0.289901 0.781144
vt 0.392101 0.780863
vt 0.289901 0.458522
vt 0.983197 0.458357
vt 0.269527 0.781144
vt 0.392101 0.801238
vt 0.692382 0.929331
vt 0.269527 0.458522
vt 0.197508 0.781144
vt 0.203109 0.801518
vt 0.165887 0.000000
vt 0.686781 0.470984
vt 0.203109 0.781144
vt 0.988798 0.000000
vt 0.145512 0.000000
vt 0.208710 0.781144
vt 0.289901 0.000000
vt 0.983197 0.000000
vt 0.208710 0.801518
vt 0.269527 0.000000
vt 0.692382 0.470984
vt 1.000000 0.778389
vt 0.392101 0.853058
vt 0.217707 0.781144
vt 0.994399 0.778389
vt 0.397702 0.853058
vt 0.217707 0.781144
vt 0.217707 0.458522
vt 0.994399 0.455890
vt 0.240899 0.781144
vt 0.392101 0.829865
vt 0.194514 0.781144
vt 0.397702 0.829865
vt 0.191907 0.809772
vt 0.697983 0.926884
vt 0.194514 0.458522
vt 0.197508 0.781144
vt 0.697983 0.470984
vt 0.194514 0.002458
vt 0.197508 0.804337
vt 0.217707 0.002458
vt 0.994399 0.000000
vt 0.608054 0.893274
vt 0.672867 0.047211
vt 0.720714 0.472126
vt 0.878169 0.472097
vt 0.672867 0.000000
vt 0.720714 0.423775
vt 0.878169 0.047194
vt 0.720714 0.470985
vt 0.878169 0.000000
vt 0.608054 0.470984
vt 0.799441 0.047194
vt 0.529326 0.423775
vt 0.799441 0.000000
vt 0.686781 0.470984
vt 0.529326 0.470985
vt 0.529326 0.893322
vt 0.686781 0.893274
vt 0.577173 0.047211
vt 0.799441 0.472097
vt 0.577173 0.000000
vt 0.625020 0.423775
vt 0.799441 0.047192
vt 0.625020 0.470985
vt 0.799441 0.000000
vt 0.529326 0.470984
vt 0.720714 0.047192
vt 0.625020 0.423775
vt 0.720714 0.000000
vt 0.608054 0.470984
vt 0.625020 0.470985
vt 0.403303 0.780863
vt 0.792909 0.808281
vt 0.714786 0.470984
vt 0.408904 0.780863
vt 0.865103 0.808281
vt 0.709185 0.470984
vt 0.408904 0.801238
vt 0.885478 0.808281
vt 0.403303 0.801238
vt 0.772534 0.808281
vt 0.408904 0.829865
vt 0.914105 0.808281
vt 0.408904 0.853058
vt 0.703584 0.470984
vt 0.937298 0.808281
vt 0.403303 0.853058
vt 0.697983 0.470984
vt 0.720714 0.808281
vt 0.403303 0.829865
vt 0.743907 0.808281
vt 0.408904 0.815552
vt 0.899791 0.808281
vt 0.403303 0.815552
vt 0.758221 0.808281
vt 0.792909 0.775646
vt 0.714786 0.503609
vt 0.714786 0.683592
vt 0.772534 0.596146
vt 0.709185 0.683592
vt 0.885478 0.596146
vt 0.865103 0.775646
vt 0.709185 0.503609
vt 0.703584 0.683680
vt 0.914105 0.596146
vt 0.697983 0.683680
vt 0.743907 0.596146
vt 0.697983 0.490559
vt 0.720714 0.788700
vt 0.703584 0.490559
vt 0.937298 0.788700
vt 0.703584 0.808046
vt 0.709185 0.807949
vt 0.899791 0.472126
vt 0.697983 0.808046
vt 0.714786 0.807949
vt 0.758221 0.472126
vt 0.397702 0.780863
vt 0.950363 0.336155
vt 0.714786 0.807949
vt 0.403303 0.780863
vt 0.792909 0.808281
vt 0.720387 0.807949
vt 0.403303 0.801238
vt 0.813283 0.808281
vt 0.397702 0.801238
vt 0.929989 0.336155
vt 0.403303 0.829865
vt 0.841911 0.808281
vt 0.403303 0.853058
vt 0.703584 0.808048
vt 0.865103 0.808281
vt 0.397702 0.853058
vt 0.709185 0.808048
vt 0.878169 0.336155
vt 0.397702 0.829865
vt 0.901361 0.336155
vt 0.403303 0.815552
vt 0.827597 0.808281
vt 0.397702 0.815552
vt 0.915675 0.336155
vt 0.950363 0.303520
vt 0.714786 0.775326
vt 0.714786 0.595345
vt 0.929989 0.124020
vt 0.720387 0.595345
vt 0.813283 0.596146
vt 0.792909 0.775646
vt 0.720387 0.775326
vt 0.703584 0.595352
vt 0.841911 0.596146
vt 0.709185 0.595352
vt 0.901361 0.124020
vt 0.709185 0.788475
vt 0.878169 0.316574
vt 0.703584 0.788475
vt 0.865103 0.788700
vt 0.703584 0.470985
vt 0.720387 0.470985
vt 0.827597 0.472126
vt 0.709185 0.470985
vt 0.714786 0.470985
vt 0.915675 0.000000
s 1
usemtl Material.001
f 1/1/1 2/4/1 3/7/1 4/10/1
f 4/11/2 3/8/2 5/13/2 6/16/2
f 7/20/3 8/22/3 9/23/3 10/26/3
f 10/27/4 9/24/4 11/29/4 12/32/4
f 13/37/5 7/19/5 10/28/5 12/33/5
f 8/21/6 14/39/6 11/30/6 9/25/6
f 5/14/6 3/9/6 2/6/6 15/41/6
f 15/41/6 2/6/6 14/39/6 8/21/6
f 4/12/5 6/17/5 16/43/5 1/3/5
f 1/3/5 16/43/5 7/19/5 13/37/5
f 6/18/3 5/15/3 15/42/3 16/44/3
f 16/44/3 15/42/3 8/22/3 7/20/3
f 12/34/1 11/31/1 14/38/1 13/35/1
f 2/5/2 1/2/2 17/45/2 18/48/2
f 19/51/1 20/54/1 18/49/1 17/46/1
f 14/39/6 2/6/6 18/50/6 20/55/6
f 13/36/4 14/40/4 20/56/4 19/52/4
f 1/3/5 13/37/5 19/53/5 17/47/5
f 21/57/1 22/60/1 23/63/1 24/66/1
f 24/67/2 23/64/2 25/69/2 26/72/2
f 26/73/3 25/70/3 27/75/3 28/78/3
f 28/79/4 27/76/4 22/61/4 21/58/4
f 24/68/5 26/74/5 28/80/5 21/59/5
f 25/71/6 23/65/6 22/62/6 27/77/6
f 29/81/1 30/84/1 31/87/1 32/90/1
f 32/91/2 31/88/2 33/93/2 34/96/2
f 34/97/3 33/94/3 35/99/3 36/102/3
f 36/103/4 35/100/4 30/85/4 29/82/4
f 32/92/5 34/98/5 36/104/5 29/83/5
f 33/95/6 31/89/6 30/86/6 35/101/6
f 37/105/4 38/108/4 39/111/4 40/114/4
f 40/115/1 39/112/1 41/117/1 42/120/1
f 42/121/2 41/118/2 43/123/2 44/126/2
f 44/127/3 43/124/3 38/109/3 37/106/3
f 40/116/5 42/122/5 44/128/5 37/107/5
f 41/119/6 39/113/6 38/110/6 43/125/6
f 45/129/3 46/132/3 47/134/3 48/137/3
f 49/141/1 50/143/1 51/145/1 52/149/1
f 52/148/2 51/146/2 53/150/2 54/154/2
f 54/153/3 53/151/3 55/155/3 56/158/3
f 57/160/5 58/163/5 59/166/5 60/169/5
f 51/147/6 50/144/6 55/156/6 53/152/6
f 59/167/3 54/153/3 56/158/3 60/170/3
f 58/164/2 52/148/2 54/154/2 59/168/2
f 57/161/1 49/141/1 52/149/1 58/165/1
f 60/171/4 56/157/4 49/140/4 57/162/4
f 46/133/4 61/172/4 62/175/4 63/179/4
f 64/181/6 65/183/6 62/176/6 61/173/6
f 65/182/1 66/186/1 63/178/1 62/177/1
f 45/129/3 64/180/3 61/174/3 46/132/3
f 56/158/3 55/155/3 64/180/3 45/129/3
f 50/143/1 49/141/1 66/186/1 65/182/1
f 55/156/6 50/144/6 65/183/6 64/181/6
f 49/142/5 56/159/5 45/130/5 66/184/5
f 67/187/5 48/138/5 47/135/5 68/190/5
f 66/185/2 45/131/2 48/139/2 67/188/2
f 63/178/1 66/186/1 67/189/1 68/191/1
f 46/133/4 63/179/4 68/192/4 47/136/4
f 69/194/1 70/197/1 71/198/1 72/200/1
f 72/201/2 71/199/7 73/203/7 74/205/2
f 75/210/3 76/212/3 77/213/3 78/215/3
f 78/216/4 77/214/8 79/218/9 80/220/4
f 69/193/10 75/208/10 78/217/10 80/221/10
f 76/211/11 70/195/11 79/218/9 77/214/8
f 73/203/7 71/199/7 70/196/12 76/211/12
f 72/202/13 74/206/13 75/209/13 69/193/13
f 74/207/3 73/204/3 76/212/3 75/210/3
f 80/222/1 79/219/1 70/197/1 69/194/1
f 81/223/5 82/226/5 83/229/5 84/231/5
f 85/233/5 86/235/5 87/238/5 88/241/5
f 89/243/5 85/233/5 88/241/5 90/245/5
f 83/229/5 89/243/5 90/245/5 84/231/5
f 91/248/14 92/249/15 93/251/15 94/254/7
f 95/255/16 96/257/16 97/259/17 98/261/18
f 99/263/19 100/266/19 96/257/16 95/255/16
f 93/251/15 92/249/15 100/267/15 99/264/15
f 83/230/3 82/227/3 94/253/3 93/252/3
f 85/234/3 89/244/3 99/265/3 95/256/3
f 90/246/1 88/242/1 96/258/1 100/268/1
f 87/239/4 86/236/4 98/261/18 97/259/17
f 84/232/1 90/246/1 100/268/1 92/250/1
f 81/224/1 84/232/1 92/250/1 91/247/1
f 86/237/3 85/234/3 95/256/3 98/262/3
f 88/242/1 87/240/1 97/260/1 96/258/1
f 82/228/2 81/225/2 91/248/14 94/254/7
f 89/244/3 83/230/3 93/252/3 99/265/3
f 101/269/5 102/272/5 103/275/5 104/277/5
f 105/279/5 106/281/5 107/284/5 108/287/5
f 109/289/5 105/279/5 108/287/5 110/291/5
f 103/275/5 109/289/5 110/291/5 104/277/5
f 111/294/7 112/295/15 113/297/15 114/300/7
f 115/301/16 116/303/16 117/305/17 118/307/18
f 119/309/19 120/312/19 116/303/16 115/301/16
f 113/297/15 112/295/15 120/313/15 119/310/15
f 103/276/3 102/273/3 114/299/3 113/298/3
f 105/280/3 109/290/3 119/311/3 115/302/3
f 110/292/1 108/288/1 116/304/1 120/314/1
f 107/285/4 106/282/4 118/307/18 117/305/17
f 104/278/1 110/292/1 120/314/1 112/296/1
f 101/270/1 104/278/1 112/296/1 111/293/1
f 106/283/3 105/280/3 115/302/3 118/308/3
f 108/288/1 107/286/1 117/306/1 116/304/1
f 102/274/2 101/271/2 111/294/7 114/300/7
f 109/290/3 103/276/3 113/298/3 119/311/3
