# Blender 3.1.0
# www.blender.org
mtllib Direccion_Poste.mtl
o Cube.038
v 0.097580 0.296522 0.220626
v 0.097580 0.616050 0.220625
v 0.097695 0.616050 -0.220268
v 0.097695 0.296522 -0.220268
v 0.184458 0.296522 -0.220246
v 0.097764 0.296522 -0.486995
v 0.184527 0.296522 -0.486972
v 0.184458 0.616050 -0.220246
v 0.184342 0.616050 0.220647
v 0.184342 0.296522 0.220647
v 0.184527 0.616050 -0.486972
v 0.097764 0.616050 -0.486995
v 0.097816 0.438234 -0.682534
v 0.097816 0.474338 -0.682534
v 0.184578 0.474338 -0.682511
v 0.184578 0.438234 -0.682511
v 0.357186 -2.014132 -0.080562
v 0.357186 -1.730419 -0.080562
v 0.337446 -1.730419 0.081675
v 0.337446 -2.014132 0.081675
v 0.175210 -1.730419 0.061935
v 0.175210 -2.014132 0.061935
v 0.194949 -1.730419 -0.100301
v 0.194949 -2.014132 -0.100301
v 0.337446 1.699065 0.081675
v 0.175210 1.699065 0.061935
v 0.357186 1.699065 -0.080562
v 0.194949 1.699065 -0.100301
v 0.216630 1.370558 -0.316158
v 0.216630 1.690087 -0.316158
v 0.168185 1.690087 0.122067
v 0.168185 1.370558 0.122067
v 0.081949 1.370558 0.112533
v 0.138879 1.370558 0.387177
v 0.052642 1.370558 0.377644
v 0.081949 1.690087 0.112533
v 0.130392 1.690087 -0.325692
v 0.130392 1.370558 -0.325691
v 0.052642 1.690087 0.377644
v 0.138879 1.690087 0.387177
v 0.117394 1.512271 0.581532
v 0.117394 1.548374 0.581532
v 0.031157 1.548374 0.571999
v 0.031157 1.512271 0.571999
v 0.191428 0.875962 -0.213593
v 0.191428 1.195491 -0.213593
v 0.138176 1.195491 0.224073
v 0.138176 0.875962 0.224073
v 0.052049 0.875962 0.213593
v 0.105961 0.875962 0.488846
v 0.019834 0.875962 0.478367
v 0.052049 1.195491 0.213593
v 0.105300 1.195491 -0.224073
v 0.105300 0.875962 -0.224073
v 0.019834 1.195491 0.478367
v 0.105961 1.195491 0.488846
v 0.082344 1.017675 0.682953
v 0.082344 1.053778 0.682953
v -0.003783 1.053778 0.672474
v -0.003783 1.017675 0.672474
vn -1.0000 -0.0000 0.0008
vn -1.0000 -0.0000 0.0007
vn -0.0000 -1.0000 -0.0000
vn 1.0000 -0.0000 -0.0006
vn 1.0000 -0.0000 -0.0005
vn -0.0002 -0.0000 1.0000
vn -0.0000 1.0000 -0.0000
vn 0.0003 -0.0000 -1.0000
vn 1.0000 -0.0000 -0.0001
vn 0.0003 -0.5869 -0.8097
vn 0.0002 -0.5869 -0.8097
vn 0.0003 0.5869 -0.8097
vn 0.0002 0.5869 -0.8097
vn 0.2720 -0.0000 0.9623
vn 0.0300 -0.0000 0.9995
vn -0.2720 -0.0000 -0.9623
vn -0.0300 -0.0000 -0.9996
vn 0.0300 -0.0001 0.9995
vn -0.0300 -0.0001 -0.9996
vn 0.2825 -0.0000 0.9593
vn -0.2825 -0.0000 -0.9593
vn -0.0410 -0.0000 -0.9992
vn 0.0409 -0.0000 0.9992
vn 0.0409 -0.0001 0.9992
vn 0.0327 -0.5915 0.8057
vn 0.0329 -0.5915 0.8056
vn 0.0328 0.5915 0.8057
vn 0.0329 0.5915 0.8056
vn 0.0327 0.5915 0.8057
vn -0.0300 -0.0000 -0.9995
vn -0.0300 -0.0001 -0.9995
vn 0.0300 -0.0000 0.9996
vn 0.0240 -0.5915 0.8060
vn 0.0239 -0.5915 0.8060
vn 0.0240 0.5915 0.8060
vn 0.0239 0.5915 0.8060
vt 0.605156 0.000000
vt 0.383359 0.549437
vt 0.519104 0.176275
vt 0.691208 0.000000
vt 0.383359 0.635489
vt 0.605156 0.352551
vt 0.605156 0.266499
vt 0.691208 0.086052
vt 0.519104 0.090223
vt 0.605156 0.086052
vt 0.605156 0.090223
vt 0.605156 0.438603
vt 0.519104 0.038165
vt 0.605156 0.138111
vt 0.605156 0.490662
vt 0.605156 0.038165
vt 0.519104 0.266499
vt 0.519104 0.438603
vt 0.469385 0.635489
vt 0.519104 0.352551
vt 0.605156 0.352551
vt 0.469385 0.549437
vt 0.605156 0.176275
vt 0.519104 0.490662
vt 0.519104 0.214440
vt 0.605156 0.214440
vt 0.691208 0.138111
vt 0.479108 0.635463
vt 0.519104 0.000000
vt 0.643320 0.176276
vt 0.469385 0.635463
vt 0.605156 0.176275
vt 0.653043 0.176276
vt 0.469385 0.549437
vt 0.557268 0.528827
vt 0.519104 0.176275
vt 0.479108 0.549437
vt 0.566991 0.528827
vt 0.605156 0.000000
vt 0.351853 0.000000
vt 0.000000 0.000000
vt 0.691208 0.086052
vt 0.351853 0.076406
vt 0.000000 0.076406
vt 0.320348 0.076406
vt 0.320348 0.000000
vt 0.723488 0.110415
vt 0.160174 0.076406
vt 0.383359 0.076406
vt 0.160174 0.000000
vt 0.383359 0.000000
vt 0.723488 0.270593
vt 0.351854 0.076406
vt 0.160174 0.076406
vt 0.351854 0.000000
vt 0.160174 0.000000
vt 0.691208 0.246229
vt 0.723488 0.430769
vt 0.320348 1.000000
vt 0.160174 1.000000
vt 0.723488 0.270593
vt 0.383359 1.000000
vt 0.691208 0.455133
vt 0.351853 1.000000
vt 0.000000 1.000000
vt 0.691208 0.294956
vt 0.351854 1.000000
vt 0.160173 1.000000
vt 0.605156 0.702932
vt 0.691208 0.000000
vt 0.519103 0.274719
vt 0.519104 0.702932
vt 0.691208 0.086052
vt 0.519104 0.274719
vt 0.519104 0.165617
vt 0.519104 0.617939
vt 0.519103 0.383821
vt 0.605156 0.617939
vt 0.451231 0.435047
vt 0.691208 0.261268
vt 0.519103 0.449823
vt 0.605156 0.566521
vt 0.691208 0.312686
vt 0.451231 0.501050
vt 0.451231 0.114390
vt 0.605156 0.261268
vt 0.605156 0.176275
vt 0.776240 0.086052
vt 0.451231 0.223492
vt 0.691208 0.176275
vt 0.776240 0.000000
vt 0.451231 0.325945
vt 0.605156 0.312686
vt 0.451231 0.048387
vt 0.519104 0.099614
vt 0.519104 0.566521
vt 0.498553 0.634470
vt 0.519103 0.498211
vt 0.566991 0.528827
vt 0.488831 0.634470
vt 0.519104 0.051227
vt 0.557269 0.528827
vt 0.488831 0.549437
vt 0.643321 0.350381
vt 0.451231 0.000000
vt 0.498553 0.549437
vt 0.653043 0.350381
vt 0.451231 0.549437
vt 0.605156 0.524486
vt 0.383359 0.635489
vt 0.451231 0.274719
vt 0.691208 0.524486
vt 0.383359 0.721542
vt 0.451231 0.274719
vt 0.451231 0.165617
vt 0.691208 0.609479
vt 0.451231 0.383821
vt 0.605156 0.609479
vt 0.383359 0.435047
vt 0.691208 0.435373
vt 0.451231 0.449823
vt 0.605156 0.660897
vt 0.691208 0.486791
vt 0.383359 0.501050
vt 0.383359 0.114390
vt 0.605156 0.435373
vt 0.605156 0.350381
vt 0.468391 0.721542
vt 0.383359 0.223492
vt 0.691208 0.350381
vt 0.468391 0.635489
vt 0.383359 0.325945
vt 0.605156 0.486791
vt 0.383359 0.048387
vt 0.451231 0.099614
vt 0.691208 0.660897
vt 0.488830 0.634470
vt 0.451231 0.498211
vt 0.643320 0.698591
vt 0.479107 0.634470
vt 0.451231 0.051227
vt 0.653043 0.698591
vt 0.479107 0.549437
vt 0.643321 0.524486
vt 0.383359 0.000000
vt 0.488830 0.549437
vt 0.653043 0.524486
vt 0.383359 0.549437
s 1
usemtl Direcciones_Madera
f 1/1/1 2/4/1 3/8/2 4/10/2
f 5/11/3 4/9/3 6/13/3 7/16/3
f 5/12/4 8/18/4 9/20/5 10/21/5
f 10/22/6 9/19/6 2/5/6 1/2/6
f 4/9/3 5/11/3 10/23/3 1/3/3
f 8/17/7 3/7/7 2/6/7 9/20/7
f 3/7/7 8/17/7 11/25/7 12/26/7
f 13/28/8 14/31/8 15/34/8 16/37/8
f 8/18/4 5/12/4 7/15/9 16/38/9 15/35/9 11/24/9
f 7/16/10 6/13/11 13/29/10 16/39/11
f 12/26/12 11/25/13 15/36/13 14/32/13
f 4/10/2 3/8/2 12/27/1 14/33/1 13/30/1 6/14/1
f 17/40/14 18/43/14 19/45/14 20/46/14
f 20/46/15 19/45/15 21/48/15 22/50/15
f 22/51/16 21/49/16 23/53/16 24/55/16
f 24/56/17 23/54/17 18/44/17 17/41/17
f 20/47/3 22/52/3 24/57/3 17/42/3
f 21/48/15 19/45/15 25/59/18 26/60/15
f 26/61/7 25/58/7 27/63/7 28/66/7
f 23/53/16 21/49/16 26/62/16 28/67/16
f 19/45/14 18/43/14 27/64/14 25/59/14
f 18/44/17 23/54/17 28/68/19 27/65/17
f 29/69/20 30/72/20 31/76/20 32/78/20
f 33/79/3 32/77/3 34/81/3 35/84/3
f 33/80/21 36/86/21 37/87/21 38/90/21
f 38/91/22 37/88/22 30/73/22 29/70/22
f 32/77/3 33/79/3 38/92/3 29/71/3
f 36/85/7 31/75/7 30/74/7 37/89/7
f 31/75/7 36/85/7 39/94/7 40/95/7
f 41/97/23 42/100/24 43/103/23 44/106/23
f 36/86/21 33/80/21 35/83/21 44/107/21 43/104/21 39/93/21
f 35/84/25 34/81/25 41/98/25 44/108/26
f 40/95/27 39/94/27 43/105/28 42/101/29
f 32/78/20 31/76/20 40/96/20 42/102/20 41/99/20 34/82/20
f 45/109/14 46/112/14 47/116/14 48/118/14
f 49/119/3 48/117/3 50/121/3 51/124/3
f 49/120/16 52/126/16 53/127/16 54/130/16
f 54/131/30 53/128/31 46/113/30 45/110/30
f 48/117/3 49/119/3 54/132/3 45/111/3
f 52/125/7 47/115/7 46/114/7 53/129/7
f 47/115/7 52/125/7 55/134/7 56/135/7
f 57/137/32 58/140/32 59/143/32 60/146/32
f 52/126/16 49/120/16 51/123/16 60/147/16 59/144/16 55/133/16
f 51/124/33 50/121/33 57/138/34 60/148/33
f 56/135/35 55/134/35 59/145/35 58/141/36
f 48/118/14 47/116/14 56/136/14 58/142/14 57/139/14 50/122/14
