# Blender 3.1.0
# www.blender.org
mtllib Pozo_Coli.mtl
o Cube
v 1.221416 -1.711587 -1.040515
v 1.221416 0.454733 -1.040515
v 1.221416 -1.711587 1.056596
v 1.221416 0.454733 1.056596
v -1.221416 -1.711587 -1.040515
v -1.221416 0.454733 -1.040515
v -1.221416 -1.711587 1.056596
v -1.221416 0.454733 1.056596
vn 1.2214 -0.0000 -0.0000
vn -0.0000 -0.0000 0.9093
vn -1.2214 -0.0000 -0.0000
vn -0.0000 -0.0000 -0.9093
vn -0.0000 -1.8392 -0.0000
vn -0.0000 1.8392 -0.0000
vt 0.375000 0.000000
vt 0.375000 1.000000
vt 0.125000 0.750000
vt 0.625000 0.000000
vt 0.625000 1.000000
vt 0.875000 0.750000
vt 0.375000 0.250000
vt 0.125000 0.500000
vt 0.625000 0.250000
vt 0.875000 0.500000
vt 0.375000 0.750000
vt 0.625000 0.750000
vt 0.375000 0.500000
vt 0.625000 0.500000
s 0
f 1/1/1 2/4/1 4/9/1 3/7/1
f 3/7/2 4/9/2 8/14/2 7/13/2
f 7/13/3 8/14/3 6/12/3 5/11/3
f 5/11/4 6/12/4 2/5/4 1/2/4
f 3/8/5 7/13/5 5/11/5 1/3/5
f 8/14/6 4/10/6 2/6/6 6/12/6
