# Blender 3.1.0
# www.blender.org
mtllib PValla3.mtl
o Pvalla3
v 0.111484 -0.574222 4.906411
v 0.111484 -0.503809 4.906411
v 0.135800 -0.574222 4.906411
v 0.135800 -0.503809 4.906411
v 0.135800 -0.574222 4.825080
v 0.135800 -0.503809 4.825080
v 0.111484 -0.503809 4.825080
v 0.111484 -0.574222 4.825080
v 0.008292 -0.982500 4.822569
v -0.065399 -0.982500 4.822569
v 0.008292 -0.826259 4.863764
v -0.065399 -0.826259 4.863764
v -0.065398 0.109080 0.130845
v -0.065398 -0.047161 0.089652
v 0.008293 -0.047161 0.089652
v 0.008293 0.109080 0.130845
v 0.115388 -1.140279 4.906017
v -0.024609 -1.140279 4.906017
v 0.115388 -0.850912 4.906017
v -0.024609 -0.850912 4.906017
v -0.024608 -0.850912 0.051360
v -0.024608 -1.140279 0.051360
v 0.115389 -1.140279 0.051360
v 0.115389 -0.850912 0.051360
v 0.115388 -0.151736 4.906017
v -0.024609 -0.151736 4.906017
v 0.115389 0.137631 4.906017
v -0.024608 0.137631 4.906017
v -0.024608 0.137630 0.051360
v -0.024608 -0.151736 0.051360
v 0.115389 -0.151736 0.051360
v 0.115389 0.137630 0.051360
v 0.166576 0.217545 4.772175
v 0.127371 0.217545 4.772175
v 0.166576 0.217545 4.464468
v 0.127371 0.217545 4.464468
v 0.127370 -1.219075 4.464468
v 0.127370 -1.219075 4.772175
v 0.166575 -1.219075 4.772175
v 0.166575 -1.219075 4.464468
v 0.166576 0.217545 4.433698
v 0.127371 0.217545 4.433698
v 0.166576 0.217545 4.125989
v 0.127371 0.217545 4.125989
v 0.127370 -1.219075 4.125989
v 0.127370 -1.219075 4.433698
v 0.166575 -1.219075 4.433698
v 0.166575 -1.219075 4.125989
v 0.166576 0.217545 4.095219
v 0.127371 0.217545 4.095219
v 0.166576 0.217545 3.787512
v 0.127371 0.217545 3.787512
v 0.127370 -1.219075 3.787512
v 0.127370 -1.219075 4.095219
v 0.166575 -1.219075 4.095219
v 0.166575 -1.219075 3.787512
v 0.166576 0.217545 3.756742
v 0.127371 0.217545 3.756742
v 0.166576 0.217545 3.449034
v 0.127371 0.217545 3.449034
v 0.127370 -1.219075 3.449034
v 0.127370 -1.219075 3.756742
v 0.166575 -1.219075 3.756742
v 0.166575 -1.219075 3.449034
v 0.166576 0.217545 3.418263
v 0.127371 0.217545 3.418263
v 0.166576 0.217545 3.110556
v 0.127371 0.217545 3.110556
v 0.127370 -1.219075 3.110556
v 0.127370 -1.219075 3.418263
v 0.166575 -1.219075 3.418263
v 0.166575 -1.219075 3.110556
v 0.166576 0.217545 3.079786
v 0.127371 0.217545 3.079786
v 0.166576 0.217545 2.772079
v 0.127371 0.217545 2.772079
v 0.127370 -1.219075 2.772079
v 0.127370 -1.219075 3.079786
v 0.166575 -1.219075 3.079786
v 0.166575 -1.219075 2.772079
v 0.166576 0.217545 2.741307
v 0.127371 0.217545 2.741307
v 0.166576 0.217545 2.433600
v 0.127371 0.217545 2.433600
v 0.127370 -1.219075 2.433600
v 0.127370 -1.219075 2.741307
v 0.166575 -1.219075 2.741307
v 0.166575 -1.219075 2.433600
v 0.166576 0.217545 2.402829
v 0.127371 0.217545 2.402829
v 0.166576 0.217545 2.095121
v 0.127371 0.217545 2.095121
v 0.127370 -1.219075 2.095121
v 0.127370 -1.219075 2.402829
v 0.166575 -1.219075 2.402829
v 0.166575 -1.219075 2.095121
v 0.166576 0.217545 2.064351
v 0.127371 0.217545 2.064351
v 0.166576 0.217545 1.756644
v 0.127371 0.217545 1.756644
v 0.127370 -1.219075 1.756644
v 0.127370 -1.219075 2.064351
v 0.166575 -1.219075 2.064351
v 0.166575 -1.219075 1.756644
v 0.166576 0.217545 1.725874
v 0.127371 0.217545 1.725874
v 0.166576 0.217545 1.418167
v 0.127371 0.217545 1.418167
v 0.127370 -1.219075 1.418167
v 0.127370 -1.219075 1.725874
v 0.166575 -1.219075 1.725874
v 0.166575 -1.219075 1.418167
v 0.166576 0.217545 1.387395
v 0.127371 0.217545 1.387395
v 0.166576 0.217545 1.079688
v 0.127371 0.217545 1.079688
v 0.127370 -1.219075 1.079688
v 0.127370 -1.219075 1.387395
v 0.166575 -1.219075 1.387395
v 0.166575 -1.219075 1.079688
v 0.166576 0.217545 1.048918
v 0.127371 0.217545 1.048918
v 0.166576 0.217545 0.741211
v 0.127371 0.217545 0.741211
v 0.127370 -1.219075 0.741211
v 0.127370 -1.219075 1.048918
v 0.166575 -1.219075 1.048918
v 0.166575 -1.219075 0.741211
v 0.166576 0.217545 0.710440
v 0.127371 0.217545 0.710440
v 0.166576 0.217545 0.402732
v 0.127371 0.217545 0.402732
v 0.127370 -1.219075 0.402732
v 0.127370 -1.219075 0.710440
v 0.166575 -1.219075 0.710440
v 0.166575 -1.219075 0.402732
v 0.166576 0.217545 0.371961
v 0.127371 0.217545 0.371961
v 0.166576 0.217545 0.064254
v 0.127371 0.217545 0.064254
v 0.127370 -1.219075 0.064254
v 0.127370 -1.219075 0.371961
v 0.166575 -1.219075 0.371961
v 0.166575 -1.219075 0.064254
v 0.166576 -1.218974 4.956799
v 0.166577 0.217645 4.956799
v 0.127372 0.217645 4.956799
v 0.127371 -1.218974 4.956799
v 0.166576 -1.218974 4.802946
v 0.166577 0.217645 4.802946
v 0.127372 0.217645 4.802946
v 0.127371 -1.218974 4.802946
vn -0.0000 1.0000 -0.0000
vn -0.0000 -1.0000 -0.0000
vn -1.0000 -0.0000 -0.0000
vn -0.0000 -0.0000 1.1550
vn 1.0000 -0.0000 -0.0000
vn -0.0000 -0.0000 -1.1550
vn -0.0000 -0.2221 1.1262
vn -0.0000 -0.9751 -0.2563
vn -0.0000 0.9750 0.2565
vn -0.0000 0.2225 -1.1261
vt 0.515385 0.659635
vt 0.515385 0.669184
vt 0.515385 0.569996
vt 0.515385 0.614816
vt 0.515385 0.678734
vt 0.505836 0.569996
vt 0.515385 0.637225
vt 0.515385 0.592406
vt 0.505836 0.659634
vt 0.515385 0.637225
vt 0.505836 0.592406
vt 0.505836 0.669184
vt 0.505835 0.637225
vt 0.515385 0.659634
vt 0.515385 0.592406
vt 0.505835 0.637225
vt 0.515385 0.669184
vt 0.505836 0.592406
vt 0.505835 0.678734
vt 0.505835 0.614816
vt 0.505835 0.659635
vt 0.505835 0.669184
vt 0.515385 0.614815
vt 0.830628 0.570036
vt 0.982003 0.196934
vt 0.651910 0.557191
vt 0.982003 0.129021
vt 0.583997 0.557191
vt 0.808893 0.000000
vt 0.852364 0.570036
vt 0.960757 0.196934
vt 0.516084 0.557191
vt 0.960757 0.129021
vt 0.830628 0.000000
vt 0.583997 0.557191
vt 0.830628 0.570036
vt 0.583997 0.000000
vt 0.960757 0.264847
vt 0.583997 0.000000
vt 0.808893 0.570036
vt 0.982003 0.264847
vt 0.830628 0.000000
vt 0.651910 0.000000
vt 0.982003 0.196934
vt 0.852364 0.000000
vt 0.516084 0.000000
vt 0.960757 0.196934
vt 0.730402 0.000000
vt 0.891606 0.518707
vt 0.129021 0.000000
vt 0.891606 0.389686
vt 0.258041 0.000000
vt 0.691156 0.570036
vt 0.691156 0.000000
vt 0.852364 0.518707
vt 0.516084 0.000000
vt 0.852364 0.389686
vt 0.651910 0.570036
vt 0.387063 0.000000
vt 0.651910 0.000000
vt 0.387063 0.569996
vt 0.891607 0.518707
vt 0.258041 0.569996
vt 0.691156 0.000000
vt 0.930850 0.518707
vt 0.730402 0.570036
vt 0.129021 0.569996
vt 0.930850 0.389686
vt 0.691156 0.570036
vt 0.516084 0.569996
vt 0.891607 0.389686
vt 0.730402 0.570036
vt 1.000000 0.129021
vt 0.258042 0.000000
vt 1.000000 0.000000
vt 0.387063 0.000000
vt 0.769647 0.000000
vt 0.769647 0.570036
vt 0.960757 0.129021
vt 0.129021 0.000000
vt 0.960757 0.000000
vt 0.808893 0.000000
vt 0.000000 0.000000
vt 0.808893 0.570036
vt 0.000000 0.569996
vt 0.930850 0.518707
vt 0.387063 0.569996
vt 0.769647 0.570036
vt 0.970093 0.518707
vt 0.730402 0.000000
vt 0.258042 0.569996
vt 0.970093 0.389686
vt 0.769647 0.000000
vt 0.129021 0.569996
vt 0.930850 0.389686
vt 0.724173 0.764879
vt 0.469702 0.995800
vt 0.397442 0.959670
vt 0.469702 0.959670
vt 0.361311 0.959670
vt 0.832565 0.764879
vt 0.760303 0.764879
vt 0.433573 0.995800
vt 0.036131 0.959670
vt 0.433573 0.959670
vt 0.796434 0.764879
vt 0.072262 0.959670
vt 0.796434 0.570036
vt 0.072262 0.764840
vt 0.516083 0.982994
vt 0.361311 0.764840
vt 0.832565 0.570036
vt 0.552212 0.982994
vt 0.724173 0.570036
vt 0.397442 0.764840
vt 0.552212 0.946863
vt 0.760303 0.570036
vt 0.036131 0.764840
vt 0.516083 0.946863
vt 0.397442 0.764840
vt 0.724167 0.995840
vt 0.588346 0.946864
vt 0.724167 0.959709
vt 0.552215 0.946864
vt 0.724173 0.764879
vt 0.433573 0.764840
vt 0.688038 0.995840
vt 0.072262 0.959670
vt 0.688038 0.959709
vt 0.688042 0.764879
vt 0.108393 0.959670
vt 0.688042 0.570036
vt 0.108393 0.764840
vt 0.888493 0.554838
vt 0.552215 0.752034
vt 0.724173 0.570036
vt 0.924622 0.554838
vt 0.397442 0.569997
vt 0.588346 0.752034
vt 0.924622 0.518707
vt 0.433573 0.569997
vt 0.072262 0.764840
vt 0.888493 0.518707
vt 0.852364 0.389687
vt 0.868694 0.995840
vt 0.977090 0.764866
vt 0.868694 0.959709
vt 0.940959 0.764866
vt 0.505835 0.764840
vt 0.888494 0.389687
vt 0.832565 0.995840
vt 0.904828 0.764866
vt 0.832565 0.959709
vt 0.469704 0.764840
vt 0.940959 0.764866
vt 0.469704 0.569997
vt 0.940959 0.570036
vt 0.724167 0.995840
vt 0.940959 0.570036
vt 0.505835 0.569997
vt 0.760296 0.995840
vt 0.852364 0.194843
vt 0.977090 0.570036
vt 0.760296 0.959709
vt 0.888494 0.194843
vt 0.904828 0.570036
vt 0.724167 0.959709
vt 0.760303 0.764879
vt 0.433571 0.995800
vt 0.724172 0.959709
vt 0.433571 0.959670
vt 0.688041 0.959709
vt 0.924625 0.389687
vt 0.796434 0.764879
vt 0.397442 0.995800
vt 0.924626 0.194830
vt 0.397442 0.959670
vt 0.888494 0.389687
vt 0.960757 0.194830
vt 0.888494 0.194843
vt 0.960757 0.000000
vt 0.852364 0.554838
vt 0.688041 0.764879
vt 0.924625 0.194843
vt 0.888493 0.554838
vt 0.760303 0.570036
vt 0.724172 0.764879
vt 0.888493 0.518707
vt 0.796434 0.570036
vt 0.924626 0.000000
vt 0.852364 0.518707
vt 0.868696 0.764879
vt 0.940956 0.995826
vt 0.832565 0.959709
vt 0.940956 0.959695
vt 0.796434 0.959709
vt 0.888494 0.194843
vt 0.904827 0.764879
vt 0.904827 0.995826
vt 0.724173 0.959709
vt 0.904827 0.959695
vt 0.852364 0.194843
vt 0.760303 0.959709
vt 0.852364 0.000000
vt 0.760303 0.764879
vt 0.924622 0.554838
vt 0.796434 0.764879
vt 0.888494 0.000000
vt 0.960751 0.554838
vt 0.868696 0.570036
vt 0.832565 0.764879
vt 0.960751 0.518707
vt 0.904827 0.570036
vt 0.724173 0.764879
vt 0.924622 0.518707
vt 0.832565 0.764879
vt 0.832563 0.995840
vt 0.505836 0.959670
vt 0.832563 0.959709
vt 0.469705 0.959670
vt 0.924625 0.194843
vt 0.868696 0.764879
vt 0.796434 0.995840
vt 0.397442 0.959670
vt 0.796434 0.959709
vt 0.888494 0.194843
vt 0.433573 0.959670
vt 0.888494 0.000000
vt 0.433573 0.764840
vt 0.760303 0.995840
vt 0.469705 0.764840
vt 0.924625 0.000000
vt 0.796432 0.995840
vt 0.832565 0.570036
vt 0.505836 0.764840
vt 0.796432 0.959709
vt 0.868696 0.570036
vt 0.397442 0.764840
vt 0.760303 0.959709
vt 0.433573 0.764840
vt 0.588344 0.982995
vt 0.289049 0.959670
vt 0.588344 0.946864
vt 0.252918 0.959670
vt 0.688041 0.764879
vt 0.469704 0.764840
vt 0.552215 0.982995
vt 0.180655 0.959670
vt 0.552215 0.946864
vt 0.651910 0.764879
vt 0.216786 0.959670
vt 0.651910 0.570036
vt 0.216786 0.764840
vt 0.144522 0.995800
vt 0.252918 0.764840
vt 0.688041 0.570036
vt 0.180651 0.995800
vt 0.433573 0.569997
vt 0.289049 0.764840
vt 0.180651 0.959669
vt 0.469704 0.569997
vt 0.180655 0.764840
vt 0.144522 0.959669
vt 0.036131 0.764840
vt 0.252908 0.995800
vt 0.977090 0.959696
vt 0.252908 0.959670
vt 0.940959 0.959696
vt 0.588346 0.752034
vt 0.072262 0.764840
vt 0.216779 0.995800
vt 0.588346 0.946863
vt 0.216779 0.959670
vt 0.552215 0.752034
vt 0.624476 0.946863
vt 0.552215 0.557191
vt 0.624476 0.752033
vt 0.000000 0.995800
vt 0.940959 0.764866
vt 0.588346 0.557191
vt 0.036129 0.995800
vt 0.036131 0.569997
vt 0.977090 0.764866
vt 0.036129 0.959669
vt 0.072262 0.569997
vt 0.588346 0.752033
vt 0.000000 0.959669
vt 0.289049 0.764840
vt 0.624475 0.982995
vt 0.868697 0.959709
vt 0.624475 0.946864
vt 0.832566 0.959709
vt 0.180655 0.764840
vt 0.325180 0.764840
vt 0.588346 0.982995
vt 0.108394 0.959670
vt 0.588346 0.946864
vt 0.144525 0.764840
vt 0.144525 0.959670
vt 0.144525 0.569997
vt 0.144525 0.764840
vt 0.036131 0.995800
vt 0.832566 0.764879
vt 0.180655 0.569997
vt 0.072260 0.995800
vt 0.289049 0.569997
vt 0.868697 0.764879
vt 0.072260 0.959669
vt 0.325180 0.569997
vt 0.108394 0.764840
vt 0.036131 0.959669
vt 0.108394 0.764840
vt 0.108391 0.995800
vt 0.036131 0.959670
vt 0.108391 0.959670
vt 0.000000 0.959670
vt 0.361311 0.764840
vt 0.144525 0.764840
vt 0.072262 0.995800
vt 0.516084 0.946864
vt 0.072262 0.959670
vt 0.325180 0.764840
vt 0.552215 0.946864
vt 0.325180 0.569997
vt 0.552215 0.752034
vt 0.108394 0.995800
vt 0.000000 0.764840
vt 0.361311 0.569997
vt 0.144523 0.995800
vt 0.108394 0.569997
vt 0.036131 0.764840
vt 0.144523 0.959669
vt 0.144525 0.569997
vt 0.516084 0.752034
vt 0.108394 0.959669
vt 0.072262 0.764840
vt 0.977087 0.995826
vt 0.180655 0.959670
vt 0.977087 0.959695
vt 0.144525 0.959670
vt 0.252918 0.764840
vt 0.108393 0.764840
vt 0.940959 0.995826
vt 0.216786 0.959670
vt 0.940959 0.959695
vt 0.216787 0.764840
vt 0.252917 0.959670
vt 0.216787 0.569997
vt 0.252917 0.764840
vt 0.651910 0.995840
vt 0.144525 0.764840
vt 0.252918 0.569997
vt 0.688039 0.995840
vt 0.072262 0.569997
vt 0.180655 0.764840
vt 0.688039 0.959709
vt 0.108393 0.569997
vt 0.216786 0.764840
vt 0.651910 0.959709
vt 0.000000 0.764840
vt 0.289036 0.995800
vt 0.325180 0.959670
vt 0.289036 0.959670
vt 0.552215 0.752034
vt 0.036131 0.764840
vt 0.252908 0.995800
vt 0.325180 0.959670
vt 0.252908 0.959670
vt 0.516084 0.752034
vt 0.361311 0.959670
vt 0.516084 0.557191
vt 0.361311 0.764840
vt 0.180651 0.995800
vt 0.289049 0.764840
vt 0.552215 0.557191
vt 0.216779 0.995800
vt 0.000000 0.569997
vt 0.325180 0.764840
vt 0.216779 0.959669
vt 0.036131 0.569997
vt 0.325180 0.764840
vt 0.180651 0.959669
vt 0.361311 0.764840
vt 0.361294 0.995800
vt 0.960757 0.389673
vt 0.361294 0.959670
vt 0.924626 0.389673
vt 0.624477 0.752034
vt 0.397442 0.764840
vt 0.325165 0.995800
vt 0.433574 0.959670
vt 0.325165 0.959670
vt 0.588346 0.752034
vt 0.469705 0.959670
vt 0.588346 0.557191
vt 0.469705 0.764840
vt 0.469704 0.995800
vt 0.924626 0.194843
vt 0.624477 0.557191
vt 0.505833 0.995800
vt 0.361311 0.569997
vt 0.960757 0.194843
vt 0.505833 0.959669
vt 0.397442 0.569997
vt 0.433574 0.764840
vt 0.469704 0.959669
vt 0.180655 0.764840
vt 0.325165 0.995800
vt 0.940958 0.959696
vt 0.325165 0.959670
vt 0.904828 0.959696
vt 0.289049 0.764840
vt 0.216787 0.764840
vt 0.289036 0.995800
vt 0.651910 0.959709
vt 0.289036 0.959670
vt 0.252918 0.764840
vt 0.688041 0.959709
vt 0.252918 0.569997
vt 0.688041 0.764879
vt 0.361294 0.995800
vt 0.904828 0.764866
vt 0.289049 0.569997
vt 0.397422 0.995800
vt 0.180655 0.569997
vt 0.940958 0.764866
vt 0.397422 0.959669
vt 0.216787 0.569997
vt 0.651910 0.764879
vt 0.361294 0.959669
vt 0.796434 0.764879
vt 0.978821 0.264847
vt 0.624477 0.557191
vt 0.796434 0.959709
vt 0.624477 0.752034
vt 0.978821 0.337109
vt 0.760303 0.959709
vt 0.978821 0.300978
vt 0.642544 0.946877
vt 0.760303 0.764879
vt 0.978821 0.300978
vt 0.642544 0.752033
vt 0.960756 0.264847
vt 0.642544 0.557191
vt 0.868696 0.764879
vt 0.642544 0.752034
vt 0.960756 0.337109
vt 0.868696 0.959709
vt 0.960756 0.300978
vt 0.624477 0.946877
vt 0.904827 0.959709
vt 0.960756 0.300978
vt 0.624477 0.752033
vt 0.904827 0.764879
s 1
usemtl P_Valla_Metal
f 4/10/1 6/16/1 7/20/1 2/4/1
f 5/13/2 3/7/2 1/1/2 8/21/2
f 1/2/3 2/5/3 7/19/3 8/22/3
f 3/8/4 4/11/4 2/6/4 1/3/4
f 5/14/5 6/17/5 4/12/5 3/9/5
f 8/23/6 7/20/6 6/18/6 5/15/6
usemtl PValla_Madera1
f 16/45/5 11/30/5 9/24/5 15/42/5
f 9/25/7 11/31/7 12/33/7 10/27/7
f 15/43/8 9/26/8 10/28/8 14/39/8
f 14/40/3 10/29/3 12/34/3 13/36/3
f 13/37/9 12/35/9 11/32/9 16/46/9
f 16/47/10 15/44/10 14/41/10 13/38/10
f 24/69/5 19/54/5 17/48/5 23/66/5
f 17/49/4 19/55/4 20/57/4 18/51/4
f 23/67/2 17/50/2 18/52/2 22/63/2
f 22/64/3 18/53/3 20/58/3 21/60/3
f 21/61/1 20/59/1 19/56/1 24/70/1
f 24/71/6 23/68/6 22/65/6 21/62/6
f 32/93/5 27/78/5 25/72/5 31/90/5
f 25/73/4 27/79/4 28/81/4 26/75/4
f 31/91/2 25/74/2 26/76/2 30/87/2
f 30/88/3 26/77/3 28/82/3 29/84/3
f 29/85/1 28/83/1 27/80/1 32/94/1
f 32/95/6 31/92/6 30/89/6 29/86/6
f 40/117/5 35/102/5 33/96/5 39/114/5
f 33/97/1 35/103/1 36/105/1 34/99/1
f 39/115/4 33/98/4 34/100/4 38/111/4
f 38/112/3 34/101/3 36/106/3 37/108/3
f 37/109/6 36/107/6 35/104/6 40/118/6
f 40/119/2 39/116/2 38/113/2 37/110/2
f 48/141/5 43/126/5 41/120/5 47/138/5
f 41/121/1 43/127/1 44/129/1 42/123/1
f 47/139/4 41/122/4 42/124/4 46/135/4
f 46/136/3 42/125/3 44/130/3 45/132/3
f 45/133/6 44/131/6 43/128/6 48/142/6
f 48/143/2 47/140/2 46/137/2 45/134/2
f 56/165/5 51/150/5 49/144/5 55/162/5
f 49/145/1 51/151/1 52/153/1 50/147/1
f 55/163/4 49/146/4 50/148/4 54/159/4
f 54/160/3 50/149/3 52/154/3 53/156/3
f 53/157/6 52/155/6 51/152/6 56/166/6
f 56/167/2 55/164/2 54/161/2 53/158/2
f 64/189/5 59/174/5 57/168/5 63/186/5
f 57/169/1 59/175/1 60/177/1 58/171/1
f 63/187/4 57/170/4 58/172/4 62/183/4
f 62/184/3 58/173/3 60/178/3 61/180/3
f 61/181/6 60/179/6 59/176/6 64/190/6
f 64/191/2 63/188/2 62/185/2 61/182/2
f 72/213/5 67/198/5 65/192/5 71/210/5
f 65/193/1 67/199/1 68/201/1 66/195/1
f 71/211/4 65/194/4 66/196/4 70/207/4
f 70/208/3 66/197/3 68/202/3 69/204/3
f 69/205/6 68/203/6 67/200/6 72/214/6
f 72/215/2 71/212/2 70/209/2 69/206/2
f 80/237/5 75/222/5 73/216/5 79/234/5
f 73/217/1 75/223/1 76/225/1 74/219/1
f 79/235/4 73/218/4 74/220/4 78/231/4
f 78/232/3 74/221/3 76/226/3 77/228/3
f 77/229/6 76/227/6 75/224/6 80/238/6
f 80/239/2 79/236/2 78/233/2 77/230/2
f 88/261/5 83/246/5 81/240/5 87/258/5
f 81/241/1 83/247/1 84/249/1 82/243/1
f 87/259/4 81/242/4 82/244/4 86/255/4
f 86/256/3 82/245/3 84/250/3 85/252/3
f 85/253/6 84/251/6 83/248/6 88/262/6
f 88/263/2 87/260/2 86/257/2 85/254/2
f 96/285/5 91/270/5 89/264/5 95/282/5
f 89/265/1 91/271/1 92/273/1 90/267/1
f 95/283/4 89/266/4 90/268/4 94/279/4
f 94/280/3 90/269/3 92/274/3 93/276/3
f 93/277/6 92/275/6 91/272/6 96/286/6
f 96/287/2 95/284/2 94/281/2 93/278/2
f 104/309/5 99/294/5 97/288/5 103/306/5
f 97/289/1 99/295/1 100/297/1 98/291/1
f 103/307/4 97/290/4 98/292/4 102/303/4
f 102/304/3 98/293/3 100/298/3 101/300/3
f 101/301/6 100/299/6 99/296/6 104/310/6
f 104/311/2 103/308/2 102/305/2 101/302/2
f 112/333/5 107/318/5 105/312/5 111/330/5
f 105/313/1 107/319/1 108/321/1 106/315/1
f 111/331/4 105/314/4 106/316/4 110/327/4
f 110/328/3 106/317/3 108/322/3 109/324/3
f 109/325/6 108/323/6 107/320/6 112/334/6
f 112/335/2 111/332/2 110/329/2 109/326/2
f 120/357/5 115/342/5 113/336/5 119/354/5
f 113/337/1 115/343/1 116/345/1 114/339/1
f 119/355/4 113/338/4 114/340/4 118/351/4
f 118/352/3 114/341/3 116/346/3 117/348/3
f 117/349/6 116/347/6 115/344/6 120/358/6
f 120/359/2 119/356/2 118/353/2 117/350/2
f 128/380/5 123/365/5 121/360/5 127/377/5
f 121/361/1 123/366/1 124/368/1 122/363/1
f 127/378/4 121/362/4 122/363/4 126/374/4
f 126/375/3 122/364/3 124/369/3 125/371/3
f 125/372/6 124/370/6 123/367/6 128/381/6
f 128/382/2 127/379/2 126/376/2 125/373/2
f 136/404/5 131/389/5 129/383/5 135/401/5
f 129/384/1 131/390/1 132/392/1 130/386/1
f 135/402/4 129/385/4 130/387/4 134/398/4
f 134/399/3 130/388/3 132/393/3 133/395/3
f 133/396/6 132/394/6 131/391/6 136/405/6
f 136/406/2 135/403/2 134/400/2 133/397/2
f 144/428/5 139/413/5 137/407/5 143/425/5
f 137/408/1 139/414/1 140/416/1 138/410/1
f 143/426/4 137/409/4 138/411/4 142/422/4
f 142/423/3 138/412/3 140/417/3 141/419/3
f 141/420/6 140/418/6 139/415/6 144/429/6
f 144/430/2 143/427/2 142/424/2 141/421/2
f 145/431/4 146/434/4 147/437/4 148/440/4
f 149/443/2 145/432/2 148/441/2 152/452/2
f 149/444/5 150/446/5 146/435/5 145/433/5
f 146/436/1 150/447/1 151/449/1 147/438/1
f 148/442/3 147/439/3 151/450/3 152/453/3
f 152/454/6 151/451/6 150/448/6 149/445/6
