# Blender 3.1.0
# www.blender.org
mtllib Valla2_Coli.005.mtl
o Valla2_Coli.005
v -33.971443 -1.000000 0.389251
v -33.971443 1.000000 0.389251
v -33.973869 -1.000000 -0.294742
v -33.973869 1.000000 -0.294742
v 13.317198 -1.000000 0.294742
v 13.317198 1.000000 0.294742
v 13.314770 -1.000000 -0.389251
v 13.314770 1.000000 -0.389251
vn -13.3160 -0.0000 0.0473
vn 0.8010 -0.0000 -0.3442
vn 13.3160 -0.0000 -0.0473
vn -0.8010 -0.0000 0.3442
vn -0.0000 -1.0000 -0.0000
vn -0.0000 1.0000 -0.0000
vt 0.375000 0.000000
vt 0.375000 1.000000
vt 0.125000 0.750000
vt 0.625000 0.000000
vt 0.625000 1.000000
vt 0.875000 0.750000
vt 0.375000 0.250000
vt 0.125000 0.500000
vt 0.625000 0.250000
vt 0.875000 0.500000
vt 0.375000 0.750000
vt 0.625000 0.750000
vt 0.375000 0.500000
vt 0.625000 0.500000
s 0
f 1/1/1 2/4/1 4/9/1 3/7/1
f 3/7/2 4/9/2 8/14/2 7/13/2
f 7/13/3 8/14/3 6/12/3 5/11/3
f 5/11/4 6/12/4 2/5/4 1/2/4
f 3/8/5 7/13/5 5/11/5 1/3/5
f 8/14/6 4/10/6 2/6/6 6/12/6
