# Blender v3.1.2 OBJ File: ''
# www.blender.org
mtllib Cuadro.mtl
o Cuadro_Marco_Plane
v 0.094144 0.501386 -0.609631
v 0.094144 0.501720 0.609842
v 0.094144 0.458108 0.566230
v 0.094144 0.457737 -0.565982
v -0.100425 -0.555730 -0.663853
v 0.094144 -0.555730 -0.663853
v 0.094144 -0.588370 -0.696493
v -0.100425 -0.588370 -0.696493
v 0.094144 0.555609 -0.663854
v 0.094144 0.588233 -0.696478
v -0.100425 0.501386 -0.609631
v -0.100425 -0.501480 -0.609604
v -0.100425 -0.457810 -0.565933
v -0.100425 0.457737 -0.565982
v -0.100425 0.588233 -0.696478
v 0.094144 -0.457810 -0.565933
v -0.100425 0.555896 0.664017
v 0.094144 0.555896 0.664017
v 0.094144 0.588492 0.696614
v -0.100425 0.588492 0.696614
v -0.100425 0.555609 -0.663854
v -0.100425 0.458108 0.566230
v -0.100425 0.513082 -0.621327
v -0.100425 0.513405 0.621526
v -0.100425 0.523301 0.631423
v -0.100425 0.522985 -0.631230
v 0.094144 0.513405 0.621526
v 0.094144 0.523301 0.631423
v -0.091467 0.539297 -0.647542
v -0.091467 -0.539409 -0.647532
v -0.100425 -0.523089 -0.631212
v 0.094144 0.513082 -0.621327
v 0.094144 -0.513181 -0.621304
v 0.094144 -0.523089 -0.631212
v 0.094144 0.522985 -0.631230
v -0.100425 -0.513181 -0.621304
v 0.103102 0.539599 0.647720
v 0.107779 0.539599 0.647720
v 0.098820 0.555896 0.664017
v -0.091467 0.539599 0.647720
v 0.098820 0.555609 -0.663854
v 0.103102 -0.539409 -0.647532
v 0.107779 0.539297 -0.647542
v 0.098820 0.523301 0.631423
v 0.098820 0.522985 -0.631230
v 0.107779 -0.539409 -0.647532
v 0.098820 -0.555730 -0.663853
v 0.098820 -0.523089 -0.631212
v 0.094144 -0.501480 -0.609604
v 0.090328 0.513405 0.621526
v 0.090328 0.513082 -0.621327
v -0.100425 0.501720 0.609842
v 0.090328 -0.501480 -0.609604
v 0.090328 -0.513181 -0.621304
v 0.090328 0.501386 -0.609631
v 0.090328 0.501720 0.609842
v 0.094144 -0.501510 0.609507
v 0.094144 -0.457861 0.565858
v 0.094144 -0.555733 0.663730
v 0.094144 -0.588357 0.696354
v -0.100425 -0.501510 0.609507
v -0.100425 -0.457861 0.565858
v -0.100425 -0.588357 0.696354
v -0.100425 -0.555733 0.663730
v -0.100425 -0.513204 0.621203
v -0.100425 -0.523109 0.631106
v -0.091467 -0.539421 0.647418
v 0.094144 -0.513204 0.621203
v 0.094144 -0.523109 0.631106
v 0.098820 -0.555733 0.663730
v 0.107779 -0.539421 0.647418
v 0.098820 -0.523109 0.631106
v 0.090328 -0.513204 0.621203
v 0.090328 -0.501510 0.609507
vt 0.821815 0.075599
vt 0.822115 0.424405
vt 0.782906 0.411931
vt 0.782572 0.088084
vt 0.273040 0.047755
vt 0.447968 0.047755
vt 0.447968 0.038419
vt 0.273040 0.038419
vt 0.870570 0.060076
vt -0.128580 0.060076
vt -0.157925 0.050740
vt 0.899900 0.050745
vt 0.821818 0.075592
vt -0.079810 0.075600
vt -0.040548 0.088091
vt 0.782575 0.088077
vt 0.443067 0.257342
vt 0.268139 0.257342
vt 0.278736 0.380867
vt 0.278736 0.118993
vt 0.453664 0.118993
vt 0.453664 0.380867
vt 0.536815 0.447866
vt 0.711742 0.447866
vt 0.711742 0.457189
vt 0.536815 0.457189
vt 0.870567 0.060083
vt 0.870825 0.439894
vt 0.900130 0.449218
vt 0.899897 0.050752
vt 0.536815 0.058723
vt 0.711742 0.058723
vt 0.453664 0.088122
vt 0.453664 0.411969
vt 0.278736 0.411969
vt 0.278736 0.088122
vt 0.832333 0.072247
vt 0.832623 0.427741
vt 0.841520 0.430572
vt 0.841236 0.069414
vt 0.266956 0.517928
vt 0.441884 0.517928
vt 0.441884 0.520759
vt 0.266956 0.520759
vt 0.855901 0.064749
vt -0.113910 0.064752
vt -0.099237 0.069420
vt 0.832332 0.072248
vt -0.090330 0.072255
vt -0.099238 0.069421
vt 0.841236 0.069416
vt 0.273040 0.059926
vt 0.447968 0.059926
vt 0.447968 0.057092
vt 0.273040 0.057092
vt 0.719796 0.443204
vt 0.724000 0.443204
vt 0.715946 0.447866
vt 0.900133 0.449211
vt 0.870828 0.439888
vt -0.157928 0.050747
vt -0.128583 0.060083
vt 0.856173 0.435233
vt 0.544868 0.443204
vt 0.715946 0.068054
vt 0.711742 0.068054
vt 0.281094 0.052424
vt 0.456021 0.052424
vt 0.855902 0.064747
vt 0.856174 0.435231
vt 0.841521 0.430570
vt 0.841237 0.069413
vt -0.113909 0.064750
vt -0.128582 0.060081
vt 0.870568 0.060081
vt 0.452172 0.057092
vt 0.460226 0.052424
vt 0.443067 0.248011
vt 0.447271 0.248011
vt 0.452172 0.047755
vt 0.441884 0.159602
vt 0.446088 0.159602
vt 0.446088 0.520759
vt 0.447271 0.238679
vt 0.443067 0.238679
vt -0.099236 0.069418
vt 0.870826 0.439893
vt 0.266159 0.552633
vt 0.441086 0.552633
vt 0.449140 0.557295
vt 0.274212 0.557295
vt 0.445290 0.552633
vt 0.453345 0.557295
vt 0.273040 0.063273
vt 0.447968 0.063273
vt 0.438453 0.517928
vt 0.438453 0.162435
vt 0.441884 0.162435
vt 0.270094 0.501077
vt 0.445021 0.501077
vt 0.445021 0.504420
vt 0.270094 0.504420
vt 0.822118 0.424399
vt -0.090330 0.072254
vt 0.841520 0.430573
vt 0.832623 0.427742
vt 0.782908 0.411924
vt 0.270094 0.488603
vt 0.445021 0.488603
vt -0.040551 0.088098
vt -0.079812 0.075607
vt 0.272643 -0.004484
vt 0.447570 -0.004484
vt 0.452471 0.100646
vt 0.277544 0.100646
vt 0.444537 0.063273
vt 0.444537 0.059926
vt 0.821816 0.075595
vt -0.079811 0.075603
vt -0.090330 0.072256
vt 0.832332 0.072250
vt 0.832622 0.427743
vt 0.822117 0.424401
vt 0.439636 0.232502
vt 0.443067 0.232502
vt 0.443067 0.235847
vt 0.439636 0.235847
vt 0.441590 0.501077
vt 0.441590 0.504420
vt 0.436379 0.075629
vt 0.432948 0.075629
vt 0.432948 0.424435
vt 0.436379 0.424435
vt -0.079840 0.424310
vt -0.040597 0.411825
vt -0.128583 0.439806
vt -0.157914 0.449137
vt -0.079837 0.424303
vt -0.040594 0.411818
vt 0.453664 0.449105
vt 0.278736 0.449105
vt 0.278736 0.050708
vt 0.453664 0.050708
vt 0.272643 0.319242
vt 0.447570 0.319242
vt -0.128586 0.439812
vt -0.157917 0.449144
vt 0.278736 0.081697
vt 0.453664 0.081697
vt 0.453664 0.418312
vt 0.278736 0.418312
vt 0.445021 0.226608
vt 0.270094 0.226608
vt -0.090350 0.427648
vt -0.099255 0.430481
vt -0.113921 0.435147
vt -0.090351 0.427650
vt -0.099256 0.430482
vt 0.435609 0.408995
vt 0.435609 0.091035
vt 0.439813 0.091035
vt 0.439813 0.408995
vt -0.113920 0.435145
vt -0.099254 0.430479
vt -0.128585 0.439810
vt 0.435609 0.439777
vt 0.435609 0.060048
vt 0.439813 0.060048
vt 0.439813 0.439777
vt 0.441086 0.253328
vt 0.445290 0.253328
vt 0.435609 0.069388
vt 0.435609 0.430449
vt 0.439813 0.430449
vt 0.439813 0.069388
vt 0.445021 0.210778
vt 0.441590 0.210778
vt -0.079838 0.424305
vt -0.090351 0.427651
vt 0.447570 0.331727
vt 0.444140 0.331727
vt 0.449041 0.100646
vt 0.436379 0.427618
vt 0.436379 0.072223
vt 0.432948 0.072223
vt 0.432948 0.427618
vt 0.445021 0.214123
vt 0.441590 0.214123
vn 1.0000 -0.0000 0.0000
vn 0.0000 0.7071 -0.7071
vn -1.0000 -0.0000 0.0000
vn 0.0000 0.0000 -1.0000
vn 0.0000 0.0001 1.0000
vn 0.0000 -0.7071 0.7071
vn 0.0000 1.0000 -0.0002
vn 0.0000 -1.0000 0.0003
vn -0.8766 -0.0000 -0.4813
vn -0.8764 -0.4815 0.0001
vn 0.8764 -0.4816 0.0001
vn 0.8766 -0.0000 -0.4813
vn 0.0000 0.0000 1.0000
vn 0.8766 0.0000 0.4813
vn 0.8764 0.4816 -0.0001
vn -0.8764 0.4815 -0.0001
vn -0.8766 0.0000 0.4813
vn 0.0000 1.0000 -0.0003
vn 0.0000 -1.0000 0.0000
vn 0.0000 1.0000 0.0000
vn 0.0000 -0.0002 1.0000
vn 0.0000 0.0004 -1.0000
vn -0.8766 -0.4813 -0.0000
vn -0.8764 0.0001 -0.4815
vn 0.0000 -0.0003 1.0000
vn 0.8764 0.0001 -0.4816
vn 0.8766 -0.4813 -0.0000
vn 0.0000 0.0003 -1.0000
vn 0.8766 0.4813 0.0000
vn 0.8764 -0.0001 0.4816
vn -0.8764 -0.0001 0.4815
vn -0.8766 0.4813 0.0000
usemtl Cuadro
s 1
f 1/1/1 2/2/1 3/3/1 4/4/1
f 5/5/2 6/6/2 7/7/2 8/8/2
f 9/9/1 6/10/1 7/11/1 10/12/1
f 11/13/3 12/14/3 13/15/3 14/16/3
f 10/17/4 7/7/4 8/8/4 15/18/4
f 14/19/5 13/20/5 16/21/5 4/22/5
f 17/23/6 18/24/6 19/25/6 20/26/6
f 21/27/3 17/28/3 20/29/3 15/30/3
f 15/31/7 20/26/7 19/25/7 10/32/7
f 4/33/8 3/34/8 22/35/8 14/36/8
f 23/37/3 24/38/3 25/39/3 26/40/3
f 24/41/6 27/42/6 28/43/6 25/44/6
f 29/45/9 30/46/9 31/47/9 26/40/9
f 32/48/1 33/49/1 34/50/1 35/51/1
f 36/52/2 33/53/2 34/54/2 31/55/2
f 37/56/6 38/57/6 39/58/6 18/24/6
f 10/12/1 19/59/1 18/60/1 9/9/1
f 15/30/3 8/61/3 5/62/3 21/27/3
f 29/45/10 40/63/10 17/28/10 21/27/10
f 40/64/6 37/56/6 18/24/6 17/23/6
f 18/24/7 39/58/7 41/65/7 9/66/7
f 30/67/2 42/68/2 6/6/2 5/5/2
f 43/69/11 38/70/11 44/71/11 45/72/11
f 43/69/12 46/73/12 47/74/12 41/75/12
f 42/68/2 34/54/2 48/76/2 46/77/2
f 9/78/4 41/79/4 47/80/4 6/6/4
f 35/81/8 45/82/8 44/83/8 28/43/8
f 34/54/13 48/76/13 45/84/13 35/85/13
f 6/6/2 42/68/2 46/77/2 47/80/2
f 45/72/14 48/86/14 46/73/14 43/69/14
f 41/75/15 39/87/15 38/70/15 43/69/15
f 31/55/2 34/54/2 42/68/2 30/67/2
f 25/88/6 28/89/6 37/90/6 40/91/6
f 26/40/16 25/39/16 40/63/16 29/45/16
f 28/89/6 44/92/6 38/93/6 37/90/6
f 21/27/17 5/62/17 30/46/17 29/45/17
f 12/94/2 49/95/2 33/53/2 36/52/2
f 27/42/8 50/96/8 51/97/8 32/98/8
f 52/99/6 2/100/6 27/101/6 24/102/6
f 11/13/3 52/103/3 24/38/3 23/37/3
f 26/40/3 31/47/3 36/104/3 23/37/3
f 35/51/1 28/105/1 27/106/1 32/48/1
f 14/16/3 22/107/3 52/103/3 11/13/3
f 22/108/6 3/109/6 2/100/6 52/99/6
f 4/4/1 16/110/1 49/111/1 1/1/1
f 13/112/2 16/113/2 49/114/2 12/115/2
f 23/37/3 36/104/3 12/14/3 11/13/3
f 33/53/6 49/95/6 53/116/6 54/117/6
f 55/118/1 53/119/1 54/120/1 51/121/1
f 51/121/1 50/122/1 56/123/1 55/118/1
f 49/95/4 53/116/4 55/124/4 1/125/4
f 32/126/13 51/127/13 54/117/13 33/53/13
f 2/100/2 56/128/2 50/129/2 27/101/2
f 1/130/18 55/131/18 56/132/18 2/133/18
f 57/134/1 58/135/1 3/3/1 2/2/1
f 59/136/1 60/137/1 7/11/1 6/10/1
f 61/138/3 62/139/3 13/15/3 12/14/3
f 60/140/19 63/141/19 8/142/19 7/143/19
f 62/144/20 58/145/20 16/113/20 13/112/20
f 64/146/3 63/147/3 20/29/3 17/28/3
f 63/148/21 60/149/21 19/150/21 20/151/21
f 58/152/22 62/153/22 22/108/22 3/109/22
f 65/154/3 66/155/3 25/39/3 24/38/3
f 67/156/23 66/155/23 31/47/23 30/46/23
f 68/157/1 69/158/1 34/50/1 33/49/1
f 60/137/1 59/136/1 18/60/1 19/59/1
f 63/147/3 64/146/3 5/62/3 8/61/3
f 67/156/24 64/146/24 17/28/24 40/63/24
f 18/159/25 59/160/25 70/161/25 39/162/25
f 71/163/26 72/164/26 44/71/26 38/70/26
f 71/163/27 70/165/27 47/74/27 46/73/27
f 59/166/19 6/167/19 47/168/19 70/169/19
f 69/170/28 28/89/28 44/92/28 72/171/28
f 34/172/20 69/173/20 72/174/20 48/175/20
f 72/164/29 71/163/29 46/73/29 48/86/29
f 70/165/30 71/163/30 38/70/30 39/87/30
f 66/155/31 67/156/31 40/63/31 25/39/31
f 64/146/32 67/156/32 30/46/32 5/62/32
f 27/101/28 68/176/28 73/177/28 50/129/28
f 61/138/3 65/154/3 24/38/3 52/103/3
f 66/155/3 65/154/3 36/104/3 31/47/3
f 69/158/1 68/157/1 27/106/1 28/105/1
f 62/139/3 61/138/3 52/103/3 22/107/3
f 58/135/1 57/134/1 49/111/1 16/110/1
f 65/154/3 61/138/3 12/14/3 36/104/3
f 74/178/1 73/179/1 54/120/1 53/119/1
f 73/179/1 74/178/1 56/123/1 50/122/1
f 49/114/19 57/180/19 74/181/19 53/182/19
f 68/183/20 33/184/20 54/185/20 73/186/20
f 57/187/25 2/100/25 56/128/25 74/188/25
o Cuadro_Cube.002
v 0.084482 -0.463020 -0.567205
v 0.084482 0.463020 -0.567205
v 0.084482 0.463020 0.567205
v 0.084482 -0.463020 0.567205
v -0.084482 0.463020 0.567205
v -0.084482 -0.463020 0.567205
v -0.084482 0.463020 -0.567205
v -0.084482 -0.463020 -0.567205
vt 0.999380 0.581584
vt 0.999380 0.998508
vt 0.253026 0.998508
vt 0.253026 0.581584
vt 0.589068 0.115616
vt 0.589068 0.262049
vt 0.411738 0.262049
vt 0.411738 0.115616
vt 0.844362 0.034018
vt 0.844362 0.280100
vt 0.225854 0.280100
vt 0.225854 0.034018
vt 0.766402 0.115616
vt 0.766402 0.262049
vt 0.589068 0.262049
vt 0.589068 0.115616
vt 0.234405 0.115616
vt 0.411738 0.294998
vt 0.234405 0.294998
vt 0.106195 0.296673
vt 0.283529 0.296673
vt 0.283529 0.476054
vt 0.106195 0.476054
vn 1.0000 -0.0000 -0.0000
vn 0.0000 0.0000 1.0000
vn -1.0000 0.0000 0.0000
vn -0.0000 -0.0000 -1.0000
vn 0.0000 -1.0000 0.0000
vn -0.0000 1.0000 -0.0000
usemtl Cuadro
s 1
f 75/189/33 76/190/33 77/191/33 78/192/33
f 78/193/34 77/194/34 79/195/34 80/196/34
f 80/197/35 79/198/35 81/199/35 82/200/35
f 82/201/36 81/202/36 76/203/36 75/204/36
f 78/205/37 80/196/37 82/206/37 75/207/37
f 79/208/38 77/209/38 76/210/38 81/211/38
