# Blender v3.1.2 OBJ File: 'lvl3.blend'
# www.blender.org
mtllib Fusibles_Solo.mtl
o Cube.033_Cube.001_Cube.033_Cube.004
v 0.008151 -0.073750 -0.019677
v 0.008151 0.073750 -0.019677
v 0.015061 0.073750 -0.015060
v 0.015061 -0.073750 -0.015060
v 0.019677 -0.073750 0.008150
v 0.015061 -0.073750 0.015060
v 0.017904 -0.073750 0.017906
v 0.023394 -0.073750 0.009690
v -0.008151 -0.073750 0.019678
v -0.008151 0.073750 0.019678
v -0.015061 0.073750 0.015060
v -0.015061 -0.073750 0.015060
v -0.021299 -0.073750 -0.000001
v -0.019677 -0.073750 -0.008150
v -0.023394 -0.073750 -0.009689
v -0.025320 -0.073750 -0.000001
v 0.019677 0.073750 -0.008150
v 0.019677 -0.073750 -0.008150
v 0.008151 0.073750 0.019678
v 0.015061 0.073750 0.015060
v 0.017904 0.073750 0.017906
v 0.009690 0.073750 0.023393
v -0.015061 0.073750 -0.015060
v -0.019677 0.073750 -0.008150
v -0.023394 0.073750 -0.009689
v -0.017904 0.073750 -0.017905
v 0.008151 -0.073750 0.019678
v 0.009690 -0.073750 0.023393
v -0.019677 0.073750 0.008150
v -0.019677 -0.073750 0.008150
v 0.000000 0.073750 -0.021297
v 0.000000 0.073750 -0.025321
v 0.009690 0.073750 -0.023394
v 0.021299 0.073750 -0.000001
v 0.021299 -0.073750 -0.000001
v -0.015061 -0.073750 -0.015060
v -0.017904 -0.073750 -0.017905
v 0.000000 0.073750 0.021298
v 0.000000 0.073750 0.025322
v 0.000000 -0.073750 -0.021297
v 0.009690 -0.073750 -0.023394
v 0.000000 -0.073750 -0.025321
v -0.021299 0.073750 -0.000001
v -0.008151 0.073750 -0.019677
v -0.009690 0.073750 -0.023394
v 0.019677 0.073750 0.008150
v 0.000000 -0.073750 0.021298
v 0.000000 -0.073750 0.025322
v 0.017904 0.073750 -0.017905
v -0.008151 -0.073750 -0.019677
v -0.009690 -0.073750 -0.023394
v -0.009690 0.073750 0.023393
v 0.017904 -0.073750 -0.017905
v -0.009690 -0.073750 0.023393
v 0.023394 0.073750 -0.009689
v -0.017904 0.073750 0.017906
v 0.023394 -0.073750 -0.009689
v -0.017904 -0.073750 0.017906
v 0.025321 0.073750 -0.000001
v -0.023394 0.073750 0.009690
v 0.025321 -0.073750 -0.000001
v -0.023394 -0.073750 0.009690
v 0.023394 0.073750 0.009690
v -0.025320 0.073750 -0.000001
v 0.000000 -0.106491 0.025322
v -0.009690 -0.106491 0.023393
v 0.000000 0.106491 -0.025321
v 0.009690 0.106491 -0.023394
v 0.000000 -0.106491 -0.025321
v 0.009690 -0.106491 -0.023394
v 0.017904 0.106491 -0.017905
v -0.017904 -0.106491 0.017906
v 0.023394 0.106491 -0.009689
v 0.017904 -0.106491 -0.017905
v 0.023394 -0.106491 -0.009689
v 0.025321 0.106491 -0.000001
v -0.023394 -0.106491 0.009690
v 0.023394 0.106491 0.009690
v 0.025321 -0.106491 -0.000001
v 0.017904 0.106491 0.017906
v -0.025320 -0.106491 -0.000001
v 0.009690 0.106491 0.023393
v 0.023394 -0.106491 0.009690
v 0.000000 0.106491 0.025322
v -0.023394 -0.106491 -0.009689
v -0.009690 0.106491 0.023393
v 0.017904 -0.106491 0.017906
v -0.017904 0.106491 0.017906
v -0.017904 -0.106491 -0.017905
v -0.023394 0.106491 0.009690
v 0.009690 -0.106491 0.023393
v -0.025320 0.106491 -0.000001
v -0.009690 -0.106491 -0.023394
v -0.023394 0.106491 -0.009689
v -0.017904 0.106491 -0.017905
v -0.009690 0.106491 -0.023394
vt 0.937500 0.666667
vt 0.937500 0.833333
vt 0.875000 0.833333
vt 0.875000 0.666667
vt 0.687500 0.666667
vt 0.625000 0.666667
vt 0.625000 0.666667
vt 0.687500 0.666667
vt 0.437500 0.666667
vt 0.437500 0.833333
vt 0.375000 0.833333
vt 0.375000 0.666667
vt 0.250000 0.666667
vt 0.187500 0.666667
vt 0.187500 0.666667
vt 0.250000 0.666667
vt 0.812500 0.833333
vt 0.812500 0.666667
vt 0.562500 0.833333
vt 0.625000 0.833333
vt 0.625000 0.833333
vt 0.562500 0.833333
vt 0.125000 0.833333
vt 0.187500 0.833333
vt 0.187500 0.833333
vt 0.125000 0.833333
vt 0.562500 0.666667
vt 0.562500 0.666667
vt 0.312500 0.833333
vt 0.312500 0.666667
vt 1.000000 0.833333
vt 1.000000 0.833333
vt 0.937500 0.833333
vt 0.750000 0.833333
vt 0.750000 0.666667
vt 0.125000 0.666667
vt 0.125000 0.666667
vt 0.500000 0.833333
vt 0.500000 0.833333
vt 1.000000 0.666667
vt 0.937500 0.666667
vt 1.000000 0.666667
vt 0.250000 0.833333
vt 0.062500 0.833333
vt 0.062500 0.833333
vt 0.687500 0.833333
vt 0.500000 0.666667
vt 0.500000 0.666667
vt 0.875000 0.833333
vt 0.062500 0.666667
vt 0.062500 0.666667
vt 0.437500 0.833333
vt 0.875000 0.666667
vt 0.000000 0.833333
vt 0.000000 0.833333
vt 0.437500 0.666667
vt 0.812500 0.833333
vt 0.000000 0.666667
vt 0.000000 0.666667
vt 0.375000 0.833333
vt 0.812500 0.666667
vt 0.375000 0.666667
vt 0.750000 0.833333
vt 0.312500 0.833333
vt 0.750000 0.666667
vt 0.312500 0.666667
vt 0.687500 0.833333
vt 0.250000 0.833333
vt 0.500000 0.500000
vt 0.437500 0.500000
vt 1.000000 1.000000
vt 0.937500 1.000000
vt 1.000000 0.500000
vt 0.937500 0.500000
vt 0.875000 1.000000
vt 0.375000 0.500000
vt 0.812500 1.000000
vt 0.875000 0.500000
vt 0.812500 0.500000
vt 0.750000 1.000000
vt 0.312500 0.500000
vt 0.687500 1.000000
vt 0.750000 0.500000
vt 0.625000 1.000000
vt 0.250000 0.500000
vt 0.562500 1.000000
vt 0.687500 0.500000
vt 0.500000 1.000000
vt 0.187500 0.500000
vt 0.437500 1.000000
vt 0.625000 0.500000
vt 0.375000 1.000000
vt 0.125000 0.500000
vt 0.312500 1.000000
vt 0.562500 0.500000
vt 0.250000 1.000000
vt 0.062500 0.500000
vt 0.187500 1.000000
vt 0.125000 1.000000
vt 0.841844 0.471731
vt 0.750000 0.490000
vt 0.658156 0.471731
vt 0.580294 0.419706
vt 0.528269 0.341844
vt 0.510000 0.250000
vt 0.528269 0.158156
vt 0.580294 0.080294
vt 0.658156 0.028269
vt 0.750000 0.010000
vt 0.841844 0.028269
vt 0.919706 0.080294
vt 0.971731 0.158156
vt 0.990000 0.250000
vt 0.971731 0.341844
vt 0.919706 0.419706
vt 0.000000 0.500000
vt 0.062500 1.000000
vt 0.000000 1.000000
vt 0.250000 0.490000
vt 0.341844 0.471731
vt 0.419706 0.419706
vt 0.471731 0.341844
vt 0.490000 0.250000
vt 0.471731 0.158156
vt 0.419706 0.080294
vt 0.341844 0.028269
vt 0.250000 0.010000
vt 0.158156 0.028269
vt 0.080294 0.080294
vt 0.028269 0.158156
vt 0.010000 0.250000
vt 0.028269 0.341844
vt 0.080294 0.419706
vt 0.158156 0.471731
vn 0.5556 0.0000 -0.8314
vn 0.0000 1.0000 0.0000
vn -0.5556 -0.0000 0.8314
vn 0.8316 0.0000 -0.5554
vn -0.0000 -1.0000 -0.0000
vn -0.8316 -0.0000 0.5554
vn 0.9808 0.0000 -0.1949
vn -0.9808 -0.0000 0.1952
vn 0.9808 -0.0000 0.1952
vn -0.9808 0.0000 -0.1952
vn 0.8316 -0.0000 0.5554
vn -0.8316 0.0000 -0.5554
vn 0.5556 -0.0000 0.8314
vn -0.5556 0.0000 -0.8314
vn 0.1954 -0.0000 0.9807
vn -0.1953 0.0000 -0.9808
vn -0.1954 -0.0000 0.9807
vn 0.1953 0.0000 -0.9808
vn -0.1949 -0.0000 0.9808
vn 0.1950 0.0000 -0.9808
vn -0.5555 -0.0000 0.8315
vn 0.8315 0.0000 -0.5555
vn 0.9808 0.0000 -0.1951
vn -0.8315 -0.0000 0.5555
vn 0.9808 -0.0000 0.1950
vn 0.8315 -0.0000 0.5555
vn -0.9808 -0.0000 0.1950
vn 0.5555 -0.0000 0.8315
vn 0.1952 -0.0000 0.9808
vn -0.9808 0.0000 -0.1951
vn -0.8315 0.0000 -0.5555
vn -0.1950 0.0000 -0.9808
usemtl Fusible.004
s 1
f 1/1/1 2/2/1 3/3/1 4/4/1
f 5/5/2 6/6/2 7/7/2 8/8/2
f 9/9/3 10/10/3 11/11/3 12/12/3
f 13/13/2 14/14/2 15/15/2 16/16/2
f 4/4/4 3/3/4 17/17/4 18/18/4
f 19/19/5 20/20/5 21/21/5 22/22/5
f 23/23/5 24/24/5 25/25/5 26/26/5
f 6/6/2 27/27/2 28/28/2 7/7/2
f 12/12/6 11/11/6 29/29/6 30/30/6
f 2/2/5 31/31/5 32/32/5 33/33/5
f 18/18/7 17/17/7 34/34/7 35/35/7
f 14/14/2 36/36/2 37/37/2 15/15/2
f 38/38/5 19/19/5 22/22/5 39/39/5
f 40/40/2 1/1/2 41/41/2 42/42/2
f 30/30/8 29/29/8 43/43/8 13/13/8
f 44/44/5 23/23/5 26/26/5 45/45/5
f 35/35/9 34/34/9 46/46/9 5/5/9
f 27/27/2 47/47/2 48/48/2 28/28/2
f 3/3/5 2/2/5 33/33/5 49/49/5
f 36/36/2 50/50/2 51/51/2 37/37/2
f 13/13/10 43/43/10 24/24/10 14/14/10
f 10/10/5 38/38/5 39/39/5 52/52/5
f 5/5/11 46/46/11 20/20/11 6/6/11
f 1/1/2 4/4/2 53/53/2 41/41/2
f 31/54/5 44/44/5 45/45/5 32/55/5
f 47/47/2 9/9/2 54/56/2 48/48/2
f 14/14/12 24/24/12 23/23/12 36/36/12
f 17/17/5 3/3/5 49/49/5 55/57/5
f 6/6/13 20/20/13 19/19/13 27/27/13
f 50/50/2 40/58/2 42/59/2 51/51/2
f 11/11/5 10/10/5 52/52/5 56/60/5
f 4/4/2 18/18/2 57/61/2 53/53/2
f 36/36/14 23/23/14 44/44/14 50/50/14
f 9/9/2 12/12/2 58/62/2 54/56/2
f 27/27/15 19/19/15 38/38/15 47/47/15
f 34/34/5 17/17/5 55/57/5 59/63/5
f 29/29/5 11/11/5 56/60/5 60/64/5
f 18/18/2 35/35/2 61/65/2 57/61/2
f 50/50/16 44/44/16 31/54/16 40/58/16
f 12/12/2 30/30/2 62/66/2 58/62/2
f 46/46/5 34/34/5 59/63/5 63/67/5
f 43/43/5 29/29/5 60/64/5 64/68/5
f 35/35/2 5/5/2 8/8/2 61/65/2
f 30/30/2 13/13/2 16/16/2 62/66/2
f 47/47/17 38/38/17 10/10/17 9/9/17
f 20/20/5 46/46/5 63/67/5 21/21/5
f 24/24/5 43/43/5 64/68/5 25/25/5
f 40/40/18 31/31/18 2/2/18 1/1/18
f 65/69/19 48/48/19 54/56/19 66/70/19
f 32/32/20 67/71/20 68/72/20 33/33/20
f 69/73/20 42/42/20 41/41/20 70/74/20
f 33/33/1 68/72/1 71/75/1 49/49/1
f 66/70/21 54/56/21 58/62/21 72/76/21
f 49/49/22 71/75/22 73/77/22 55/57/22
f 74/78/22 53/53/22 57/61/22 75/79/22
f 55/57/23 73/77/23 76/80/23 59/63/23
f 72/76/24 58/62/24 62/66/24 77/81/24
f 59/63/25 76/80/25 78/82/25 63/67/25
f 75/79/23 57/61/23 61/65/23 79/83/23
f 63/67/26 78/82/26 80/84/26 21/21/26
f 77/81/27 62/66/27 16/16/27 81/85/27
f 21/21/28 80/84/28 82/86/28 22/22/28
f 79/83/25 61/65/25 8/8/25 83/87/25
f 22/22/29 82/86/29 84/88/29 39/39/29
f 81/85/30 16/16/30 15/15/30 85/89/30
f 39/39/19 84/88/19 86/90/19 52/52/19
f 83/87/26 8/8/26 7/7/26 87/91/26
f 52/52/21 86/90/21 88/92/21 56/60/21
f 85/89/31 15/15/31 37/37/31 89/93/31
f 56/60/24 88/92/24 90/94/24 60/64/24
f 87/91/28 7/7/28 28/28/28 91/95/28
f 60/64/27 90/94/27 92/96/27 64/68/27
f 89/93/14 37/37/14 51/51/14 93/97/14
f 64/68/30 92/96/30 94/98/30 25/25/30
f 91/95/29 28/28/29 48/48/29 65/69/29
f 25/25/31 94/98/31 95/99/31 26/26/31
f 68/100/2 67/101/2 96/102/2 95/103/2 94/104/2 92/105/2 90/106/2 88/107/2 86/108/2 84/109/2 82/110/2 80/111/2 78/112/2 76/113/2 73/114/2 71/115/2
f 93/97/32 51/51/32 42/59/32 69/116/32
f 26/26/14 95/99/14 96/117/14 45/45/14
f 70/74/1 41/41/1 53/53/1 74/78/1
f 45/45/32 96/117/32 67/118/32 32/55/32
f 69/119/5 70/120/5 74/121/5 75/122/5 79/123/5 83/124/5 87/125/5 91/126/5 65/127/5 66/128/5 72/129/5 77/130/5 81/131/5 85/132/5 89/133/5 93/134/5
