# Blender v3.1.2 OBJ File: 'lvl3.blend'
# www.blender.org
mtllib Quemable_Casa.mtl
o Cube_Cube.002
v 0.804372 -0.022164 0.060740
v 0.804372 1.634231 0.060740
v -0.804375 1.634231 0.060740
v -0.804375 -0.022164 0.060740
v -0.804375 1.634231 -0.035268
v -0.804375 -0.022164 -0.035268
v 0.804372 1.634231 -0.035268
v 0.804372 -0.022164 -0.035268
v 0.804371 -1.079833 -0.073611
v 0.804372 -0.109419 -0.073611
v 0.804372 -0.102358 0.060740
v 0.804371 -1.079833 0.060740
v -0.804376 -1.079832 -0.073611
v -0.804375 -0.109419 -0.073611
v -0.804376 -1.079832 0.060740
v -0.804375 -0.102358 0.060740
v -0.804376 -1.143173 0.060740
v -0.804376 -1.143173 -0.073611
v 0.804371 -1.143174 -0.073611
v 0.804371 -1.143174 0.060740
v 0.804371 -1.143174 -0.107080
v 0.804371 -1.079833 -0.107080
v -0.804376 -1.143173 -0.107079
v -0.804376 -1.079832 -0.107079
v -0.804375 -0.102358 -0.100244
v 0.804372 -0.102358 -0.100244
v 0.804372 -0.022164 -0.100244
v -0.804375 -0.022164 -0.100244
v -0.804375 -0.067196 -0.118946
v -0.804375 -0.057326 -0.118946
v 0.804372 -0.057326 -0.118946
v 0.804372 -0.067196 -0.118946
v 0.804372 -0.092060 -0.113468
v 0.804372 -0.032463 -0.113468
v -0.804375 -0.092060 -0.113468
v -0.804375 -0.032463 -0.113468
v 0.804372 -0.022164 -0.060740
v 0.804372 1.634231 -0.060740
v -0.804375 1.634231 -0.060740
v -0.804375 -0.022164 -0.060740
v -0.804375 1.634231 0.035268
v -0.804375 -0.022164 0.035268
v 0.804372 1.634231 0.035268
v 0.804372 -0.022164 0.035268
v 0.804371 -1.079833 0.073611
v 0.804372 -0.109419 0.073611
v 0.804372 -0.102358 -0.060740
v 0.804371 -1.079833 -0.060740
v -0.804376 -1.079832 0.073611
v -0.804375 -0.109419 0.073611
v -0.804376 -1.079832 -0.060740
v -0.804375 -0.102358 -0.060740
v -0.804376 -1.143173 -0.060740
v -0.804376 -1.143173 0.073611
v 0.804371 -1.143174 0.073611
v 0.804371 -1.143174 -0.060740
v 0.804371 -1.143174 0.107079
v 0.804371 -1.079833 0.107079
v -0.804376 -1.143173 0.107080
v -0.804376 -1.079832 0.107080
v -0.804375 -0.102358 0.100244
v 0.804372 -0.102358 0.100244
v 0.804372 -0.022164 0.100244
v -0.804375 -0.022164 0.100244
v -0.804375 -0.067196 0.118946
v -0.804375 -0.057326 0.118946
v 0.804372 -0.057326 0.118946
v 0.804372 -0.067196 0.118946
v 0.804372 -0.092060 0.113468
v 0.804372 -0.032463 0.113468
v -0.804375 -0.092060 0.113468
v -0.804375 -0.032463 0.113468
vt 0.000000 0.478005
vt 0.000000 1.000000
vt 1.000000 1.000000
vt 1.000000 0.478005
vt 0.415540 0.478005
vt 0.415540 1.000000
vt 0.505796 1.000000
vt 0.505796 0.478005
vt 1.000000 0.478005
vt 1.000000 1.000000
vt 0.000000 1.000000
vt 0.000000 0.478005
vt 0.505796 0.478005
vt 0.505796 1.000000
vt 0.415540 1.000000
vt 0.415540 0.478005
vt 0.415540 0.000000
vt 0.505796 0.000000
vt 0.000000 0.478005
vt 1.000000 0.478005
vt 1.000000 1.000000
vt 0.000000 1.000000
vt 0.415540 0.478005
vt 0.505796 0.478005
vt 0.505796 1.000000
vt 0.415540 1.000000
vt 1.000000 0.478005
vt 0.000000 0.478005
vt 0.000000 1.000000
vt 1.000000 1.000000
vt 0.505796 0.478005
vt 0.415540 0.478005
vt 0.415540 1.000000
vt 0.505796 1.000000
vt 0.505796 0.000000
vt 0.415540 0.000000
vt 0.541842 0.031670
vt 0.541842 0.434378
vt 0.415540 0.437908
vt 0.415540 0.031670
vt 1.000000 0.031670
vt 1.000000 0.434378
vt 0.000000 0.434378
vt 0.000000 0.031670
vt 0.415540 0.031670
vt 0.415540 0.437908
vt 0.541842 0.434378
vt 0.541842 0.031670
vt 0.000000 0.031670
vt 0.000000 0.437908
vt 1.000000 0.437908
vt 1.000000 0.031670
vt 0.541842 0.031670
vt 0.415540 0.031670
vt 0.415540 0.437908
vt 0.541842 0.434378
vt 1.000000 0.031670
vt 0.000000 0.031670
vt 0.000000 0.434378
vt 1.000000 0.434378
vt 0.415540 0.031670
vt 0.541842 0.031670
vt 0.541842 0.434378
vt 0.415540 0.437908
vt 0.000000 0.031670
vt 1.000000 0.031670
vt 1.000000 0.437908
vt 0.000000 0.437908
vt 0.415540 1.000000
vt 0.541842 1.000000
vt 0.541842 0.000000
vt 0.415540 0.000000
vt 0.573305 0.000000
vt 0.573305 0.031670
vt 0.415540 0.000000
vt 0.541842 0.000000
vt 0.000000 0.000000
vt 1.000000 0.000000
vt 1.000000 0.000000
vt 1.000000 0.031670
vt 0.000000 0.031670
vt 0.000000 0.000000
vt 0.573305 1.000000
vt 0.573305 0.031670
vt 0.573305 0.000000
vt 0.541842 1.000000
vt 0.541842 0.000000
vt 0.573305 0.000000
vt 0.573305 1.000000
vt 0.541842 0.000000
vt 0.541842 1.000000
vt 0.566880 1.000000
vt 0.566880 0.000000
vt 0.505796 1.000000
vt 0.505796 0.000000
vt 0.566880 0.000000
vt 0.566880 1.000000
vt 1.000000 0.455489
vt 1.000000 0.460424
vt 0.000000 0.460424
vt 0.000000 0.455489
vt 0.566880 0.437908
vt 0.579311 0.443057
vt 0.584460 0.455489
vt 0.584460 0.460424
vt 0.579311 0.472856
vt 0.566880 0.478005
vt 0.000000 0.443057
vt 1.000000 0.443057
vt 0.579311 1.000000
vt 0.579311 0.000000
vt 0.579311 0.000000
vt 0.579311 1.000000
vt 1.000000 0.472856
vt 0.000000 0.472856
vt 0.566880 0.478005
vt 0.579311 0.472856
vt 0.584460 0.460424
vt 0.584460 0.455489
vt 0.579311 0.443057
vt 0.566880 0.437908
vt 0.415540 1.000000
vt 0.415540 0.000000
vt 0.541842 0.000000
vt 0.541842 1.000000
vt 0.573305 0.031670
vt 0.573305 0.000000
vt 0.415540 0.000000
vt 0.541842 0.000000
vt 0.000000 0.000000
vt 1.000000 0.000000
vt 1.000000 0.000000
vt 0.000000 0.000000
vt 0.000000 0.031670
vt 1.000000 0.031670
vt 0.573305 1.000000
vt 0.573305 0.000000
vt 0.573305 0.031670
vt 0.541842 1.000000
vt 0.573305 1.000000
vt 0.573305 0.000000
vt 0.541842 0.000000
vt 0.541842 0.000000
vt 0.566880 0.000000
vt 0.566880 1.000000
vt 0.541842 1.000000
vt 0.505796 1.000000
vt 0.566880 1.000000
vt 0.566880 0.000000
vt 0.505796 0.000000
vt 1.000000 0.455489
vt 0.000000 0.455489
vt 0.000000 0.460424
vt 1.000000 0.460424
vt 0.566880 0.478005
vt 0.579311 0.472856
vt 0.584460 0.460424
vt 0.584460 0.455489
vt 0.579311 0.443057
vt 0.566880 0.437908
vt 1.000000 0.443057
vt 0.000000 0.443057
vt 0.579311 1.000000
vt 0.579311 0.000000
vt 0.579311 1.000000
vt 0.579311 0.000000
vt 1.000000 0.472856
vt 0.000000 0.472856
vt 0.566880 0.437908
vt 0.579311 0.443057
vt 0.584460 0.455489
vt 0.584460 0.460424
vt 0.579311 0.472856
vt 0.566880 0.478005
vn 0.0000 -0.0000 1.0000
vn -1.0000 -0.0000 0.0000
vn -0.0000 0.0000 -1.0000
vn 1.0000 -0.0000 -0.0000
vn 0.0000 1.0000 0.0000
vn -0.0000 -1.0000 0.0000
vn -0.0000 -0.9666 -0.2563
vn -0.0000 -0.2151 -0.9766
vn -0.0000 -0.7890 -0.6144
vn 0.0000 0.7890 -0.6144
vn -0.0000 0.2151 -0.9766
vn -0.0000 -0.9666 0.2563
vn 0.0000 -0.2151 0.9766
vn -0.0000 -0.7890 0.6144
vn 0.0000 0.7890 0.6144
vn 0.0000 0.2151 0.9766
usemtl Pared1
s 1
f 1/1/1 2/2/1 3/3/1 4/4/1
f 4/5/2 3/6/2 5/7/2 6/8/2
f 6/9/3 5/10/3 7/11/3 8/12/3
f 8/13/4 7/14/4 2/15/4 1/16/4
f 5/7/5 3/6/5 2/17/5 7/18/5
f 37/19/3 40/20/3 39/21/3 38/22/3
f 40/23/2 42/24/2 41/25/2 39/26/2
f 42/27/1 44/28/1 43/29/1 41/30/1
f 44/31/4 37/32/4 38/33/4 43/34/4
f 41/25/5 43/35/5 38/36/5 39/26/5
usemtl Pared2
f 9/37/4 10/38/4 11/39/4 12/40/4
f 13/41/3 14/42/3 10/43/3 9/44/3
f 15/45/2 16/46/2 14/47/2 13/48/2
f 12/49/1 11/50/1 16/51/1 15/52/1
f 45/53/4 48/54/4 47/55/4 46/56/4
f 49/57/1 45/58/1 46/59/1 50/60/1
f 51/61/2 49/62/2 50/63/2 52/64/2
f 48/65/3 51/66/3 52/67/3 47/68/3
usemtl Rodapies
f 17/69/6 18/70/6 19/71/6 20/72/6
f 19/71/4 9/37/4 12/40/4 20/72/4
f 9/37/4 19/71/4 21/73/4 22/74/4
f 17/75/2 15/45/2 13/48/2 18/76/2
f 20/77/1 12/49/1 15/52/1 17/78/1
f 23/79/3 24/80/3 22/81/3 21/82/3
f 19/71/6 18/70/6 23/83/6 21/73/6
f 18/76/2 13/48/2 24/84/2 23/85/2
f 13/86/5 9/87/5 22/88/5 24/89/5
f 10/38/4 8/13/4 1/16/4 11/39/4
f 10/90/7 14/91/7 25/92/7 26/93/7
f 16/46/2 4/5/2 6/8/2 14/47/2
f 11/50/1 1/1/1 4/4/1 16/51/1
f 6/94/5 8/95/5 27/96/5 28/97/5
f 29/98/3 30/99/3 31/100/3 32/101/3
f 8/13/4 10/38/4 26/102/4 33/103/4 32/104/4 31/105/4 34/106/4 27/107/4
f 29/98/8 32/101/8 33/108/8 35/109/8
f 35/110/9 33/111/9 26/93/9 25/92/9
f 28/97/10 27/96/10 34/112/10 36/113/10
f 36/114/11 34/115/11 31/100/11 30/99/11
f 14/47/2 6/8/2 28/116/2 36/117/2 30/118/2 29/119/2 35/120/2 25/121/2
f 53/122/6 56/123/6 55/124/6 54/125/6
f 55/124/4 56/123/4 48/54/4 45/53/4
f 45/53/4 58/126/4 57/127/4 55/124/4
f 53/128/2 54/129/2 49/62/2 51/61/2
f 56/130/3 53/131/3 51/66/3 48/65/3
f 59/132/1 57/133/1 58/134/1 60/135/1
f 55/124/6 57/127/6 59/136/6 54/125/6
f 54/129/2 59/137/2 60/138/2 49/62/2
f 49/139/5 60/140/5 58/141/5 45/142/5
f 46/56/4 47/55/4 37/32/4 44/31/4
f 46/143/12 62/144/12 61/145/12 50/146/12
f 52/64/2 50/63/2 42/24/2 40/23/2
f 47/68/3 52/67/3 40/20/3 37/19/3
f 42/147/5 64/148/5 63/149/5 44/150/5
f 65/151/1 68/152/1 67/153/1 66/154/1
f 44/31/4 63/155/4 70/156/4 67/157/4 68/158/4 69/159/4 62/160/4 46/56/4
f 65/151/13 71/161/13 69/162/13 68/152/13
f 71/163/14 61/145/14 62/144/14 69/164/14
f 64/148/15 72/165/15 70/166/15 63/149/15
f 72/167/16 66/154/16 67/153/16 70/168/16
f 50/63/2 61/169/2 71/170/2 65/171/2 66/172/2 72/173/2 64/174/2 42/24/2
o Quemable_Casa_Plane.003
v -0.961413 -0.245530 0.103602
v 1.038587 -0.245529 0.103602
v 1.038587 1.648205 0.103602
v -0.961413 1.648205 0.103602
vt 0.222917 0.000000
vt 0.804167 0.000000
vt 0.804167 1.000000
vt 0.222917 1.000000
vn 0.0000 0.0000 1.0000
usemtl Enredaderas
s 1
f 73/175/17 74/176/17 75/177/17 76/178/17
o Plane.004
v 0.752874 -0.103710 0.126595
v 1.038588 -0.103710 0.126595
v 1.038588 0.091121 0.112488
v 0.752874 0.091121 0.112488
v 0.752874 -1.662355 0.112488
v 1.038588 -1.662355 0.112488
v 1.038588 -1.467524 0.112488
v 0.752874 -1.467524 0.112488
v 1.038588 -1.272693 0.112488
v 0.752874 -1.272693 0.112488
v 1.038588 -1.077863 0.112488
v 0.752874 -1.077863 0.112488
v 1.038588 -0.883031 0.112488
v 0.752874 -0.883032 0.112488
v 1.038588 -0.688200 0.112488
v 0.752874 -0.688201 0.112488
v 1.038588 -0.493370 0.112488
v 0.752874 -0.493371 0.112488
v 1.038588 -0.298539 0.112488
v 0.752874 -0.298540 0.112488
v -0.961412 -0.298540 0.112488
v -0.675698 -0.298540 0.112488
v -0.675698 -0.103710 0.126595
v -0.961412 -0.103710 0.126595
v -0.389983 -0.298540 0.112488
v -0.389983 -0.103710 0.126595
v -0.104269 -0.298540 0.112488
v -0.104269 -0.103710 0.126595
v 0.181445 -0.298540 0.112488
v 0.181445 -0.103710 0.126595
v 0.467160 -0.298540 0.112488
v 0.467160 -0.103710 0.126595
v -0.961412 -0.493371 0.112488
v -0.675698 -0.493371 0.112488
v -0.389983 -0.493371 0.112488
v -0.104269 -0.493371 0.112488
v 0.181445 -0.493371 0.112488
v 0.467160 -0.493371 0.112488
v -0.961412 -0.688202 0.112488
v -0.675698 -0.688202 0.112488
v -0.389983 -0.688202 0.112488
v -0.104269 -0.688202 0.112488
v 0.181445 -0.688202 0.112488
v 0.467160 -0.688201 0.112488
v -0.961412 -0.883032 0.112488
v -0.675698 -0.883032 0.112488
v -0.389983 -0.883032 0.112488
v -0.104269 -0.883032 0.112488
v 0.181445 -0.883032 0.112488
v 0.467160 -0.883032 0.112488
v -0.961412 -1.077863 0.112488
v -0.675698 -1.077863 0.112488
v -0.389983 -1.077863 0.112488
v -0.104269 -1.077863 0.112488
v 0.181445 -1.077863 0.112488
v 0.467160 -1.077863 0.112488
v -0.961412 -1.272693 0.112488
v -0.675698 -1.272693 0.112488
v -0.389983 -1.272693 0.112488
v -0.104269 -1.272693 0.112488
v 0.181445 -1.272693 0.112488
v 0.467160 -1.272693 0.112488
v -0.961412 -1.467524 0.112488
v -0.675698 -1.467524 0.112488
v -0.389983 -1.467524 0.112488
v -0.104269 -1.467524 0.112488
v 0.181445 -1.467524 0.112488
v 0.467160 -1.467524 0.112488
v -0.961412 -1.662355 0.112488
v -0.675698 -1.662355 0.112488
v -0.389983 -1.662355 0.112488
v -0.104269 -1.662355 0.112488
v 0.181445 -1.662355 0.112488
v 0.467160 -1.662355 0.112488
v -0.675698 0.091121 0.112488
v -0.961412 0.091121 0.112488
v -0.389983 0.091121 0.112488
v -0.104269 0.091121 0.112488
v 0.181445 0.091121 0.112488
v 0.467160 0.091121 0.112488
vt 0.700893 0.840954
vt 0.781250 0.840954
vt 0.781250 0.938369
vt 0.700893 0.938369
vt 0.700893 0.061631
vt 0.781250 0.061631
vt 0.781250 0.159046
vt 0.700893 0.159046
vt 0.781250 0.256462
vt 0.700893 0.256462
vt 0.781250 0.353877
vt 0.700893 0.353877
vt 0.781250 0.451292
vt 0.700893 0.451292
vt 0.781250 0.548708
vt 0.700893 0.548708
vt 0.781250 0.646123
vt 0.700893 0.646123
vt 0.781250 0.743538
vt 0.700893 0.743538
vt 0.218750 0.743538
vt 0.299107 0.743538
vt 0.299107 0.840954
vt 0.218750 0.840954
vt 0.379464 0.743538
vt 0.379464 0.840954
vt 0.459821 0.743538
vt 0.459821 0.840954
vt 0.540179 0.743538
vt 0.540179 0.840954
vt 0.620536 0.743538
vt 0.620536 0.840954
vt 0.218750 0.646123
vt 0.299107 0.646123
vt 0.379464 0.646123
vt 0.459821 0.646123
vt 0.540179 0.646123
vt 0.620536 0.646123
vt 0.218750 0.548708
vt 0.299107 0.548708
vt 0.379464 0.548708
vt 0.459821 0.548708
vt 0.540179 0.548708
vt 0.620536 0.548708
vt 0.218750 0.451292
vt 0.299107 0.451292
vt 0.379464 0.451292
vt 0.459821 0.451292
vt 0.540179 0.451292
vt 0.620536 0.451292
vt 0.218750 0.353877
vt 0.299107 0.353877
vt 0.379464 0.353877
vt 0.459821 0.353877
vt 0.540179 0.353877
vt 0.620536 0.353877
vt 0.218750 0.256462
vt 0.299107 0.256462
vt 0.379464 0.256462
vt 0.459821 0.256462
vt 0.540179 0.256462
vt 0.620536 0.256462
vt 0.218750 0.159046
vt 0.299107 0.159046
vt 0.379464 0.159046
vt 0.459821 0.159046
vt 0.540179 0.159046
vt 0.620536 0.159046
vt 0.218750 0.061631
vt 0.299107 0.061631
vt 0.379464 0.061631
vt 0.459821 0.061631
vt 0.540179 0.061631
vt 0.620536 0.061631
vt 0.299107 0.938369
vt 0.218750 0.938369
vt 0.379464 0.938369
vt 0.459821 0.938369
vt 0.540179 0.938369
vt 0.620536 0.938369
vn 0.0000 -0.0000 1.0000
vn -0.0000 0.0722 0.9974
vn 0.0000 -0.0361 0.9993
usemtl Enredaderas
s 1
f 77/179/18 78/180/18 79/181/19 80/182/19
f 81/183/18 82/184/18 83/185/18 84/186/18
f 84/186/18 83/185/18 85/187/18 86/188/18
f 86/188/18 85/187/18 87/189/18 88/190/18
f 88/190/18 87/189/18 89/191/18 90/192/18
f 90/192/18 89/191/18 91/193/18 92/194/18
f 92/194/18 91/193/18 93/195/18 94/196/18
f 94/196/18 93/195/18 95/197/20 96/198/20
f 96/198/20 95/197/20 78/180/18 77/179/18
f 97/199/20 98/200/20 99/201/18 100/202/18
f 98/200/20 101/203/20 102/204/18 99/201/18
f 101/203/20 103/205/20 104/206/18 102/204/18
f 103/205/20 105/207/20 106/208/18 104/206/18
f 105/207/20 107/209/20 108/210/18 106/208/18
f 107/209/20 96/198/20 77/179/18 108/210/18
f 109/211/18 110/212/18 98/200/20 97/199/20
f 110/212/18 111/213/18 101/203/20 98/200/20
f 111/213/18 112/214/18 103/205/20 101/203/20
f 112/214/18 113/215/18 105/207/20 103/205/20
f 113/215/18 114/216/18 107/209/20 105/207/20
f 114/216/18 94/196/18 96/198/20 107/209/20
f 115/217/18 116/218/18 110/212/18 109/211/18
f 116/218/18 117/219/18 111/213/18 110/212/18
f 117/219/18 118/220/18 112/214/18 111/213/18
f 118/220/18 119/221/18 113/215/18 112/214/18
f 119/221/18 120/222/18 114/216/18 113/215/18
f 120/222/18 92/194/18 94/196/18 114/216/18
f 121/223/18 122/224/18 116/218/18 115/217/18
f 122/224/18 123/225/18 117/219/18 116/218/18
f 123/225/18 124/226/18 118/220/18 117/219/18
f 124/226/18 125/227/18 119/221/18 118/220/18
f 125/227/18 126/228/18 120/222/18 119/221/18
f 126/228/18 90/192/18 92/194/18 120/222/18
f 127/229/18 128/230/18 122/224/18 121/223/18
f 128/230/18 129/231/18 123/225/18 122/224/18
f 129/231/18 130/232/18 124/226/18 123/225/18
f 130/232/18 131/233/18 125/227/18 124/226/18
f 131/233/18 132/234/18 126/228/18 125/227/18
f 132/234/18 88/190/18 90/192/18 126/228/18
f 133/235/18 134/236/18 128/230/18 127/229/18
f 134/236/18 135/237/18 129/231/18 128/230/18
f 135/237/18 136/238/18 130/232/18 129/231/18
f 136/238/18 137/239/18 131/233/18 130/232/18
f 137/239/18 138/240/18 132/234/18 131/233/18
f 138/240/18 86/188/18 88/190/18 132/234/18
f 139/241/18 140/242/18 134/236/18 133/235/18
f 140/242/18 141/243/18 135/237/18 134/236/18
f 141/243/18 142/244/18 136/238/18 135/237/18
f 142/244/18 143/245/18 137/239/18 136/238/18
f 143/245/18 144/246/18 138/240/18 137/239/18
f 144/246/18 84/186/18 86/188/18 138/240/18
f 145/247/18 146/248/18 140/242/18 139/241/18
f 146/248/18 147/249/18 141/243/18 140/242/18
f 147/249/18 148/250/18 142/244/18 141/243/18
f 148/250/18 149/251/18 143/245/18 142/244/18
f 149/251/18 150/252/18 144/246/18 143/245/18
f 150/252/18 81/183/18 84/186/18 144/246/18
f 100/202/18 99/201/18 151/253/19 152/254/19
f 99/201/18 102/204/18 153/255/19 151/253/19
f 102/204/18 104/206/18 154/256/19 153/255/19
f 104/206/18 106/208/18 155/257/19 154/256/19
f 106/208/18 108/210/18 156/258/19 155/257/19
f 108/210/18 77/179/18 80/182/19 156/258/19
