# Blender v3.1.2 OBJ File: 'untitled3.blend'
# www.blender.org
mtllib Enredaderas.mtl
o Plane
v -0.166211 1.397632 1.706961
v -0.166211 1.397632 -0.293039
v -0.166211 3.397632 1.706961
v -0.166211 3.397632 -0.293039
vt 0.222917 0.000000
vt 0.804167 0.000000
vt 0.804167 1.000000
vt 0.222917 1.000000
vn 1.0000 -0.0000 -0.0000
usemtl Enredaderas
s off
f 1/1/1 2/2/1 4/3/1 3/4/1
o Plane.001
v -0.166211 -0.093453 1.706961
v -0.166211 -0.093453 -0.293039
v -0.166211 1.660023 1.706961
v -0.166211 1.660023 -0.293039
v -0.166211 1.465192 1.706961
v -0.166211 1.270362 1.706961
v -0.166211 1.075531 1.706961
v -0.166211 0.880700 1.706961
v -0.166211 0.685870 1.706961
v -0.166211 0.491039 1.706961
v -0.166211 0.296209 1.706961
v -0.166211 0.101378 1.706961
v -0.166211 0.101378 -0.293039
v -0.166211 0.296209 -0.293039
v -0.166211 0.491039 -0.293039
v -0.166211 0.685870 -0.293039
v -0.166211 0.880701 -0.293039
v -0.166211 1.075531 -0.293039
v -0.166211 1.270362 -0.293039
v -0.166211 1.465192 -0.293039
v -0.166211 -0.093453 1.421247
v -0.166211 -0.093453 1.135532
v -0.166211 -0.093453 0.849818
v -0.166211 -0.093453 0.564104
v -0.166211 -0.093453 0.278389
v -0.166211 -0.093453 -0.007325
v -0.166211 1.660023 -0.007325
v -0.166211 1.660023 0.278389
v -0.166211 1.660023 0.564104
v -0.166211 1.660023 0.849818
v -0.166211 1.660023 1.135532
v -0.166211 1.660023 1.421247
v -0.166211 0.101378 -0.007325
v -0.166211 0.101378 0.278389
v -0.166211 0.101378 0.564104
v -0.166211 0.101378 0.849818
v -0.166211 0.101378 1.135532
v -0.166211 0.101378 1.421247
v -0.166211 0.296209 -0.007325
v -0.166211 0.296209 0.278389
v -0.166211 0.296209 0.564104
v -0.166211 0.296209 0.849818
v -0.166211 0.296209 1.135532
v -0.166211 0.296209 1.421247
v -0.166211 0.491039 -0.007325
v -0.166211 0.491039 0.278389
v -0.166211 0.491039 0.564104
v -0.166211 0.491039 0.849818
v -0.166211 0.491039 1.135532
v -0.166211 0.491039 1.421247
v -0.166211 0.685870 -0.007325
v -0.166211 0.685870 0.278389
v -0.166211 0.685870 0.564104
v -0.166211 0.685870 0.849818
v -0.166211 0.685870 1.135532
v -0.166211 0.685870 1.421247
v -0.166211 0.880701 -0.007325
v -0.166211 0.880701 0.278389
v -0.166211 0.880700 0.564104
v -0.166211 0.880700 0.849818
v -0.166211 0.880700 1.135532
v -0.166211 0.880700 1.421247
v -0.166211 1.075531 -0.007325
v -0.166211 1.075531 0.278389
v -0.166211 1.075531 0.564104
v -0.166211 1.075531 0.849818
v -0.166211 1.075531 1.135532
v -0.166211 1.075531 1.421247
v -0.166211 1.270362 -0.007325
v -0.166211 1.270362 0.278389
v -0.166211 1.270362 0.564104
v -0.166211 1.270362 0.849818
v -0.166211 1.270362 1.135532
v -0.166211 1.270362 1.421247
v -0.166211 1.465192 -0.007325
v -0.166211 1.465192 0.278389
v -0.166211 1.465192 0.564104
v -0.166211 1.465192 0.849818
v -0.166211 1.465192 1.135532
v -0.166211 1.465192 1.421247
vt 0.700893 0.840954
vt 0.781250 0.840954
vt 0.781250 0.938369
vt 0.700893 0.938369
vt 0.700893 0.061631
vt 0.781250 0.061631
vt 0.781250 0.159046
vt 0.700893 0.159046
vt 0.781250 0.256462
vt 0.700893 0.256462
vt 0.781250 0.353877
vt 0.700893 0.353877
vt 0.781250 0.451292
vt 0.700893 0.451292
vt 0.781250 0.548708
vt 0.700893 0.548708
vt 0.781250 0.646123
vt 0.700893 0.646123
vt 0.781250 0.743538
vt 0.700893 0.743538
vt 0.218750 0.743538
vt 0.299107 0.743538
vt 0.299107 0.840954
vt 0.218750 0.840954
vt 0.379464 0.743538
vt 0.379464 0.840954
vt 0.459821 0.743538
vt 0.459821 0.840954
vt 0.540179 0.743538
vt 0.540179 0.840954
vt 0.620536 0.743538
vt 0.620536 0.840954
vt 0.218750 0.646123
vt 0.299107 0.646123
vt 0.379464 0.646123
vt 0.459821 0.646123
vt 0.540179 0.646123
vt 0.620536 0.646123
vt 0.218750 0.548708
vt 0.299107 0.548708
vt 0.379464 0.548708
vt 0.459821 0.548708
vt 0.540179 0.548708
vt 0.620536 0.548708
vt 0.218750 0.451292
vt 0.299107 0.451292
vt 0.379464 0.451292
vt 0.459821 0.451292
vt 0.540179 0.451292
vt 0.620536 0.451292
vt 0.218750 0.353877
vt 0.299107 0.353877
vt 0.379464 0.353877
vt 0.459821 0.353877
vt 0.540179 0.353877
vt 0.620536 0.353877
vt 0.218750 0.256462
vt 0.299107 0.256462
vt 0.379464 0.256462
vt 0.459821 0.256462
vt 0.540179 0.256462
vt 0.620536 0.256462
vt 0.218750 0.159046
vt 0.299107 0.159046
vt 0.379464 0.159046
vt 0.459821 0.159046
vt 0.540179 0.159046
vt 0.620536 0.159046
vt 0.218750 0.061631
vt 0.299107 0.061631
vt 0.379464 0.061631
vt 0.459821 0.061631
vt 0.540179 0.061631
vt 0.620536 0.061631
vt 0.299107 0.938369
vt 0.218750 0.938369
vt 0.379464 0.938369
vt 0.459821 0.938369
vt 0.540179 0.938369
vt 0.620536 0.938369
vn 1.0000 -0.0000 -0.0000
usemtl Enredaderas
s off
f 79/5/2 24/6/2 8/7/2 31/8/2
f 30/9/2 6/10/2 17/11/2 37/12/2
f 37/12/2 17/11/2 18/13/2 43/14/2
f 43/14/2 18/13/2 19/15/2 49/16/2
f 49/16/2 19/15/2 20/17/2 55/18/2
f 55/18/2 20/17/2 21/19/2 61/20/2
f 61/20/2 21/19/2 22/21/2 67/22/2
f 67/22/2 22/21/2 23/23/2 73/24/2
f 73/24/2 23/23/2 24/6/2 79/5/2
f 10/25/2 78/26/2 84/27/2 9/28/2
f 78/26/2 77/29/2 83/30/2 84/27/2
f 77/29/2 76/31/2 82/32/2 83/30/2
f 76/31/2 75/33/2 81/34/2 82/32/2
f 75/33/2 74/35/2 80/36/2 81/34/2
f 74/35/2 73/24/2 79/5/2 80/36/2
f 11/37/2 72/38/2 78/26/2 10/25/2
f 72/38/2 71/39/2 77/29/2 78/26/2
f 71/39/2 70/40/2 76/31/2 77/29/2
f 70/40/2 69/41/2 75/33/2 76/31/2
f 69/41/2 68/42/2 74/35/2 75/33/2
f 68/42/2 67/22/2 73/24/2 74/35/2
f 12/43/2 66/44/2 72/38/2 11/37/2
f 66/44/2 65/45/2 71/39/2 72/38/2
f 65/45/2 64/46/2 70/40/2 71/39/2
f 64/46/2 63/47/2 69/41/2 70/40/2
f 63/47/2 62/48/2 68/42/2 69/41/2
f 62/48/2 61/20/2 67/22/2 68/42/2
f 13/49/2 60/50/2 66/44/2 12/43/2
f 60/50/2 59/51/2 65/45/2 66/44/2
f 59/51/2 58/52/2 64/46/2 65/45/2
f 58/52/2 57/53/2 63/47/2 64/46/2
f 57/53/2 56/54/2 62/48/2 63/47/2
f 56/54/2 55/18/2 61/20/2 62/48/2
f 14/55/2 54/56/2 60/50/2 13/49/2
f 54/56/2 53/57/2 59/51/2 60/50/2
f 53/57/2 52/58/2 58/52/2 59/51/2
f 52/58/2 51/59/2 57/53/2 58/52/2
f 51/59/2 50/60/2 56/54/2 57/53/2
f 50/60/2 49/16/2 55/18/2 56/54/2
f 15/61/2 48/62/2 54/56/2 14/55/2
f 48/62/2 47/63/2 53/57/2 54/56/2
f 47/63/2 46/64/2 52/58/2 53/57/2
f 46/64/2 45/65/2 51/59/2 52/58/2
f 45/65/2 44/66/2 50/60/2 51/59/2
f 44/66/2 43/14/2 49/16/2 50/60/2
f 16/67/2 42/68/2 48/62/2 15/61/2
f 42/68/2 41/69/2 47/63/2 48/62/2
f 41/69/2 40/70/2 46/64/2 47/63/2
f 40/70/2 39/71/2 45/65/2 46/64/2
f 39/71/2 38/72/2 44/66/2 45/65/2
f 38/72/2 37/12/2 43/14/2 44/66/2
f 5/73/2 25/74/2 42/68/2 16/67/2
f 25/74/2 26/75/2 41/69/2 42/68/2
f 26/75/2 27/76/2 40/70/2 41/69/2
f 27/76/2 28/77/2 39/71/2 40/70/2
f 28/77/2 29/78/2 38/72/2 39/71/2
f 29/78/2 30/9/2 37/12/2 38/72/2
f 9/28/2 84/27/2 36/79/2 7/80/2
f 84/27/2 83/30/2 35/81/2 36/79/2
f 83/30/2 82/32/2 34/82/2 35/81/2
f 82/32/2 81/34/2 33/83/2 34/82/2
f 81/34/2 80/36/2 32/84/2 33/83/2
f 80/36/2 79/5/2 31/8/2 32/84/2
o Plane.002
v -0.166211 1.397632 0.270211
v -0.166211 1.397632 -1.729789
v -0.166211 3.397632 0.270211
v -0.166211 3.397632 -1.729789
vt 0.222917 0.000000
vt 0.804167 0.000000
vt 0.804167 1.000000
vt 0.222917 1.000000
vn 1.0000 -0.0000 -0.0000
usemtl Enredaderas
s off
f 85/85/3 86/86/3 88/87/3 87/88/3
o Plane.003
v -0.166211 -0.093453 0.270211
v -0.166211 -0.093453 -1.729789
v -0.166211 1.660023 0.270211
v -0.166211 1.660023 -1.729789
v -0.166211 1.465192 0.270211
v -0.166211 1.270362 0.270211
v -0.166211 1.075531 0.270211
v -0.166211 0.880700 0.270211
v -0.166211 0.685870 0.270211
v -0.166211 0.491039 0.270211
v -0.166211 0.296209 0.270211
v -0.166211 0.101378 0.270211
v -0.166211 0.101378 -1.729789
v -0.166211 0.296209 -1.729789
v -0.166211 0.491039 -1.729789
v -0.166211 0.685870 -1.729789
v -0.166211 0.880701 -1.729789
v -0.166211 1.075531 -1.729789
v -0.166211 1.270362 -1.729789
v -0.166211 1.465192 -1.729789
v -0.166211 -0.093453 -0.015503
v -0.166211 -0.093453 -0.301218
v -0.166211 -0.093453 -0.586932
v -0.166211 -0.093453 -0.872646
v -0.166211 -0.093453 -1.158361
v -0.166211 -0.093453 -1.444075
v -0.166211 1.660023 -1.444075
v -0.166211 1.660023 -1.158361
v -0.166211 1.660023 -0.872646
v -0.166211 1.660023 -0.586932
v -0.166211 1.660023 -0.301218
v -0.166211 1.660023 -0.015503
v -0.166211 0.101378 -1.444075
v -0.166211 0.101378 -1.158361
v -0.166211 0.101378 -0.872646
v -0.166211 0.101378 -0.586932
v -0.166211 0.101378 -0.301218
v -0.166211 0.101378 -0.015503
v -0.166211 0.296209 -1.444075
v -0.166211 0.296209 -1.158361
v -0.166211 0.296209 -0.872646
v -0.166211 0.296209 -0.586932
v -0.166211 0.296209 -0.301218
v -0.166211 0.296209 -0.015503
v -0.166211 0.491039 -1.444075
v -0.166211 0.491039 -1.158361
v -0.166211 0.491039 -0.872646
v -0.166211 0.491039 -0.586932
v -0.166211 0.491039 -0.301218
v -0.166211 0.491039 -0.015503
v -0.166211 0.685870 -1.444075
v -0.166211 0.685870 -1.158361
v -0.166211 0.685870 -0.872646
v -0.166211 0.685870 -0.586932
v -0.166211 0.685870 -0.301218
v -0.166211 0.685870 -0.015503
v -0.166211 0.880701 -1.444075
v -0.166211 0.880701 -1.158361
v -0.166211 0.880700 -0.872646
v -0.166211 0.880700 -0.586932
v -0.166211 0.880700 -0.301218
v -0.166211 0.880700 -0.015503
v -0.166211 1.075531 -1.444075
v -0.166211 1.075531 -1.158361
v -0.166211 1.075531 -0.872646
v -0.166211 1.075531 -0.586932
v -0.166211 1.075531 -0.301218
v -0.166211 1.075531 -0.015503
v -0.166211 1.270362 -1.444075
v -0.166211 1.270362 -1.158361
v -0.166211 1.270362 -0.872646
v -0.166211 1.270362 -0.586932
v -0.166211 1.270362 -0.301218
v -0.166211 1.270362 -0.015503
v -0.166211 1.465192 -1.444075
v -0.166211 1.465192 -1.158361
v -0.166211 1.465192 -0.872646
v -0.166211 1.465192 -0.586932
v -0.166211 1.465192 -0.301218
v -0.166211 1.465192 -0.015503
vt 0.700893 0.840954
vt 0.781250 0.840954
vt 0.781250 0.938369
vt 0.700893 0.938369
vt 0.700893 0.061631
vt 0.781250 0.061631
vt 0.781250 0.159046
vt 0.700893 0.159046
vt 0.781250 0.256462
vt 0.700893 0.256462
vt 0.781250 0.353877
vt 0.700893 0.353877
vt 0.781250 0.451292
vt 0.700893 0.451292
vt 0.781250 0.548708
vt 0.700893 0.548708
vt 0.781250 0.646123
vt 0.700893 0.646123
vt 0.781250 0.743538
vt 0.700893 0.743538
vt 0.218750 0.743538
vt 0.299107 0.743538
vt 0.299107 0.840954
vt 0.218750 0.840954
vt 0.379464 0.743538
vt 0.379464 0.840954
vt 0.459821 0.743538
vt 0.459821 0.840954
vt 0.540179 0.743538
vt 0.540179 0.840954
vt 0.620536 0.743538
vt 0.620536 0.840954
vt 0.218750 0.646123
vt 0.299107 0.646123
vt 0.379464 0.646123
vt 0.459821 0.646123
vt 0.540179 0.646123
vt 0.620536 0.646123
vt 0.218750 0.548708
vt 0.299107 0.548708
vt 0.379464 0.548708
vt 0.459821 0.548708
vt 0.540179 0.548708
vt 0.620536 0.548708
vt 0.218750 0.451292
vt 0.299107 0.451292
vt 0.379464 0.451292
vt 0.459821 0.451292
vt 0.540179 0.451292
vt 0.620536 0.451292
vt 0.218750 0.353877
vt 0.299107 0.353877
vt 0.379464 0.353877
vt 0.459821 0.353877
vt 0.540179 0.353877
vt 0.620536 0.353877
vt 0.218750 0.256462
vt 0.299107 0.256462
vt 0.379464 0.256462
vt 0.459821 0.256462
vt 0.540179 0.256462
vt 0.620536 0.256462
vt 0.218750 0.159046
vt 0.299107 0.159046
vt 0.379464 0.159046
vt 0.459821 0.159046
vt 0.540179 0.159046
vt 0.620536 0.159046
vt 0.218750 0.061631
vt 0.299107 0.061631
vt 0.379464 0.061631
vt 0.459821 0.061631
vt 0.540179 0.061631
vt 0.620536 0.061631
vt 0.299107 0.938369
vt 0.218750 0.938369
vt 0.379464 0.938369
vt 0.459821 0.938369
vt 0.540179 0.938369
vt 0.620536 0.938369
vn 1.0000 -0.0000 -0.0000
usemtl Enredaderas
s off
f 163/89/4 108/90/4 92/91/4 115/92/4
f 114/93/4 90/94/4 101/95/4 121/96/4
f 121/96/4 101/95/4 102/97/4 127/98/4
f 127/98/4 102/97/4 103/99/4 133/100/4
f 133/100/4 103/99/4 104/101/4 139/102/4
f 139/102/4 104/101/4 105/103/4 145/104/4
f 145/104/4 105/103/4 106/105/4 151/106/4
f 151/106/4 106/105/4 107/107/4 157/108/4
f 157/108/4 107/107/4 108/90/4 163/89/4
f 94/109/4 162/110/4 168/111/4 93/112/4
f 162/110/4 161/113/4 167/114/4 168/111/4
f 161/113/4 160/115/4 166/116/4 167/114/4
f 160/115/4 159/117/4 165/118/4 166/116/4
f 159/117/4 158/119/4 164/120/4 165/118/4
f 158/119/4 157/108/4 163/89/4 164/120/4
f 95/121/4 156/122/4 162/110/4 94/109/4
f 156/122/4 155/123/4 161/113/4 162/110/4
f 155/123/4 154/124/4 160/115/4 161/113/4
f 154/124/4 153/125/4 159/117/4 160/115/4
f 153/125/4 152/126/4 158/119/4 159/117/4
f 152/126/4 151/106/4 157/108/4 158/119/4
f 96/127/4 150/128/4 156/122/4 95/121/4
f 150/128/4 149/129/4 155/123/4 156/122/4
f 149/129/4 148/130/4 154/124/4 155/123/4
f 148/130/4 147/131/4 153/125/4 154/124/4
f 147/131/4 146/132/4 152/126/4 153/125/4
f 146/132/4 145/104/4 151/106/4 152/126/4
f 97/133/4 144/134/4 150/128/4 96/127/4
f 144/134/4 143/135/4 149/129/4 150/128/4
f 143/135/4 142/136/4 148/130/4 149/129/4
f 142/136/4 141/137/4 147/131/4 148/130/4
f 141/137/4 140/138/4 146/132/4 147/131/4
f 140/138/4 139/102/4 145/104/4 146/132/4
f 98/139/4 138/140/4 144/134/4 97/133/4
f 138/140/4 137/141/4 143/135/4 144/134/4
f 137/141/4 136/142/4 142/136/4 143/135/4
f 136/142/4 135/143/4 141/137/4 142/136/4
f 135/143/4 134/144/4 140/138/4 141/137/4
f 134/144/4 133/100/4 139/102/4 140/138/4
f 99/145/4 132/146/4 138/140/4 98/139/4
f 132/146/4 131/147/4 137/141/4 138/140/4
f 131/147/4 130/148/4 136/142/4 137/141/4
f 130/148/4 129/149/4 135/143/4 136/142/4
f 129/149/4 128/150/4 134/144/4 135/143/4
f 128/150/4 127/98/4 133/100/4 134/144/4
f 100/151/4 126/152/4 132/146/4 99/145/4
f 126/152/4 125/153/4 131/147/4 132/146/4
f 125/153/4 124/154/4 130/148/4 131/147/4
f 124/154/4 123/155/4 129/149/4 130/148/4
f 123/155/4 122/156/4 128/150/4 129/149/4
f 122/156/4 121/96/4 127/98/4 128/150/4
f 89/157/4 109/158/4 126/152/4 100/151/4
f 109/158/4 110/159/4 125/153/4 126/152/4
f 110/159/4 111/160/4 124/154/4 125/153/4
f 111/160/4 112/161/4 123/155/4 124/154/4
f 112/161/4 113/162/4 122/156/4 123/155/4
f 113/162/4 114/93/4 121/96/4 122/156/4
f 93/112/4 168/111/4 120/163/4 91/164/4
f 168/111/4 167/114/4 119/165/4 120/163/4
f 167/114/4 166/116/4 118/166/4 119/165/4
f 166/116/4 165/118/4 117/167/4 118/166/4
f 165/118/4 164/120/4 116/168/4 117/167/4
f 164/120/4 163/89/4 115/92/4 116/168/4
