# Blender v3.0.1 OBJ File: 'Nivel_1_Iglesia.blend'
# www.blender.org
mtllib Quemable.mtl
o Cube.011_Cube.012
v 0.268122 0.904703 0.036148
v 0.213710 1.061754 -0.100094
v -0.104213 -0.293874 -1.535782
v -0.049801 -0.450926 -1.399536
v 0.054484 -0.280409 -1.583641
v 0.108896 -0.437460 -1.447395
v 0.372407 1.075220 -0.147953
v 0.426819 0.918169 -0.011707
v 0.478329 -0.467422 1.070625
v 0.478329 -0.317835 1.224937
v -0.516010 0.928139 0.017113
v -0.516010 0.778553 -0.137200
v -0.371718 0.987505 -0.040436
v -0.371718 0.837918 -0.194748
v 0.622621 -0.258470 1.167389
v 0.622621 -0.408057 1.013077
v 0.816610 -0.196604 -0.976349
v 0.816610 0.018310 -0.976349
v -0.394080 0.018310 0.615578
v -0.394080 -0.196604 0.615578
v -0.526450 0.018310 0.514908
v -0.526450 -0.196604 0.514908
v 0.684240 0.018310 -1.077019
v 0.684240 -0.196604 -1.077019
v 0.787807 0.356833 0.688839
v 0.691819 0.546263 0.721867
v -0.975764 -0.149220 -0.135727
v -0.879775 -0.338650 -0.168758
v -0.921798 -0.096061 -0.283775
v -0.825809 -0.285491 -0.316803
v 0.745785 0.599422 0.573818
v 0.841774 0.409992 0.540790
v 0.226504 -0.375473 -1.102661
v 0.434278 -0.421968 -1.131931
v 0.713278 -0.421968 0.848511
v 0.505505 -0.375473 0.877781
v 0.748904 -0.259604 0.843494
v 0.541131 -0.213110 0.872765
v 0.469903 -0.259604 -1.136951
v 0.262130 -0.213110 -1.107681
v -0.430773 0.729137 -0.525795
v -0.305448 0.872541 -0.426209
v 1.194156 -0.450659 -0.407986
v 1.068831 -0.594062 -0.507572
v 1.142162 -0.507555 -0.260624
v 1.016837 -0.650959 -0.360210
v -0.357442 0.815645 -0.278843
v -0.482766 0.672241 -0.378430
v -0.069763 -0.449655 1.040970
v -0.269639 -0.457691 1.119537
v -1.001311 -0.457691 -0.741821
v -0.801435 -0.449655 -0.820393
v -1.007099 -0.291506 -0.739548
v -0.807222 -0.283470 -0.818115
v -0.275427 -0.291506 1.121811
v -0.075550 -0.283470 1.043243
v -0.129001 -0.115179 1.549213
v -0.328877 -0.123215 1.627785
v -1.060549 -0.123216 -0.233574
v -0.860673 -0.115180 -0.312141
v -1.066336 0.042970 -0.231300
v -0.866460 0.051006 -0.309868
v -0.334664 0.042971 1.630058
v -0.134788 0.051007 1.551491
vt 0.969047 0.102739
vt 0.223178 0.105662
vt 0.223178 0.200145
vt 0.969047 0.193767
vt 0.735511 0.602760
vt 0.822560 0.602760
vt 0.822560 0.689809
vt 0.735511 0.689809
vt 0.504405 0.606646
vt 1.000751 0.605114
vt 1.001051 0.691717
vt 0.504706 0.693249
vt 0.760688 0.704733
vt 0.843889 0.704733
vt 0.843889 0.787934
vt 0.760688 0.787934
vt 0.002514 0.614309
vt 0.491285 0.614309
vt 0.491285 0.688398
vt 0.002514 0.688398
vt 0.508735 0.608462
vt 0.997465 0.605361
vt 0.997465 0.688044
vt 0.510285 0.692695
vt 0.969047 0.102739
vt 0.223178 0.105662
vt 0.223178 0.200145
vt 0.969047 0.193767
vt 0.735511 0.602760
vt 0.822560 0.602760
vt 0.822560 0.689809
vt 0.735511 0.689809
vt 0.504405 0.606646
vt 1.000751 0.605114
vt 1.001051 0.691717
vt 0.504706 0.693249
vt 0.760688 0.704733
vt 0.843889 0.704733
vt 0.843889 0.787934
vt 0.760688 0.787934
vt 0.002514 0.614309
vt 0.491285 0.614309
vt 0.491285 0.688398
vt 0.002514 0.688398
vt 0.508735 0.608462
vt 0.997465 0.605361
vt 0.997465 0.688044
vt 0.510285 0.692695
vt 0.969047 0.102739
vt 0.223178 0.105662
vt 0.223178 0.200145
vt 0.969047 0.193767
vt 0.735511 0.602760
vt 0.822560 0.602760
vt 0.822560 0.689809
vt 0.735511 0.689809
vt 0.504405 0.606646
vt 1.000751 0.605114
vt 1.001051 0.691717
vt 0.504706 0.693249
vt 0.760688 0.704733
vt 0.843889 0.704733
vt 0.843889 0.787934
vt 0.760688 0.787934
vt 0.002514 0.614309
vt 0.491285 0.614309
vt 0.491285 0.688398
vt 0.002514 0.688398
vt 0.508735 0.608462
vt 0.997465 0.605361
vt 0.997465 0.688044
vt 0.510285 0.692695
vt 0.969047 0.102739
vt 0.223178 0.105662
vt 0.223178 0.200145
vt 0.969047 0.193767
vt 0.735511 0.602760
vt 0.822560 0.602760
vt 0.822560 0.689809
vt 0.735511 0.689809
vt 0.504405 0.606646
vt 1.000751 0.605114
vt 1.001051 0.691717
vt 0.504706 0.693249
vt 0.760688 0.704733
vt 0.843889 0.704733
vt 0.843889 0.787934
vt 0.760688 0.787934
vt 0.002514 0.614309
vt 0.491285 0.614309
vt 0.491285 0.688398
vt 0.002514 0.688398
vt 0.508735 0.608462
vt 0.997465 0.605361
vt 0.997465 0.688044
vt 0.510285 0.692695
vt 0.969047 0.102739
vt 0.223178 0.105662
vt 0.223178 0.200145
vt 0.969047 0.193767
vt 0.735511 0.602760
vt 0.822560 0.602760
vt 0.822560 0.689809
vt 0.735511 0.689809
vt 0.504405 0.606646
vt 1.000751 0.605114
vt 1.001051 0.691717
vt 0.504706 0.693249
vt 0.760688 0.704733
vt 0.843889 0.704733
vt 0.843889 0.787934
vt 0.760688 0.787934
vt 0.002514 0.614309
vt 0.491285 0.614309
vt 0.491285 0.688398
vt 0.002514 0.688398
vt 0.508735 0.608462
vt 0.997465 0.605361
vt 0.997465 0.688044
vt 0.510285 0.692695
vt 0.969047 0.102739
vt 0.223178 0.105662
vt 0.223178 0.200145
vt 0.969047 0.193767
vt 0.735511 0.602760
vt 0.822560 0.602760
vt 0.822560 0.689809
vt 0.735511 0.689809
vt 0.504405 0.606646
vt 1.000751 0.605114
vt 1.001051 0.691717
vt 0.504706 0.693249
vt 0.760688 0.704733
vt 0.843889 0.704733
vt 0.843889 0.787934
vt 0.760688 0.787934
vt 0.002514 0.614309
vt 0.491285 0.614309
vt 0.491285 0.688398
vt 0.002514 0.688398
vt 0.508735 0.608462
vt 0.997465 0.605361
vt 0.997465 0.688044
vt 0.510285 0.692695
vt 0.969047 0.102739
vt 0.223178 0.105662
vt 0.223178 0.200145
vt 0.969047 0.193767
vt 0.735511 0.602760
vt 0.822560 0.602760
vt 0.822560 0.689809
vt 0.735511 0.689809
vt 0.504405 0.606646
vt 1.000751 0.605114
vt 1.001051 0.691717
vt 0.504706 0.693249
vt 0.760688 0.704733
vt 0.843889 0.704733
vt 0.843889 0.787934
vt 0.760688 0.787934
vt 0.002514 0.614309
vt 0.491285 0.614309
vt 0.491285 0.688398
vt 0.002514 0.688398
vt 0.508735 0.608462
vt 0.997465 0.605361
vt 0.997465 0.688044
vt 0.510285 0.692695
vt 0.969047 0.102739
vt 0.223178 0.105662
vt 0.223178 0.200145
vt 0.969047 0.193767
vt 0.735511 0.602760
vt 0.822560 0.602760
vt 0.822560 0.689809
vt 0.735511 0.689809
vt 0.504405 0.606646
vt 1.000751 0.605114
vt 1.001051 0.691717
vt 0.504706 0.693249
vt 0.760688 0.704733
vt 0.843889 0.704733
vt 0.843889 0.787934
vt 0.760688 0.787934
vt 0.002514 0.614309
vt 0.491285 0.614309
vt 0.491285 0.688398
vt 0.002514 0.688398
vt 0.508735 0.608462
vt 0.997465 0.605361
vt 0.997465 0.688044
vt 0.510285 0.692695
vn -0.9543 -0.0810 0.2878
vn -0.1590 -0.6778 -0.7178
vn 0.9543 0.0810 -0.2878
vn 0.1590 0.6778 0.7178
vn 0.2532 -0.7308 0.6339
vn -0.2532 0.7308 -0.6339
vn -0.8677 -0.3570 0.3460
vn -0.4972 0.6230 -0.6039
vn 0.8677 0.3570 -0.3460
vn 0.4972 -0.6230 0.6039
vn -0.0000 -0.6960 -0.7180
vn 0.0000 0.6960 0.7180
vn 0.7960 0.0000 0.6053
vn -0.6053 0.0000 0.7960
vn -0.7960 -0.0000 -0.6053
vn 0.6053 -0.0000 -0.7960
vn -0.0000 -1.0000 0.0000
vn -0.0000 1.0000 -0.0000
vn -0.3245 -0.3197 0.8902
vn -0.8338 -0.3477 -0.4288
vn 0.3245 0.3197 -0.8902
vn 0.8338 0.3477 0.4288
vn 0.4466 -0.8814 -0.1537
vn -0.4466 0.8814 0.1537
vn -0.2142 -0.9763 0.0302
vn 0.1395 -0.0000 0.9902
vn 0.2142 0.9763 -0.0302
vn -0.1395 -0.0000 -0.9902
vn -0.9668 0.2163 0.1362
vn 0.9668 -0.2163 -0.1362
vn 0.3126 0.3421 -0.8861
vn 0.7498 -0.6616 0.0091
vn -0.3126 -0.3421 0.8861
vn -0.7498 0.6616 -0.0091
vn -0.5831 -0.6673 -0.4634
vn 0.5831 0.6673 0.4634
vn 0.0348 -0.9993 -0.0137
vn -0.3658 0.0000 -0.9307
vn -0.0348 0.9993 0.0137
vn 0.3658 0.0000 0.9307
vn 0.9300 0.0374 -0.3656
vn -0.9300 -0.0374 0.3656
usemtl Material.016
s 1
f 1/1/1 2/2/1 3/3/1 4/4/1
f 4/5/2 3/6/2 5/7/2 6/8/2
f 6/9/3 5/10/3 7/11/3 8/12/3
f 8/13/4 7/14/4 2/15/4 1/16/4
f 4/17/5 6/18/5 8/19/5 1/20/5
f 5/21/6 3/22/6 2/23/6 7/24/6
f 9/25/7 10/26/7 11/27/7 12/28/7
f 12/29/8 11/30/8 13/31/8 14/32/8
f 14/33/9 13/34/9 15/35/9 16/36/9
f 16/37/10 15/38/10 10/39/10 9/40/10
f 12/41/11 14/42/11 16/43/11 9/44/11
f 13/45/12 11/46/12 10/47/12 15/48/12
f 17/49/13 18/50/13 19/51/13 20/52/13
f 20/53/14 19/54/14 21/55/14 22/56/14
f 22/57/15 21/58/15 23/59/15 24/60/15
f 24/61/16 23/62/16 18/63/16 17/64/16
f 20/65/17 22/66/17 24/67/17 17/68/17
f 21/69/18 19/70/18 18/71/18 23/72/18
f 25/73/19 26/74/19 27/75/19 28/76/19
f 28/77/20 27/78/20 29/79/20 30/80/20
f 30/81/21 29/82/21 31/83/21 32/84/21
f 32/85/22 31/86/22 26/87/22 25/88/22
f 28/89/23 30/90/23 32/91/23 25/92/23
f 29/93/24 27/94/24 26/95/24 31/96/24
f 33/97/25 34/98/25 35/99/25 36/100/25
f 36/101/26 35/102/26 37/103/26 38/104/26
f 38/105/27 37/106/27 39/107/27 40/108/27
f 40/109/28 39/110/28 34/111/28 33/112/28
f 36/113/29 38/114/29 40/115/29 33/116/29
f 37/117/30 35/118/30 34/119/30 39/120/30
f 41/121/31 42/122/31 43/123/31 44/124/31
f 44/125/32 43/126/32 45/127/32 46/128/32
f 46/129/33 45/130/33 47/131/33 48/132/33
f 48/133/34 47/134/34 42/135/34 41/136/34
f 44/137/35 46/138/35 48/139/35 41/140/35
f 45/141/36 43/142/36 42/143/36 47/144/36
f 49/145/37 50/146/37 51/147/37 52/148/37
f 52/149/38 51/150/38 53/151/38 54/152/38
f 54/153/39 53/154/39 55/155/39 56/156/39
f 56/157/40 55/158/40 50/159/40 49/160/40
f 52/161/41 54/162/41 56/163/41 49/164/41
f 53/165/42 51/166/42 50/167/42 55/168/42
f 57/169/37 58/170/37 59/171/37 60/172/37
f 60/173/38 59/174/38 61/175/38 62/176/38
f 62/177/39 61/178/39 63/179/39 64/180/39
f 64/181/40 63/182/40 58/183/40 57/184/40
f 60/185/41 62/186/41 64/187/41 57/188/41
f 61/189/42 59/190/42 58/191/42 63/192/42
