# Blender v3.0.1 OBJ File: 'Nivel_1_Iglesia.blend'
# www.blender.org
mtllib Tumba3.mtl
o Cube_Cube.019
v 0.149395 -0.363212 0.297062
v 0.149395 -0.122509 0.297062
v -0.314924 -0.122509 0.175165
v -0.314924 -0.363212 0.175165
v -0.254606 -0.122509 -0.054596
v -0.254606 -0.363212 -0.054596
v 0.209715 -0.122509 0.067299
v 0.209715 -0.363212 0.067299
v 0.034105 0.486613 0.147278
v 0.053007 0.486613 0.075276
v 0.053007 0.695465 0.075276
v 0.034105 0.695465 0.147278
v 0.034105 -0.122509 0.147278
v -0.140928 -0.122509 0.101326
v -0.122026 -0.122509 0.029325
v 0.053007 -0.122509 0.075275
v -0.122026 0.695465 0.029326
v -0.140928 0.695465 0.101326
v -0.122026 0.486613 0.029326
v -0.140928 0.486613 0.101326
v 0.034105 0.337958 0.147278
v -0.140928 0.337958 0.101326
v -0.122026 0.337958 0.029326
v 0.053007 0.337958 0.075275
v -0.348505 0.486613 -0.030130
v -0.367407 0.486613 0.041870
v 0.260584 0.486613 0.206734
v 0.279486 0.486613 0.134733
v -0.348505 0.337958 -0.030130
v -0.367407 0.337958 0.041870
v 0.260584 0.337958 0.206734
v 0.279486 0.337958 0.134733
v -0.303299 -0.057256 -0.327881
v -0.356577 -0.081900 -0.622099
v -0.646954 -0.083911 -0.569721
v -0.594433 -0.101706 -0.279684
v 0.566929 -0.101710 -0.489983
v 0.514408 -0.083911 -0.780022
v 0.224104 -0.081900 -0.727247
v 0.277380 -0.057256 -0.433031
v -0.066141 -0.076623 -0.674152
v -0.012535 -0.033491 -0.378115
v 0.145311 -0.070872 0.493576
v 0.094151 0.023198 0.211050
v -0.197025 -0.023685 0.259007
v -0.145622 -0.104137 0.542875
v 0.082193 0.032988 0.145020
v 0.041353 0.025518 -0.080513
v -0.249710 -0.015082 -0.031937
v -0.208998 -0.014774 0.192892
v 0.435057 -0.104137 0.437725
v 0.383654 -0.023685 0.153858
v 0.371683 -0.014774 0.087742
v 0.330971 -0.015082 -0.137087
v 0.724216 -0.170423 0.378622
v 0.672380 -0.114275 0.092361
v 0.660389 -0.106379 0.026146
v 0.619869 -0.095918 -0.197622
v -0.488981 -0.114275 0.302662
v -0.437145 -0.170424 0.588923
v -0.541491 -0.095918 0.012678
v -0.500971 -0.106379 0.236444
vt 1.000000 0.175285
vt 1.000000 0.350571
vt 0.824715 0.350571
vt 0.824715 0.175285
vt 0.824715 0.482585
vt 0.649429 0.482585
vt 0.649429 0.000000
vt 0.824715 0.000000
vt 1.000000 0.000000
vt 1.000000 0.175285
vt 0.824715 0.175285
vt 0.824715 0.000000
vt 0.649429 0.482585
vt 0.474144 0.482585
vt 0.474144 0.000000
vt 0.649429 0.000000
vt 0.824715 0.965170
vt 0.649429 0.965170
vt 0.649429 0.482585
vt 0.302458 0.595667
vt 0.453687 0.595667
vt 0.453687 0.747757
vt 0.302458 0.747757
vt 0.528748 0.730324
vt 0.594825 0.730324
vt 0.649429 0.965170
vt 0.474144 0.965170
vt 0.594825 0.579095
vt 0.649429 0.482585
vt 0.528748 0.579095
vt 0.999046 0.350571
vt 0.999046 0.501800
vt 0.932969 0.501800
vt 0.932969 0.350571
vt 0.302458 0.747757
vt 0.453687 0.747757
vt 0.453687 0.899847
vt 0.302458 0.899847
vt 0.085497 0.443577
vt 0.151574 0.443577
vt 0.151574 0.595667
vt 0.085497 0.595667
vt 0.322569 0.443577
vt 0.388646 0.443577
vt 0.388646 0.595667
vt 0.322569 0.595667
vt 0.322569 0.000000
vt 0.388646 0.000000
vt 0.388646 0.335322
vt 0.322569 0.335322
vt 0.085497 0.000000
vt 0.151574 0.000000
vt 0.151574 0.335322
vt 0.085497 0.335322
vt 0.151229 0.595667
vt 0.302458 0.595667
vt 0.302458 0.930989
vt 0.151229 0.930989
vt 0.910212 0.955486
vt 0.910212 0.804257
vt 0.995710 0.804257
vt 0.995710 0.955486
vt 0.000000 0.595667
vt 0.151229 0.595667
vt 0.151229 0.930989
vt 0.000000 0.930989
vt 0.910212 0.653029
vt 0.910212 0.804257
vt 0.824715 0.804257
vt 0.824715 0.653029
vt 0.932969 0.350571
vt 0.932969 0.501800
vt 0.824715 0.501800
vt 0.824715 0.350571
vt 0.932969 0.501800
vt 0.932969 0.653029
vt 0.824715 0.501800
vt 0.237072 0.335322
vt 0.237072 0.443577
vt 0.237072 0.443577
vt 0.237072 0.335322
vt 0.995710 0.653028
vt 0.995710 0.804257
vt 0.910212 0.804257
vt 0.910212 0.653028
vt 0.474144 0.335322
vt 0.474144 0.443577
vt 0.824715 0.955486
vt 0.824715 0.804257
vt 0.910212 0.804257
vt 0.910212 0.955486
vt 0.000000 0.443577
vt 0.000000 0.335322
vt 0.750000 0.750000
vt 1.000000 0.750000
vt 1.000000 1.000000
vt 0.750000 1.000000
vt 0.750000 0.000000
vt 1.000000 0.000000
vt 1.000000 0.250000
vt 0.750000 0.250000
vt 1.000000 0.500000
vt 0.750000 0.500000
vt 0.000000 0.500000
vt 0.250000 0.500000
vt 0.250000 0.750000
vt 0.000000 0.750000
vt 0.375000 0.500000
vt 0.500000 0.500000
vt 0.500000 0.750000
vt 0.375000 0.750000
vt 0.000000 0.250000
vt 0.250000 0.250000
vt 0.375000 0.250000
vt 0.500000 0.250000
vt 0.000000 0.000000
vt 0.250000 0.000000
vt 0.375000 0.000000
vt 0.500000 0.000000
vt 0.250000 1.000000
vt 0.000000 1.000000
vt 0.500000 1.000000
vt 0.375000 1.000000
vn -0.2539 0.0000 0.9672
vn -0.9672 -0.0000 -0.2539
vn 0.2539 -0.0000 -0.9672
vn 0.9672 -0.0000 0.2539
vn -0.0000 -1.0000 0.0000
vn 0.0000 1.0000 -0.0000
vn -0.0792 0.9969 0.0027
vn 0.0751 0.9969 -0.0253
vn 0.0275 0.9925 -0.1190
vn -0.0675 0.9925 -0.1017
vn -0.0794 0.9485 0.3066
vn -0.1484 0.9889 0.0098
vn -0.1328 0.9808 -0.1431
vn 0.1819 0.9485 0.2593
vn 0.1425 0.9889 -0.0429
vn 0.0742 0.9808 -0.1806
vn 0.2914 0.9409 0.1727
vn 0.2803 0.9595 -0.0290
vn 0.1882 0.9755 -0.1136
vn -0.2124 0.9409 0.2639
vn -0.2727 0.9595 0.0711
vn -0.2161 0.9755 -0.0404
vn -0.2704 0.9477 0.1693
vn 0.3126 0.9477 0.0638
vn 0.1807 0.9778 0.1057
vn -0.1322 0.9778 0.1623
usemtl Material.020
s 1
f 1/1/1 2/2/1 3/3/1 4/4/1
f 4/5/2 3/6/2 5/7/2 6/8/2
f 6/9/3 5/10/3 7/11/3 8/12/3
f 8/13/4 7/14/4 2/15/4 1/16/4
f 4/5/5 6/17/5 8/18/5 1/19/5
f 9/20/4 10/21/4 11/22/4 12/23/4
f 13/24/6 14/25/6 3/26/6 2/27/6
f 14/25/6 15/28/6 5/29/6 3/26/6
f 15/28/6 16/30/6 7/14/6 5/29/6
f 16/30/6 13/24/6 2/27/6 7/14/6
f 17/31/6 18/32/6 12/33/6 11/34/6
f 19/35/2 20/36/2 18/37/2 17/38/2
f 10/39/3 19/40/3 17/41/3 11/42/3
f 20/43/1 9/44/1 12/45/1 18/46/1
f 14/47/1 13/48/1 21/49/1 22/50/1
f 22/50/1 21/49/1 9/44/1 20/43/1
f 16/51/3 15/52/3 23/53/3 24/54/3
f 24/54/3 23/53/3 19/40/3 10/39/3
f 15/55/2 14/56/2 22/57/2 23/58/2
f 20/59/6 19/60/6 25/61/6 26/62/6
f 13/63/4 16/64/4 24/65/4 21/66/4
f 10/67/6 9/68/6 27/69/6 28/70/6
f 29/71/2 30/72/2 26/73/2 25/74/2
f 31/75/4 32/76/4 28/70/4 27/77/4
f 19/40/3 23/53/3 29/78/3 25/79/3
f 22/50/1 20/43/1 26/80/1 30/81/1
f 21/82/5 24/83/5 32/84/5 31/85/5
f 9/44/1 21/49/1 31/86/1 27/87/1
f 23/88/5 22/89/5 30/90/5 29/91/5
f 24/54/3 10/39/3 28/92/3 32/93/3
usemtl Material.021
f 33/94/7 34/95/7 35/96/7 36/97/7
f 37/98/8 38/99/8 39/100/8 40/101/8
f 40/101/9 39/100/9 41/102/9 42/103/9
f 42/103/10 41/102/10 34/95/10 33/94/10
f 43/104/11 44/105/11 45/106/11 46/107/11
f 47/108/12 48/109/12 49/110/12 50/111/12
f 48/109/13 42/103/13 33/94/13 49/110/13
f 51/112/14 52/113/14 44/105/14 43/104/14
f 53/114/15 54/115/15 48/109/15 47/108/15
f 54/115/16 40/101/16 42/103/16 48/109/16
f 55/116/17 56/117/17 52/113/17 51/112/17
f 57/118/18 58/119/18 54/115/18 53/114/18
f 58/119/19 37/98/19 40/101/19 54/115/19
f 46/107/20 45/106/20 59/120/20 60/121/20
f 50/111/21 49/110/21 61/122/21 62/123/21
f 49/110/22 33/94/22 36/97/22 61/122/22
f 45/106/23 50/111/23 62/123/23 59/120/23
f 56/117/24 57/118/24 53/114/24 52/113/24
f 52/113/25 53/114/25 47/108/25 44/105/25
f 44/105/26 47/108/26 50/111/26 45/106/26
