# Blender v3.0.1 OBJ File: 'Nivel_1_Iglesia.blend'
# www.blender.org
mtllib Tumba4.mtl
o Plane.004_Plane.003
v -0.020041 -0.003329 -0.419102
v 0.179766 -0.027969 -0.641544
v -0.039608 -0.029980 -0.838865
v -0.236578 -0.047779 -0.619585
v 0.641460 -0.047779 0.169107
v 0.838428 -0.029980 -0.050175
v 0.618784 -0.027969 -0.247196
v 0.418978 -0.003329 -0.024755
v 0.398922 -0.022692 -0.443977
v 0.197880 0.020436 -0.220160
v -0.394096 -0.016944 0.438875
v -0.202229 0.077125 0.225273
v -0.418602 0.030242 0.024609
v -0.611380 -0.050209 0.239225
v -0.157387 0.086915 0.175352
v -0.004227 0.079445 0.004841
v -0.221020 0.038845 -0.195356
v -0.373701 0.039153 -0.025377
v -0.172361 -0.050209 0.633572
v 0.020416 0.030242 0.418957
v 0.065317 0.039153 0.368969
v 0.217999 0.038845 0.198990
v 0.051582 -0.116496 0.825809
v 0.245985 -0.060348 0.609385
v 0.290953 -0.052452 0.559320
v 0.442917 -0.041991 0.390144
v -0.632053 -0.060348 -0.179308
v -0.826454 -0.116496 0.037117
v -0.435123 -0.041991 -0.398548
v -0.587086 -0.052452 -0.229372
v -0.170815 0.468067 0.242567
v -0.179695 0.468067 0.276396
v -0.126841 0.468067 0.290272
v -0.117960 0.468067 0.256443
v -0.298836 0.046111 0.208958
v -0.298836 0.293189 0.208958
v -0.289091 0.360112 0.211517
v -0.261339 0.416847 0.218802
v -0.219805 0.454756 0.229706
v -0.068968 0.454756 0.269304
v -0.027433 0.416847 0.280209
v 0.000317 0.360112 0.287493
v 0.010063 0.293189 0.290052
v 0.010063 0.046111 0.290052
v 0.001181 0.046111 0.323881
v 0.001181 0.293189 0.323881
v -0.008564 0.360112 0.321322
v -0.036316 0.416847 0.314037
v -0.077848 0.454756 0.303133
v -0.228687 0.454756 0.263535
v -0.270220 0.416847 0.252630
v -0.297972 0.360112 0.245346
v -0.307716 0.293189 0.242786
v -0.307716 0.046111 0.242786
vt 0.414520 0.414520
vt 0.329039 0.414520
vt 0.329039 0.329039
vt 0.414520 0.329039
vt 0.414520 0.670961
vt 0.329039 0.670961
vt 0.329039 0.585480
vt 0.414520 0.585480
vt 0.329039 0.500000
vt 0.414520 0.500000
vt 0.670961 0.500000
vt 0.585480 0.500000
vt 0.585480 0.414520
vt 0.670961 0.414520
vt 0.542740 0.500000
vt 0.500000 0.500000
vt 0.500000 0.414520
vt 0.542740 0.414520
vt 0.670961 0.585480
vt 0.585480 0.585480
vt 0.542740 0.585480
vt 0.500000 0.585480
vt 0.670961 0.670961
vt 0.585480 0.670961
vt 0.542740 0.670961
vt 0.500000 0.670961
vt 0.585480 0.329039
vt 0.670961 0.329039
vt 0.500000 0.329039
vt 0.542740 0.329039
vt 0.625000 0.603612
vt 0.875000 0.603612
vt 0.875000 0.646388
vt 0.625000 0.646388
vt 0.375000 0.500000
vt 0.521388 0.500000
vt 0.561039 0.507887
vt 0.594653 0.530347
vt 0.617113 0.563961
vt 0.617113 0.686039
vt 0.594653 0.719653
vt 0.561039 0.742113
vt 0.521388 0.750000
vt 0.375000 0.750000
vt 0.375000 0.000000
vt 0.521388 0.000000
vt 0.561039 0.007887
vt 0.594653 0.030347
vt 0.617113 0.063961
vt 0.625000 0.103612
vt 0.625000 0.146388
vt 0.617113 0.186039
vt 0.594653 0.219653
vt 0.561039 0.242113
vt 0.521388 0.250000
vt 0.375000 0.250000
vt 0.125000 0.500000
vt 0.125000 0.750000
vt 0.625000 0.563961
vt 0.875000 0.563961
vt 0.625000 0.500000
vt 0.875000 0.500000
vt 0.625000 0.250000
vt 0.561039 0.500000
vt 0.561039 0.250000
vt 0.875000 0.686039
vt 0.625000 0.686039
vt 0.875000 0.750000
vt 0.625000 0.750000
vt 0.625000 1.000000
vt 0.561039 1.000000
vt 0.561039 0.750000
vt 0.521388 1.000000
vt 0.375000 1.000000
vn -0.0506 0.9969 -0.0609
vn 0.0660 0.9969 0.0438
vn 0.1109 0.9925 -0.0511
vn 0.0390 0.9925 -0.1157
vn -0.2909 0.9485 0.1252
vn -0.0987 0.9889 -0.1113
vn 0.0317 0.9808 -0.1927
vn -0.0934 0.9485 0.3026
vn 0.1212 0.9889 0.0863
vn 0.1882 0.9808 -0.0521
vn 0.0422 0.9409 0.3361
vn 0.1948 0.9595 0.2037
vn 0.2051 0.9755 0.0791
vn -0.3387 0.9409 -0.0061
vn -0.2233 0.9595 -0.1719
vn -0.1005 0.9755 -0.1955
vn -0.2996 0.9477 -0.1099
vn 0.1413 0.9477 0.2861
vn 0.0273 0.9778 0.2076
vn -0.2093 0.9778 -0.0050
vn 0.0000 1.0000 -0.0000
vn 0.2539 0.0000 -0.9672
vn -0.2539 -0.0000 0.9672
vn -0.0000 -1.0000 0.0000
vn -0.9672 -0.0000 -0.2539
vn -0.2458 0.9672 -0.0645
vn -0.6401 0.7497 -0.1681
vn -0.8631 0.4513 -0.2266
vn -0.9564 0.1489 -0.2511
vn 0.2458 0.9672 0.0645
vn 0.6401 0.7497 0.1681
vn 0.8631 0.4513 0.2266
vn 0.9564 0.1489 0.2511
vn 0.9672 0.0000 0.2539
usemtl Material.020
s 1
f 1/1/1 2/2/1 3/3/1 4/4/1
f 5/5/2 6/6/2 7/7/2 8/8/2
f 8/8/3 7/7/3 9/9/3 10/10/3
f 10/10/4 9/9/4 2/2/4 1/1/4
f 11/11/5 12/12/5 13/13/5 14/14/5
f 15/15/6 16/16/6 17/17/6 18/18/6
f 16/16/7 10/10/7 1/1/7 17/17/7
f 19/19/8 20/20/8 12/12/8 11/11/8
f 21/21/9 22/22/9 16/16/9 15/15/9
f 22/22/10 8/8/10 10/10/10 16/16/10
f 23/23/11 24/24/11 20/20/11 19/19/11
f 25/25/12 26/26/12 22/22/12 21/21/12
f 26/26/13 5/5/13 8/8/13 22/22/13
f 14/14/14 13/13/14 27/27/14 28/28/14
f 18/18/15 17/17/15 29/29/15 30/30/15
f 17/17/16 1/1/16 4/4/16 29/29/16
f 13/13/17 18/18/17 30/30/17 27/27/17
f 24/24/18 25/25/18 21/21/18 20/20/18
f 20/20/19 21/21/19 15/15/19 12/12/19
f 12/12/20 15/15/20 18/18/20 13/13/20
usemtl Material.021
f 31/31/21 32/32/21 33/33/21 34/34/21
f 35/35/22 36/36/22 37/37/22 38/38/22 39/39/22 31/31/22 34/34/22 40/40/22 41/41/22 42/42/22 43/43/22 44/44/22
f 45/45/23 46/46/23 47/47/23 48/48/23 49/49/23 33/50/23 32/51/23 50/52/23 51/53/23 52/54/23 53/55/23 54/56/23
f 54/57/24 35/35/24 44/44/24 45/58/24
f 54/56/25 53/55/25 36/36/25 35/35/25
f 32/32/26 31/31/26 39/59/26 50/60/26
f 50/60/27 39/59/27 38/61/27 51/62/27
f 51/63/28 38/61/28 37/64/28 52/65/28
f 52/65/29 37/64/29 36/36/29 53/55/29
f 34/34/30 33/33/30 49/66/30 40/67/30
f 40/67/31 49/66/31 48/68/31 41/69/31
f 41/69/32 48/70/32 47/71/32 42/72/32
f 42/72/33 47/71/33 46/73/33 43/43/33
f 44/44/34 43/43/34 46/73/34 45/74/34
