# Blender 3.1.0
# www.blender.org
mtllib Valla_tablones.mtl
o Valla.626
v -0.032656 0.174135 0.103748
v -0.032656 0.174135 0.264657
v -0.033195 0.522520 0.264657
v -0.033195 0.522520 0.103748
v -0.033735 0.870904 0.255408
v -0.033735 0.870904 0.094499
v 0.031036 0.871007 0.094499
v 0.031576 0.522619 0.103748
v 0.032116 0.174234 0.103748
v 0.031576 0.522619 0.264657
v 0.032116 0.174234 0.264657
v 0.031036 0.871007 0.255408
v 0.032656 -0.174151 0.259330
v 0.032656 -0.174151 0.098421
v -0.032116 -0.174254 0.098421
v -0.032116 -0.174254 0.259330
v -0.031576 -0.522639 0.264657
v 0.033196 -0.522539 0.264657
v -0.031576 -0.522639 0.103747
v -0.031036 -0.871023 0.260782
v 0.033735 -0.870924 0.260782
v -0.031036 -0.871023 0.099873
v 0.033196 -0.522539 0.103747
v 0.033735 -0.870924 0.099873
v -0.032656 0.174135 -0.261225
v -0.032656 0.174135 -0.100316
v -0.033195 0.522520 -0.085366
v -0.033195 0.522520 -0.246274
v -0.033735 0.870904 -0.085098
v -0.033735 0.870904 -0.246007
v 0.031036 0.871007 -0.246007
v 0.031576 0.522619 -0.246274
v 0.032116 0.174234 -0.261225
v 0.031036 0.871007 -0.085098
v 0.031576 0.522619 -0.085366
v 0.032116 0.174234 -0.100316
v 0.032656 -0.174151 -0.105109
v 0.032656 -0.174151 -0.266018
v -0.032116 -0.174254 -0.266018
v -0.032116 -0.174254 -0.105109
v -0.031576 -0.522639 -0.115610
v 0.033196 -0.522539 -0.115610
v -0.031576 -0.522639 -0.276519
v -0.031036 -0.871023 -0.114969
v 0.033735 -0.870924 -0.114969
v -0.031036 -0.871023 -0.275878
v 0.033735 -0.870924 -0.275878
v 0.033196 -0.522539 -0.276519
vn -1.0000 -0.0015 -0.0000
vn -1.0000 -0.0016 -0.0000
vn -0.0000 -0.0265 -0.9996
vn -0.0000 -0.0000 -1.0000
vn 1.0000 0.0015 -0.0000
vn 1.0000 0.0016 -0.0000
vn -0.0016 1.0000 -0.0000
vn -0.0000 0.0265 0.9996
vn -0.0000 0.0153 -0.9999
vn -0.0000 -0.0000 1.0000
vn -0.0000 -0.0153 0.9999
vn -0.0000 0.0153 0.9999
vn -0.0000 -0.0111 0.9999
vn -0.0000 0.0111 -0.9999
vn -0.0000 -0.0153 -0.9999
vn 0.0015 -1.0000 -0.0000
vn -0.0000 0.0008 -1.0000
vn -0.0001 0.0429 -0.9991
vn -0.0000 0.0138 -0.9999
vn 0.0001 -0.0429 0.9991
vn -0.0000 -0.0138 0.9999
vn -0.0000 -0.0301 0.9995
vn -0.0000 0.0018 1.0000
vn -0.0000 -0.0018 -1.0000
vn -0.0000 0.0301 -0.9995
vn -0.0000 -0.0008 1.0000
vt 0.000000 0.486369
vt 0.466667 0.019161
vt 0.666667 0.486369
vt 0.466667 0.352494
vt 0.400000 0.352494
vt 0.666667 0.419736
vt 0.400000 0.019161
vt 0.000000 0.419736
vt 0.333333 0.333333
vt 1.000000 0.666667
vt 0.666667 0.352494
vt 0.333333 0.000000
vt 0.000000 0.352494
vt 1.000000 0.333333
vt 0.333333 0.352494
vt 0.333333 0.000000
vt 0.666667 0.333333
vt 0.333333 0.419736
vt 0.266667 0.019161
vt 0.200000 0.019161
vt 0.333333 0.486369
vt 0.266667 0.352494
vt 0.333333 0.419736
vt 0.200000 0.352494
vt 0.333333 0.486369
vt 0.333333 0.333333
vt 0.666667 0.666667
vt 0.333333 0.352494
vt 0.333333 0.552651
vt 0.133333 0.341460
vt 0.333333 0.552651
vt 0.133333 0.008126
vt 0.533333 0.008126
vt 0.000000 0.552651
vt 0.666667 0.552651
vt 0.533333 0.341460
vt 0.666667 0.619635
vt 0.600000 0.352494
vt 0.333333 0.619635
vt 0.066667 0.352494
vt 0.600000 0.019161
vt 0.000000 0.619635
vt 0.666667 0.686013
vt 0.666667 0.344468
vt 0.666667 0.333333
vt 0.333333 0.686013
vt 0.000000 0.344468
vt 1.000000 0.333333
vt 0.666667 0.011134
vt 0.000000 0.686013
vt 0.666667 0.000000
vt 0.333333 0.619635
vt 0.066667 0.019161
vt 0.333333 0.686013
vt 0.000000 0.011134
vt 1.000000 0.000000
vt 0.994344 0.201076
vt 0.530317 0.362793
vt 0.000000 0.595374
vt 0.530317 0.031345
vt 0.596607 0.000552
vt 0.000000 0.666052
vt 0.596607 0.332000
vt 0.994344 0.271753
vt 0.662896 0.000000
vt 0.000000 0.731402
vt 0.994344 0.668552
vt 0.662896 0.331448
vt 0.994344 0.337104
vt 0.331448 0.062850
vt 0.662896 0.337104
vt 0.662896 0.271753
vt 0.265159 0.062299
vt 0.198869 0.031505
vt 0.662896 0.201076
vt 0.331448 0.394298
vt 0.331448 0.731402
vt 0.662896 0.668552
vt 0.265159 0.393747
vt 0.331448 0.666052
vt 0.198869 0.362953
vt 0.331448 0.595374
vt 0.331448 0.528382
vt 0.132579 0.353079
vt 0.132579 0.021631
vt 0.662896 0.134084
vt 0.464027 0.372668
vt 0.994344 0.134084
vt 0.000000 0.528382
vt 0.464027 0.041220
vt 0.000000 0.459319
vt 0.397738 0.062850
vt 0.331448 0.459319
vt 0.066290 0.331448
vt 0.397738 0.394298
vt 0.994344 0.065020
vt 0.000000 0.394298
vt 0.331448 0.061528
vt 0.662896 1.000000
vt 0.331448 0.394298
vt 0.994344 1.000000
vt 0.000000 0.332770
vt 0.331448 0.392977
vt 0.662896 0.668552
vt 0.994344 0.000000
vt 0.994344 0.668552
vt 0.662896 0.000000
vt 0.000000 0.001322
vt 0.066290 0.000000
vt 0.662896 0.065020
s 1
usemtl None.004
f 1/2/1 2/4/1 3/5/1 4/7/1
f 4/7/1 3/5/1 5/9/2 6/12/2
f 6/13/3 7/15/3 8/18/3 4/8/3
f 4/8/4 8/18/4 9/21/4 1/1/4
f 8/19/5 10/22/5 11/24/6 9/20/6
f 7/16/5 12/26/5 10/22/5 8/19/5
f 6/14/7 5/10/7 12/27/7 7/17/7
f 12/28/8 5/11/8 3/6/8 10/23/8
f 9/20/6 11/24/6 13/30/5 14/32/5
f 1/1/9 9/21/9 14/31/9 15/34/9
f 10/23/10 3/6/10 2/3/10 11/25/10
f 11/25/11 2/3/11 16/35/11 13/29/11
f 15/33/1 16/36/1 2/4/1 1/2/1
f 13/29/12 16/35/12 17/37/12 18/39/12
f 19/41/2 17/38/2 16/36/1 15/33/1
f 18/39/13 17/37/13 20/43/13 21/46/13
f 22/49/2 20/44/2 17/38/2 19/41/2
f 19/42/14 23/52/14 24/54/14 22/50/14
f 15/34/15 14/31/15 23/52/15 19/42/15
f 14/32/5 13/30/5 18/40/5 23/53/5
f 23/53/5 18/40/5 21/47/5 24/55/5
f 24/56/16 21/48/16 20/45/16 22/51/16
f 25/58/1 26/60/1 27/61/1 28/63/1
f 28/63/1 27/61/1 29/65/2 30/68/2
f 30/69/17 31/71/17 32/72/17 28/64/17
f 28/64/18 32/72/18 33/75/18 25/57/18
f 31/70/5 34/76/5 35/79/5 32/73/6
f 32/73/6 35/79/5 36/81/6 33/74/6
f 33/74/6 36/81/6 37/84/5 38/85/5
f 25/57/19 33/75/19 38/86/19 39/88/19
f 35/80/20 27/62/20 26/59/20 36/82/20
f 36/82/21 26/59/21 40/89/21 37/83/21
f 39/87/1 40/90/1 26/60/1 25/58/1
f 37/83/22 40/89/22 41/91/22 42/93/22
f 43/95/2 41/92/2 40/90/1 39/87/1
f 42/93/23 41/91/23 44/97/23 45/100/23
f 46/103/2 44/98/2 41/92/2 43/95/2
f 47/106/16 45/101/16 44/99/16 46/104/16
f 43/96/24 48/110/24 47/107/24 46/105/24
f 48/109/5 42/94/5 45/102/5 47/108/5
f 38/85/5 37/84/5 42/94/5 48/109/5
f 39/88/25 38/86/25 48/110/25 43/96/25
f 34/77/26 29/66/26 27/62/26 35/80/26
f 30/69/7 29/67/7 34/78/7 31/71/7
