# Blender v3.1.2 OBJ File: ''
# www.blender.org
mtllib Caja.mtl
o Cube.071_Cube.124
v -0.388457 -0.440192 -0.388457
v 0.388457 -0.440192 -0.388457
v 0.369661 -0.440192 -0.369661
v -0.369661 -0.440192 -0.369661
v 0.440192 -0.388457 0.388457
v 0.440192 -0.388457 -0.388457
v 0.418893 -0.388457 -0.369661
v 0.418893 -0.388457 0.369661
v -0.440192 0.388457 0.388457
v -0.440192 0.388457 -0.388457
v -0.418893 0.388457 -0.369661
v -0.418893 0.388457 0.369661
v 0.388457 -0.388457 0.440192
v 0.388457 0.388457 0.440192
v 0.369661 0.388457 0.418892
v 0.369661 -0.388457 0.418892
v 0.388457 -0.388457 -0.440192
v -0.388457 -0.388457 -0.440192
v -0.369661 -0.388457 -0.418893
v 0.369661 -0.388457 -0.418893
v 0.440192 0.388457 -0.388457
v 0.418893 0.388457 -0.369661
v -0.440192 -0.440192 0.440192
v -0.440192 0.440192 0.440192
v -0.440192 -0.388457 0.388457
v -0.440192 0.440192 -0.440192
v -0.440192 -0.440192 -0.440192
v -0.440192 -0.388457 -0.388457
v -0.388457 0.388457 -0.440192
v 0.440192 0.440192 -0.440192
v 0.388457 0.388457 -0.440192
v 0.440192 -0.440192 -0.440192
v 0.440192 0.440192 0.440192
v 0.440192 0.388457 0.388457
v 0.440192 -0.440192 0.440192
v -0.388457 0.388457 0.440192
v -0.388457 -0.388457 0.440192
v 0.388457 -0.440192 0.388457
v -0.388457 -0.440192 0.388457
v -0.388457 0.440192 -0.388457
v 0.388457 0.440192 -0.388457
v -0.388457 0.440192 0.388457
v 0.388457 0.440192 0.388457
v -0.418893 -0.388457 0.369661
v -0.418893 -0.388457 -0.369661
v -0.369661 0.388457 -0.418893
v 0.369661 0.388457 -0.418893
v 0.418893 0.388457 0.369661
v -0.369661 0.388457 0.418892
v -0.369661 -0.388457 0.418892
v 0.369661 -0.440192 0.369661
v -0.369661 -0.440192 0.369661
v 0.369661 0.440192 -0.369661
v -0.369661 0.440192 -0.369661
v -0.369661 0.440192 0.369661
v 0.369661 0.440192 0.369661
vt 0.028944 0.514340
vt 0.244285 0.514340
vt 0.244285 0.514340
vt 0.028944 0.514340
vt 0.272964 0.729681
vt 0.272964 0.514340
vt 0.272964 0.514340
vt 0.272964 0.729681
vt 0.488305 0.026299
vt 0.488306 0.241640
vt 0.488306 0.241640
vt 0.488305 0.026299
vt 0.272964 0.758360
vt 0.488305 0.758360
vt 0.488305 0.758360
vt 0.272964 0.758360
vt 0.272964 0.485660
vt 0.272964 0.270319
vt 0.272964 0.270319
vt 0.272964 0.485660
vt 0.488305 0.514340
vt 0.488305 0.514340
vt 0.258625 0.011959
vt 0.502645 0.011959
vt 0.272964 0.026299
vt 0.502645 0.255980
vt 0.258625 0.255980
vt 0.272964 0.241640
vt 0.488305 0.270319
vt 0.502645 0.500000
vt 0.488306 0.485660
vt 0.258625 0.500000
vt 0.502645 0.744020
vt 0.488306 0.729681
vt 0.258625 0.744020
vt 0.502645 0.988041
vt 0.488306 0.973701
vt 0.258625 0.988041
vt 0.272964 0.973701
vt 0.014604 0.500000
vt 0.244285 0.729681
vt 0.014604 0.744020
vt 0.028944 0.729681
vt 0.746666 0.500000
vt 0.732326 0.514340
vt 0.516985 0.514340
vt 0.746666 0.744020
vt 0.732326 0.729681
vt 0.516985 0.729681
vt 0.272964 0.026299
vt 0.272964 0.241640
vt 0.488305 0.270319
vt 0.488306 0.485660
vt 0.488306 0.729681
vt 0.488306 0.973701
vt 0.272964 0.973701
vt 0.244285 0.729681
vt 0.028944 0.729681
vt 0.516985 0.514340
vt 0.732326 0.514340
vt 0.732326 0.729681
vt 0.516985 0.729681
vn 0.0000 -1.0000 0.0000
vn 0.0000 1.0000 0.0000
vn -0.7498 -0.0000 0.6617
vn 0.6617 -0.0000 0.7498
vn -1.0000 0.0000 0.0000
vn 0.0000 0.0000 -1.0000
vn 1.0000 0.0000 0.0000
vn 0.0000 -0.0000 1.0000
vn -0.6617 -0.0000 0.7498
vn -0.7498 0.0000 -0.6617
vn 0.6617 0.0000 -0.7498
vn 0.7498 -0.0000 0.6617
vn -0.6617 0.0000 -0.7498
vn 0.7498 0.0000 -0.6617
usemtl Caja
s 1
f 1/1/1 2/2/1 3/3/1 4/4/1
f 5/5/2 6/6/2 7/7/2 8/8/2
f 9/9/1 10/10/1 11/11/1 12/12/1
f 13/13/3 14/14/3 15/15/3 16/16/3
f 17/17/2 18/18/2 19/19/2 20/20/2
f 6/6/4 21/21/4 22/22/4 7/7/4
f 23/23/5 24/24/5 9/9/5 25/25/5
f 24/24/5 26/26/5 10/10/5 9/9/5
f 26/26/5 27/27/5 28/28/5 10/10/5
f 27/27/5 23/23/5 25/25/5 28/28/5
f 27/27/6 26/26/6 29/29/6 18/18/6
f 26/26/6 30/30/6 31/31/6 29/29/6
f 30/30/6 32/32/6 17/17/6 31/31/6
f 32/32/6 27/27/6 18/18/6 17/17/6
f 32/32/7 30/30/7 21/21/7 6/6/7
f 30/30/7 33/33/7 34/34/7 21/21/7
f 33/33/7 35/35/7 5/5/7 34/34/7
f 35/35/7 32/32/7 6/6/7 5/5/7
f 35/35/8 33/33/8 14/14/8 13/13/8
f 33/33/8 24/36/8 36/37/8 14/14/8
f 24/36/8 23/38/8 37/39/8 36/37/8
f 23/38/8 35/35/8 13/13/8 37/39/8
f 27/40/1 32/32/1 2/2/1 1/1/1
f 32/32/1 35/35/1 38/41/1 2/2/1
f 35/35/1 23/42/1 39/43/1 38/41/1
f 23/42/1 27/40/1 1/1/1 39/43/1
f 30/30/2 26/44/2 40/45/2 41/46/2
f 26/44/2 24/47/2 42/48/2 40/45/2
f 24/47/2 33/33/2 43/49/2 42/48/2
f 33/33/2 30/30/2 41/46/2 43/49/2
f 44/50/5 12/12/5 11/11/5 45/51/5
f 19/19/6 46/52/6 47/53/6 20/20/6
f 7/7/7 22/22/7 48/54/7 8/8/7
f 16/16/8 15/15/8 49/55/8 50/56/8
f 4/4/1 3/3/1 51/57/1 52/58/1
f 53/59/2 54/60/2 55/61/2 56/62/2
f 29/29/1 31/31/1 47/53/1 46/52/1
f 37/39/2 13/13/2 16/16/2 50/56/2
f 41/46/2 40/45/2 54/60/2 53/59/2
f 10/10/9 28/28/9 45/51/9 11/11/9
f 21/21/1 34/34/1 48/54/1 22/22/1
f 39/43/1 1/1/1 4/4/1 52/58/1
f 31/31/10 17/17/10 20/20/10 47/53/10
f 14/14/1 36/37/1 49/55/1 15/15/1
f 43/49/2 41/46/2 53/59/2 56/62/2
f 34/34/11 5/5/11 8/8/11 48/54/11
f 2/2/1 38/41/1 51/57/1 3/3/1
f 36/37/12 37/39/12 50/56/12 49/55/12
f 40/45/2 42/48/2 55/61/2 54/60/2
f 38/41/1 39/43/1 52/58/1 51/57/1
f 42/48/2 43/49/2 56/62/2 55/61/2
f 25/25/13 9/9/13 12/12/13 44/50/13
f 18/18/14 29/29/14 46/52/14 19/19/14
f 28/28/2 25/25/2 44/50/2 45/51/2
o Cube.070_Cube.125
v 0.439988 -0.410634 0.369652
v 0.439988 0.371717 -0.412699
v 0.439988 0.413482 -0.370934
v 0.439988 -0.368869 0.411416
v 0.422154 0.371717 -0.412699
v 0.422154 0.413482 -0.370934
v 0.422154 -0.410634 0.369652
v 0.422154 -0.368869 0.411416
vt 0.714756 0.015003
vt 0.714756 0.152863
vt 0.852616 0.152863
vt 0.852616 0.015003
vt 0.714756 0.290724
vt 0.852616 0.290724
vt 0.714756 0.428584
vt 0.852616 0.428584
vt 0.714756 0.492034
vt 0.852616 0.492034
vt 0.576896 0.290724
vt 0.576896 0.428584
vt 0.990476 0.428584
vt 0.990476 0.290724
vn 1.0000 0.0000 0.0000
vn 0.0000 0.7071 -0.7071
vn -1.0000 0.0000 0.0000
vn 0.0000 -0.7071 0.7071
vn 0.0000 -0.7071 -0.7071
vn 0.0000 0.7071 0.7071
usemtl Caja
s 1
f 57/63/15 58/64/15 59/65/15 60/66/15
f 58/64/16 61/67/16 62/68/16 59/65/16
f 61/67/17 63/69/17 64/70/17 62/68/17
f 63/69/18 57/71/18 60/72/18 64/70/18
f 58/73/19 57/74/19 63/69/19 61/67/19
f 62/68/20 64/70/20 60/75/20 59/76/20
o Cube.072_Cube.126
v 0.349994 -0.410633 0.421516
v -0.432356 0.371718 0.421516
v -0.390592 0.413483 0.421516
v 0.391759 -0.368868 0.421516
v -0.432356 0.371718 0.439350
v -0.390592 0.413483 0.439350
v 0.349994 -0.410633 0.439350
v 0.391759 -0.368868 0.439350
vt 0.714756 0.015003
vt 0.714756 0.152863
vt 0.852616 0.152863
vt 0.852616 0.015003
vt 0.714756 0.290724
vt 0.852616 0.290724
vt 0.714756 0.428584
vt 0.852616 0.428584
vt 0.714756 0.492034
vt 0.852616 0.492034
vt 0.576896 0.290724
vt 0.576896 0.428584
vt 0.990476 0.428584
vt 0.990476 0.290724
vn 0.0000 0.0000 -1.0000
vn -0.7071 0.7071 0.0000
vn 0.0000 -0.0000 1.0000
vn 0.7071 -0.7071 0.0000
vn -0.7071 -0.7071 0.0000
vn 0.7071 0.7071 0.0000
usemtl Caja
s 1
f 65/77/21 66/78/21 67/79/21 68/80/21
f 66/78/22 69/81/22 70/82/22 67/79/22
f 69/81/23 71/83/23 72/84/23 70/82/23
f 71/83/24 65/85/24 68/86/24 72/84/24
f 66/87/25 65/88/25 71/83/25 69/81/25
f 70/82/26 72/84/26 68/89/26 67/90/26
o Cube.073_Cube.127
v 0.349994 -0.410633 -0.430084
v -0.432356 0.371718 -0.430084
v -0.390592 0.413483 -0.430084
v 0.391759 -0.368868 -0.430084
v -0.432356 0.371718 -0.412251
v -0.390592 0.413483 -0.412251
v 0.349994 -0.410633 -0.412251
v 0.391759 -0.368868 -0.412251
vt 0.714756 0.015003
vt 0.714756 0.152863
vt 0.852616 0.152863
vt 0.852616 0.015003
vt 0.714756 0.290724
vt 0.852616 0.290724
vt 0.714756 0.428584
vt 0.852616 0.428584
vt 0.714756 0.492034
vt 0.852616 0.492034
vt 0.576896 0.290724
vt 0.576896 0.428584
vt 0.990476 0.428584
vt 0.990476 0.290724
vn 0.0000 0.0000 -1.0000
vn -0.7071 0.7071 0.0000
vn 0.0000 -0.0000 1.0000
vn 0.7071 -0.7071 0.0000
vn -0.7071 -0.7071 0.0000
vn 0.7071 0.7071 0.0000
usemtl Caja
s 1
f 73/91/27 74/92/27 75/93/27 76/94/27
f 74/92/28 77/95/28 78/96/28 75/93/28
f 77/95/29 79/97/29 80/98/29 78/96/29
f 79/97/30 73/99/30 76/100/30 80/98/30
f 74/101/31 73/102/31 79/97/31 77/95/31
f 78/96/32 80/98/32 76/103/32 75/104/32
o Cube.074_Cube.128
v -0.424451 -0.410634 0.369652
v -0.424451 0.371717 -0.412699
v -0.424451 0.413482 -0.370934
v -0.424451 -0.368869 0.411416
v -0.442285 0.371717 -0.412699
v -0.442285 0.413482 -0.370934
v -0.442285 -0.410634 0.369652
v -0.442285 -0.368869 0.411416
vt 0.714756 0.015003
vt 0.714756 0.152863
vt 0.852616 0.152863
vt 0.852616 0.015003
vt 0.714756 0.290724
vt 0.852616 0.290724
vt 0.714756 0.428584
vt 0.852616 0.428584
vt 0.714756 0.492034
vt 0.852616 0.492034
vt 0.576896 0.290724
vt 0.576896 0.428584
vt 0.990476 0.428584
vt 0.990476 0.290724
vn 1.0000 0.0000 0.0000
vn 0.0000 0.7071 -0.7071
vn -1.0000 0.0000 0.0000
vn 0.0000 -0.7071 0.7071
vn 0.0000 -0.7071 -0.7071
vn 0.0000 0.7071 0.7071
usemtl Caja
s 1
f 81/105/33 82/106/33 83/107/33 84/108/33
f 82/106/34 85/109/34 86/110/34 83/107/34
f 85/109/35 87/111/35 88/112/35 86/110/35
f 87/111/36 81/113/36 84/114/36 88/112/36
f 82/115/37 81/116/37 87/111/37 85/109/37
f 86/110/38 88/112/38 84/117/38 83/118/38
