# Blender v3.1.2 OBJ File: ''
# www.blender.org
mtllib banco_trabajo.mtl
o Cube.017_Cube.062
v -1.000000 -0.126983 3.265712
v -1.000000 0.126981 3.265712
v -1.000000 0.126983 -3.265709
v -1.000000 -0.126981 -3.265709
v 1.000000 0.126983 -3.265709
v 1.000000 -0.126981 -3.265709
v 1.000000 0.126981 3.265712
v 1.000000 -0.126983 3.265712
vt -1.173253 0.840310
vt -1.173253 0.605002
vt -0.338580 0.605002
vt -0.338580 0.840310
vt 0.496094 0.605002
vt 0.496094 0.840310
vt 1.330767 0.605002
vt 1.330767 0.840310
vt 2.165440 0.605002
vt 2.165440 0.840310
vt 0.480239 0.615237
vt 1.314912 0.615237
vt 0.496094 0.839015
vt 1.330767 0.839015
vn -1.0000 0.0000 0.0000
vn 0.0000 0.0000 -1.0000
vn 1.0000 0.0000 0.0000
vn 0.0000 0.0000 1.0000
vn 0.0000 -1.0000 -0.0000
vn 0.0000 1.0000 0.0000
usemtl Tronco
s 1
f 1/1/1 2/2/1 3/3/1 4/4/1
f 4/4/2 3/3/2 5/5/2 6/6/2
f 6/6/3 5/5/3 7/7/3 8/8/3
f 8/8/4 7/7/4 2/9/4 1/10/4
f 4/11/5 6/6/5 8/8/5 1/12/5
f 5/5/6 3/13/6 2/14/6 7/7/6
o Cube.022_Cube.278
v 0.684991 -1.202612 2.299114
v -0.462097 0.029459 2.299114
v -0.462096 0.029459 2.160664
v 0.684991 -1.202612 2.160664
v -0.355482 0.117786 2.160664
v 0.791606 -1.114285 2.160664
v -0.355482 0.117786 2.299114
v 0.791606 -1.114285 2.299114
vt -0.470337 0.878906
vt -0.470337 0.628906
vt 0.014832 0.628906
vt 0.014832 0.878906
vt 0.500000 0.628906
vt 0.500000 0.878906
vt 0.985168 0.628906
vt 0.985168 0.878906
vt 1.470337 0.628906
vt 1.470337 0.878906
vt 0.507581 0.675781
vt 0.992749 0.675781
vt 0.500000 0.839844
vt 0.985168 0.839844
vn -0.7319 -0.6814 -0.0000
vn 0.0000 0.0000 -1.0000
vn 0.7319 0.6814 0.0000
vn 0.0000 -0.0000 1.0000
vn 0.6380 -0.7701 0.0000
vn -0.6380 0.7701 -0.0000
usemtl Tronco
s 1
f 9/15/7 10/16/7 11/17/7 12/18/7
f 12/18/8 11/17/8 13/19/8 14/20/8
f 14/20/9 13/19/9 15/21/9 16/22/9
f 16/22/10 15/21/10 10/23/10 9/24/10
f 12/25/11 14/20/11 16/22/11 9/26/11
f 13/19/12 11/27/12 10/28/12 15/21/12
o Cube.109_Cube.279
v 0.684992 -1.202613 -2.131498
v -0.462096 0.029458 -2.131498
v -0.462096 0.029458 -2.269948
v 0.684992 -1.202613 -2.269948
v -0.355481 0.117785 -2.269948
v 0.791607 -1.114285 -2.269948
v -0.355481 0.117785 -2.131498
v 0.791607 -1.114285 -2.131498
vt -0.470337 0.878906
vt -0.470337 0.628906
vt 0.014832 0.628906
vt 0.014832 0.878906
vt 0.500000 0.628906
vt 0.500000 0.878906
vt 0.985168 0.628906
vt 0.985168 0.878906
vt 1.470337 0.628906
vt 1.470337 0.878906
vt 0.507581 0.675781
vt 0.992749 0.675781
vt 0.500000 0.839844
vt 0.985168 0.839844
vn -0.7319 -0.6814 0.0000
vn 0.0000 0.0000 -1.0000
vn 0.7319 0.6814 0.0000
vn 0.0000 -0.0000 1.0000
vn 0.6380 -0.7701 0.0000
vn -0.6380 0.7701 0.0000
usemtl Tronco
s 1
f 17/29/13 18/30/13 19/31/13 20/32/13
f 20/32/14 19/31/14 21/33/14 22/34/14
f 22/34/15 21/33/15 23/35/15 24/36/15
f 24/36/16 23/35/16 18/37/16 17/38/16
f 20/39/17 22/34/17 24/36/17 17/40/17
f 21/33/18 19/41/18 18/42/18 23/35/18
o Cube.136_Cube.280
v 0.525628 0.134811 3.180229
v 0.525628 3.027833 3.180229
v 0.525628 2.962178 3.042969
v 0.525628 0.200469 3.042969
v 0.525628 0.134812 -2.867889
v 0.525628 3.027834 -2.867888
v 0.894698 3.027834 -2.867888
v 0.894698 0.134812 -2.867889
v 0.894698 3.027833 3.180229
v 0.894698 0.134811 3.180229
v 0.525628 0.200469 -2.730629
v 0.696397 0.200469 3.042969
v 0.696397 0.200469 -2.730629
v 0.525628 2.962178 -2.730628
v 0.696397 2.962178 -2.730628
v 0.696397 2.962178 3.042969
vt 0.000002 0.636712
vt -0.000002 0.886712
vt -0.000002 0.886712
vt 0.000002 0.636712
vt 0.750002 0.636722
vt 0.749998 0.886722
vt 0.499998 0.886719
vt 0.500002 0.636719
vt 0.249998 0.886715
vt 0.250002 0.636715
vt 0.500005 0.875000
vt 0.250005 0.874997
vt 0.499995 0.675781
vt 0.249995 0.675778
vt 0.500005 0.875000
vt 0.250005 0.874997
vt 0.250005 0.874997
vt 0.500005 0.875000
vt 0.499995 0.675781
vt 0.249995 0.675778
vt 0.750002 0.636722
vt 0.749998 0.886722
vt 0.750002 0.636722
vt 0.749998 0.886722
vt -0.000002 0.886712
vt 0.000002 0.636712
vt 0.499995 0.675781
vt 0.249995 0.675778
vt 0.487277 0.765286
vt 0.487274 0.976914
vt 0.270536 0.976911
vt 0.270539 0.765283
vn -1.0000 -0.0000 0.0000
vn 0.0000 0.0000 -1.0000
vn 1.0000 -0.0000 0.0000
vn 0.0000 -0.0000 1.0000
vn 0.0000 -1.0000 -0.0000
vn 0.0000 1.0000 0.0000
usemtl Tronco
s 1
f 25/43/19 26/44/19 27/45/19 28/46/19
f 29/47/20 30/48/20 31/49/20 32/50/20
f 32/50/21 31/49/21 33/51/21 34/52/21
f 34/52/22 33/51/22 26/44/22 25/43/22
f 29/53/23 32/50/23 34/52/23 25/54/23
f 31/49/24 30/55/24 26/56/24 33/51/24
f 35/57/24 28/58/24 36/59/24 37/60/24
f 26/56/19 30/55/19 38/61/19 27/62/19
f 29/53/19 25/54/19 28/58/19 35/57/19
f 30/48/19 29/47/19 35/63/19 38/64/19
f 38/64/22 35/63/22 37/65/22 39/66/22
f 28/46/20 27/45/20 40/67/20 36/68/20
f 27/62/23 38/61/23 39/69/23 40/70/23
usemtl Caja
f 36/71/19 40/72/19 39/73/19 37/74/19
o Cube.215_Cube.281
v 0.567595 1.787118 -1.861704
v 0.567595 1.911133 -1.861704
v 0.567595 1.911133 -1.884280
v 0.567595 1.787118 -1.884280
v 0.691611 1.911133 -1.884280
v 0.691611 1.787118 -1.884280
v 0.691611 1.787118 -1.782847
v 0.691611 1.911133 -1.782847
v 0.691611 1.911133 -1.760264
v 0.691611 1.787118 -1.760264
v 0.567595 1.911133 -1.760264
v 0.567595 1.787118 -1.760264
v 0.567595 1.787118 -1.782847
v 0.567595 1.911133 -1.782847
v 0.691611 1.911133 -1.861704
v 0.691611 1.911133 -1.803249
v 0.646771 1.911133 -1.803249
v 0.691611 1.787118 -1.861704
v 0.646771 1.787118 -1.803249
v 0.691611 1.787118 -1.803249
v 0.646771 1.787118 -1.841307
v 0.646771 1.911133 -1.841307
v 0.691611 1.911133 -1.841307
v 0.691611 1.787118 -1.841307
vt 0.375000 0.166667
vt 0.625000 0.166667
vt 0.625000 0.250000
vt 0.375000 0.250000
vt 0.625000 0.500000
vt 0.375000 0.500000
vt 0.375000 0.666667
vt 0.625000 0.666667
vt 0.625000 0.750000
vt 0.375000 0.750000
vt 0.625000 1.000000
vt 0.375000 1.000000
vt 0.125000 0.666667
vt 0.125000 0.750000
vt 0.875000 0.666667
vt 0.875000 0.750000
vt 0.875000 0.500000
vt 0.875000 0.583333
vt 0.625000 0.583333
vt 0.625000 0.638889
vt 0.875000 0.638889
vt 0.125000 0.500000
vt 0.375000 0.583333
vt 0.125000 0.583333
vt 0.125000 0.638889
vt 0.375000 0.638889
vt 0.375000 0.000000
vt 0.625000 0.000000
vt 0.625000 0.083333
vt 0.375000 0.083333
vt 0.375000 0.138889
vt 0.625000 0.138889
vt 0.625000 0.111111
vt 0.375000 0.111111
vt 0.625000 0.611111
vt 0.375000 0.611111
vt 0.125000 0.611111
vt 0.875000 0.611111
vn -1.0000 -0.0000 0.0000
vn 0.0000 0.0000 -1.0000
vn 1.0000 -0.0000 0.0000
vn 0.0000 -0.0000 1.0000
vn 0.0000 -1.0000 0.0000
vn 0.0000 1.0000 0.0000
vn -0.2495 -0.0000 0.9684
vn -0.2495 0.0000 -0.9684
usemtl Granero_Puerta1
s 1
f 41/75/25 42/76/25 43/77/25 44/78/25
f 44/78/26 43/77/26 45/79/26 46/80/26
f 47/81/27 48/82/27 49/83/27 50/84/27
f 50/84/28 49/83/28 51/85/28 52/86/28
f 53/87/29 47/81/29 50/84/29 52/88/29
f 48/82/30 54/89/30 51/90/30 49/83/30
f 45/79/30 43/91/30 42/92/30 55/93/30
f 56/94/30 57/95/30 54/89/30 48/82/30
f 44/96/29 46/80/29 58/97/29 41/98/29
f 59/99/29 60/100/29 47/81/29 53/87/29
f 46/80/27 45/79/27 55/93/27 58/97/27
f 60/100/27 56/94/27 48/82/27 47/81/27
f 52/101/25 51/102/25 54/103/25 53/104/25
f 61/105/31 62/106/31 42/76/31 41/75/31
f 53/104/32 54/103/32 57/107/32 59/108/32
f 59/108/25 57/107/25 62/106/25 61/105/25
f 58/97/27 55/93/27 63/109/27 64/110/27
f 64/110/27 63/109/27 56/94/27 60/100/27
f 41/98/29 58/97/29 64/110/29 61/111/29
f 61/111/29 64/110/29 60/100/29 59/99/29
f 55/93/30 42/92/30 62/112/30 63/109/30
f 63/109/30 62/112/30 57/95/30 56/94/30
o Cube.216_Cube.282
v 0.567595 1.787118 -0.879850
v 0.567595 1.911133 -0.879850
v 0.567595 1.911133 -0.902426
v 0.567595 1.787118 -0.902426
v 0.691611 1.911133 -0.902426
v 0.691611 1.787118 -0.902426
v 0.691611 1.787118 -0.800993
v 0.691611 1.911133 -0.800993
v 0.691611 1.911133 -0.778410
v 0.691611 1.787118 -0.778410
v 0.567595 1.911133 -0.778410
v 0.567595 1.787118 -0.778410
v 0.567595 1.787118 -0.800993
v 0.567595 1.911133 -0.800993
v 0.691611 1.911133 -0.879850
v 0.691611 1.911133 -0.821395
v 0.646771 1.911133 -0.821395
v 0.691611 1.787118 -0.879850
v 0.646771 1.787118 -0.821395
v 0.691611 1.787118 -0.821395
v 0.646771 1.787118 -0.859453
v 0.646771 1.911133 -0.859453
v 0.691611 1.911133 -0.859453
v 0.691611 1.787118 -0.859453
vt 0.375000 0.166667
vt 0.625000 0.166667
vt 0.625000 0.250000
vt 0.375000 0.250000
vt 0.625000 0.500000
vt 0.375000 0.500000
vt 0.375000 0.666667
vt 0.625000 0.666667
vt 0.625000 0.750000
vt 0.375000 0.750000
vt 0.625000 1.000000
vt 0.375000 1.000000
vt 0.125000 0.666667
vt 0.125000 0.750000
vt 0.875000 0.666667
vt 0.875000 0.750000
vt 0.875000 0.500000
vt 0.875000 0.583333
vt 0.625000 0.583333
vt 0.625000 0.638889
vt 0.875000 0.638889
vt 0.125000 0.500000
vt 0.375000 0.583333
vt 0.125000 0.583333
vt 0.125000 0.638889
vt 0.375000 0.638889
vt 0.375000 0.000000
vt 0.625000 0.000000
vt 0.625000 0.083333
vt 0.375000 0.083333
vt 0.375000 0.138889
vt 0.625000 0.138889
vt 0.625000 0.111111
vt 0.375000 0.111111
vt 0.625000 0.611111
vt 0.375000 0.611111
vt 0.125000 0.611111
vt 0.875000 0.611111
vn -1.0000 0.0000 0.0000
vn 0.0000 0.0000 -1.0000
vn 1.0000 0.0000 0.0000
vn 0.0000 0.0000 1.0000
vn 0.0000 -1.0000 0.0000
vn 0.0000 1.0000 0.0000
vn -0.2495 0.0000 0.9684
vn -0.2495 0.0000 -0.9684
usemtl Granero_Puerta1
s 1
f 65/113/33 66/114/33 67/115/33 68/116/33
f 68/116/34 67/115/34 69/117/34 70/118/34
f 71/119/35 72/120/35 73/121/35 74/122/35
f 74/122/36 73/121/36 75/123/36 76/124/36
f 77/125/37 71/119/37 74/122/37 76/126/37
f 72/120/38 78/127/38 75/128/38 73/121/38
f 69/117/38 67/129/38 66/130/38 79/131/38
f 80/132/38 81/133/38 78/127/38 72/120/38
f 68/134/37 70/118/37 82/135/37 65/136/37
f 83/137/37 84/138/37 71/119/37 77/125/37
f 70/118/35 69/117/35 79/131/35 82/135/35
f 84/138/35 80/132/35 72/120/35 71/119/35
f 76/139/33 75/140/33 78/141/33 77/142/33
f 85/143/39 86/144/39 66/114/39 65/113/39
f 77/142/40 78/141/40 81/145/40 83/146/40
f 83/146/33 81/145/33 86/144/33 85/143/33
f 82/135/35 79/131/35 87/147/35 88/148/35
f 88/148/35 87/147/35 80/132/35 84/138/35
f 65/136/37 82/135/37 88/148/37 85/149/37
f 85/149/37 88/148/37 84/138/37 83/137/37
f 79/131/38 66/130/38 86/150/38 87/147/38
f 87/147/38 86/150/38 81/133/38 80/132/38
o Cube.254_Cube.283
v 0.567595 1.787118 0.123758
v 0.567595 1.911133 0.123758
v 0.567595 1.911133 0.101182
v 0.567595 1.787118 0.101182
v 0.691611 1.911133 0.101182
v 0.691611 1.787118 0.101182
v 0.691611 1.787118 0.202615
v 0.691611 1.911133 0.202615
v 0.691611 1.911133 0.225198
v 0.691611 1.787118 0.225198
v 0.567595 1.911133 0.225198
v 0.567595 1.787118 0.225198
v 0.567595 1.787118 0.202615
v 0.567595 1.911133 0.202615
v 0.691611 1.911133 0.123758
v 0.691611 1.911133 0.182214
v 0.646771 1.911133 0.182214
v 0.691611 1.787118 0.123758
v 0.646771 1.787118 0.182214
v 0.691611 1.787118 0.182214
v 0.646771 1.787118 0.144155
v 0.646771 1.911133 0.144155
v 0.691611 1.911133 0.144155
v 0.691611 1.787118 0.144155
vt 0.375000 0.166667
vt 0.625000 0.166667
vt 0.625000 0.250000
vt 0.375000 0.250000
vt 0.625000 0.500000
vt 0.375000 0.500000
vt 0.375000 0.666667
vt 0.625000 0.666667
vt 0.625000 0.750000
vt 0.375000 0.750000
vt 0.625000 1.000000
vt 0.375000 1.000000
vt 0.125000 0.666667
vt 0.125000 0.750000
vt 0.875000 0.666667
vt 0.875000 0.750000
vt 0.875000 0.500000
vt 0.875000 0.583333
vt 0.625000 0.583333
vt 0.625000 0.638889
vt 0.875000 0.638889
vt 0.125000 0.500000
vt 0.375000 0.583333
vt 0.125000 0.583333
vt 0.125000 0.638889
vt 0.375000 0.638889
vt 0.375000 0.000000
vt 0.625000 0.000000
vt 0.625000 0.083333
vt 0.375000 0.083333
vt 0.375000 0.138889
vt 0.625000 0.138889
vt 0.625000 0.111111
vt 0.375000 0.111111
vt 0.625000 0.611111
vt 0.375000 0.611111
vt 0.125000 0.611111
vt 0.875000 0.611111
vn -1.0000 -0.0000 0.0000
vn 0.0000 0.0000 -1.0000
vn 1.0000 0.0000 0.0000
vn 0.0000 -0.0000 1.0000
vn 0.0000 -1.0000 0.0000
vn 0.0000 1.0000 0.0000
vn -0.2495 -0.0000 0.9684
vn -0.2495 0.0000 -0.9684
usemtl Granero_Puerta1
s 1
f 89/151/41 90/152/41 91/153/41 92/154/41
f 92/154/42 91/153/42 93/155/42 94/156/42
f 95/157/43 96/158/43 97/159/43 98/160/43
f 98/160/44 97/159/44 99/161/44 100/162/44
f 101/163/45 95/157/45 98/160/45 100/164/45
f 96/158/46 102/165/46 99/166/46 97/159/46
f 93/155/46 91/167/46 90/168/46 103/169/46
f 104/170/46 105/171/46 102/165/46 96/158/46
f 92/172/45 94/156/45 106/173/45 89/174/45
f 107/175/45 108/176/45 95/157/45 101/163/45
f 94/156/43 93/155/43 103/169/43 106/173/43
f 108/176/43 104/170/43 96/158/43 95/157/43
f 100/177/41 99/178/41 102/179/41 101/180/41
f 109/181/47 110/182/47 90/152/47 89/151/47
f 101/180/48 102/179/48 105/183/48 107/184/48
f 107/184/41 105/183/41 110/182/41 109/181/41
f 106/173/43 103/169/43 111/185/43 112/186/43
f 112/186/43 111/185/43 104/170/43 108/176/43
f 89/174/45 106/173/45 112/186/45 109/187/45
f 109/187/45 112/186/45 108/176/45 107/175/45
f 103/169/46 90/168/46 110/188/46 111/185/46
f 111/185/46 110/188/46 105/171/46 104/170/46
o Cube.255_Cube.284
v 0.567595 1.787118 1.429273
v 0.567595 1.911133 1.429273
v 0.567595 1.911133 1.406697
v 0.567595 1.787118 1.406697
v 0.691611 1.911133 1.406697
v 0.691611 1.787118 1.406697
v 0.691611 1.787118 1.508129
v 0.691611 1.911133 1.508129
v 0.691611 1.911133 1.530712
v 0.691611 1.787118 1.530712
v 0.567595 1.911133 1.530712
v 0.567595 1.787118 1.530712
v 0.567595 1.787118 1.508129
v 0.567595 1.911133 1.508129
v 0.691611 1.911133 1.429273
v 0.691611 1.911133 1.487728
v 0.646771 1.911133 1.487728
v 0.691611 1.787118 1.429273
v 0.646771 1.787118 1.487728
v 0.691611 1.787118 1.487728
v 0.646771 1.787118 1.449670
v 0.646771 1.911133 1.449670
v 0.691611 1.911133 1.449670
v 0.691611 1.787118 1.449670
vt 0.375000 0.166667
vt 0.625000 0.166667
vt 0.625000 0.250000
vt 0.375000 0.250000
vt 0.625000 0.500000
vt 0.375000 0.500000
vt 0.375000 0.666667
vt 0.625000 0.666667
vt 0.625000 0.750000
vt 0.375000 0.750000
vt 0.625000 1.000000
vt 0.375000 1.000000
vt 0.125000 0.666667
vt 0.125000 0.750000
vt 0.875000 0.666667
vt 0.875000 0.750000
vt 0.875000 0.500000
vt 0.875000 0.583333
vt 0.625000 0.583333
vt 0.625000 0.638889
vt 0.875000 0.638889
vt 0.125000 0.500000
vt 0.375000 0.583333
vt 0.125000 0.583333
vt 0.125000 0.638889
vt 0.375000 0.638889
vt 0.375000 0.000000
vt 0.625000 0.000000
vt 0.625000 0.083333
vt 0.375000 0.083333
vt 0.375000 0.138889
vt 0.625000 0.138889
vt 0.625000 0.111111
vt 0.375000 0.111111
vt 0.625000 0.611111
vt 0.375000 0.611111
vt 0.125000 0.611111
vt 0.875000 0.611111
vn -1.0000 -0.0000 0.0000
vn 0.0000 0.0000 -1.0000
vn 1.0000 -0.0000 0.0000
vn 0.0000 -0.0000 1.0000
vn 0.0000 -1.0000 0.0000
vn 0.0000 1.0000 0.0000
vn -0.2495 -0.0000 0.9684
vn -0.2495 0.0000 -0.9684
usemtl Granero_Puerta1
s 1
f 113/189/49 114/190/49 115/191/49 116/192/49
f 116/192/50 115/191/50 117/193/50 118/194/50
f 119/195/51 120/196/51 121/197/51 122/198/51
f 122/198/52 121/197/52 123/199/52 124/200/52
f 125/201/53 119/195/53 122/198/53 124/202/53
f 120/196/54 126/203/54 123/204/54 121/197/54
f 117/193/54 115/205/54 114/206/54 127/207/54
f 128/208/54 129/209/54 126/203/54 120/196/54
f 116/210/53 118/194/53 130/211/53 113/212/53
f 131/213/53 132/214/53 119/195/53 125/201/53
f 118/194/51 117/193/51 127/207/51 130/211/51
f 132/214/51 128/208/51 120/196/51 119/195/51
f 124/215/49 123/216/49 126/217/49 125/218/49
f 133/219/55 134/220/55 114/190/55 113/189/55
f 125/218/56 126/217/56 129/221/56 131/222/56
f 131/222/49 129/221/49 134/220/49 133/219/49
f 130/211/51 127/207/51 135/223/51 136/224/51
f 136/224/51 135/223/51 128/208/51 132/214/51
f 113/212/53 130/211/53 136/224/53 133/225/53
f 133/225/53 136/224/53 132/214/53 131/213/53
f 127/207/54 114/206/54 134/226/54 135/223/54
f 135/223/54 134/226/54 129/209/54 128/208/54
o Cube.256_Cube.285
v 0.581482 1.503864 -1.792141
v 0.581482 1.967856 -1.792141
v 0.581482 1.967856 -1.852950
v 0.581482 1.503864 -1.852950
v 0.581482 1.967856 -1.721048
v 0.642291 1.967856 -1.721048
v 0.642291 1.967856 -1.621803
v 0.581482 1.967856 -1.621803
v 0.642291 2.037784 -1.852950
v 0.581482 2.037784 -1.852950
v 0.581482 2.037784 -1.792141
v 0.642291 2.037784 -1.792141
v 0.581482 2.037784 -1.979248
v 0.581482 1.967856 -1.979248
v 0.642291 1.967856 -1.792141
v 0.642291 1.967856 -1.852950
v 0.642291 1.997397 -1.621803
v 0.581482 1.997397 -1.621803
v 0.642291 2.015300 -1.721048
v 0.581482 2.015300 -1.721048
v 0.642291 1.967856 -1.979248
v 0.642291 2.037784 -1.979248
v 0.642291 1.503864 -1.852950
v 0.642291 1.503864 -1.792141
vt 0.925023 0.729940
vt 0.067788 0.744685
vt 0.071264 0.900809
vt 0.928500 0.886064
vt 0.740780 0.179856
vt 0.740572 0.148813
vt 0.689907 0.149153
vt 0.690115 0.180196
vt 0.859878 0.141869
vt 0.859878 0.200899
vt 0.800848 0.200899
vt 0.800848 0.141869
vt 0.843466 0.150824
vt 0.843466 0.205848
vt 0.966070 0.205848
vt 0.966070 0.150824
vt 0.784436 0.150824
vt 0.843466 0.150824
vt 0.843466 0.205848
vt 0.784436 0.205848
vt 0.784436 0.150824
vt 0.784436 0.205848
vt 0.671936 0.212781
vt 0.812439 0.212781
vt 0.812439 0.268108
vt 0.671936 0.268108
vt 0.715422 0.150824
vt 0.715422 0.188156
vt 0.619081 0.174069
vt 0.619081 0.150824
vt 0.715422 0.188156
vt 0.715422 0.150824
vt 0.619081 0.150824
vt 0.619081 0.174069
vt 0.731834 0.141869
vt 0.731834 0.200899
vt 0.635493 0.200899
vt 0.635493 0.141869
vt 0.851501 0.095593
vt 0.710999 0.095593
vt 0.710999 0.226563
vt 0.851501 0.226563
vt 0.807909 0.148361
vt 0.808117 0.179405
vt 0.872593 0.178972
vt 0.872385 0.147929
vt 0.966070 0.150824
vt 0.966070 0.205848
vt 0.982481 0.141869
vt 0.982481 0.200899
vt 0.777074 0.179613
vt 0.776865 0.148570
vt 0.939272 0.660646
vt 0.070526 0.638400
vt 0.066929 0.778857
vt 0.935675 0.801103
vt 0.621129 0.000000
vt 0.617223 0.771374
vt 0.476721 0.771374
vt 0.480627 0.000000
vt 0.920202 0.870018
vt 0.438437 0.858794
vt 0.439443 0.718303
vt 0.921208 0.729528
vt 0.429749 0.621129
vt 0.570251 0.621129
vt 0.570251 0.480627
vt 0.429749 0.480627
vn -1.0000 -0.0000 0.0000
vn 0.0000 -1.0000 0.0000
vn 0.0000 1.0000 0.0000
vn 1.0000 -0.0000 0.0000
vn 0.0000 0.0000 1.0000
vn 0.0000 0.9841 0.1775
vn 0.0000 0.0000 -1.0000
vn 0.0000 0.9535 0.3015
usemtl Tronco
s 1
f 137/227/57 138/228/57 139/229/57 140/230/57
f 141/231/58 142/232/58 143/233/58 144/234/58
f 145/235/59 146/236/59 147/237/59 148/238/59
f 139/239/57 146/240/57 149/241/57 150/242/57
f 151/243/60 152/244/60 145/245/60 148/246/60
f 139/239/57 138/247/57 147/248/57 146/240/57
f 144/249/61 143/250/61 153/251/61 154/252/61
f 142/253/60 155/254/60 153/255/60 143/256/60
f 156/257/57 141/258/57 144/259/57 154/260/57
f 155/261/62 156/262/62 154/263/62 153/264/62
f 157/265/63 150/266/63 149/267/63 158/268/63
f 152/269/58 139/270/58 150/271/58 157/272/58
f 145/245/60 152/244/60 157/273/60 158/274/60
f 146/236/59 145/235/59 158/275/59 149/276/59
f 148/238/64 147/237/64 156/262/64 155/261/64
f 147/248/57 138/247/57 141/258/57 156/257/57
f 151/243/60 148/246/60 155/254/60 142/253/60
f 138/277/58 151/278/58 142/232/58 141/231/58
usemtl Colchon
f 140/279/63 139/280/63 152/281/63 159/282/63
f 159/283/60 152/284/60 151/285/60 160/286/60
f 160/287/61 151/288/61 138/289/61 137/290/61
f 140/291/58 159/292/58 160/293/58 137/294/58
o Cube.257_Cube.286
v -0.485257 0.221451 2.096871
v -0.117151 0.190173 1.816142
v -0.154026 0.190173 1.767790
v -0.522132 0.221451 2.048518
v -0.074039 0.190173 1.872673
v -0.077298 0.129503 1.875159
v -0.017116 0.129503 1.954073
v -0.013857 0.190173 1.951587
v -0.101809 0.124789 1.727967
v -0.098549 0.185459 1.725482
v -0.061674 0.185459 1.773834
v -0.064934 0.124789 1.776320
v -0.175137 0.185459 1.625055
v -0.230614 0.190173 1.667364
v -0.120411 0.129503 1.818628
v -0.157286 0.129503 1.770276
v 0.006321 0.127511 1.936199
v 0.009580 0.188182 1.933714
v -0.039659 0.126304 1.846454
v -0.036399 0.186975 1.843968
v -0.233874 0.129503 1.669850
v -0.178397 0.124789 1.627541
v -0.525391 0.160781 2.051004
v -0.488516 0.160781 2.099357
vt 0.925023 0.729940
vt 0.067788 0.744685
vt 0.071264 0.900809
vt 0.928500 0.886064
vt 0.740780 0.179856
vt 0.740572 0.148813
vt 0.689907 0.149153
vt 0.690115 0.180196
vt 0.859878 0.141869
vt 0.859878 0.200899
vt 0.800848 0.200899
vt 0.800848 0.141869
vt 0.843466 0.150824
vt 0.843466 0.205848
vt 0.966070 0.205848
vt 0.966070 0.150824
vt 0.784436 0.150824
vt 0.843466 0.150824
vt 0.843466 0.205848
vt 0.784436 0.205848
vt 0.784436 0.150824
vt 0.784436 0.205848
vt 0.671936 0.212781
vt 0.812439 0.212781
vt 0.812439 0.268108
vt 0.671936 0.268108
vt 0.715422 0.150824
vt 0.715422 0.188156
vt 0.619081 0.174069
vt 0.619081 0.150824
vt 0.715422 0.188156
vt 0.715422 0.150824
vt 0.619081 0.150824
vt 0.619081 0.174069
vt 0.731834 0.141869
vt 0.731834 0.200899
vt 0.635493 0.200899
vt 0.635493 0.141869
vt 0.851501 0.095593
vt 0.710999 0.095593
vt 0.710999 0.226563
vt 0.851501 0.226563
vt 0.807909 0.148361
vt 0.808117 0.179405
vt 0.872593 0.178972
vt 0.872385 0.147929
vt 0.966070 0.150824
vt 0.966070 0.205848
vt 0.982481 0.141869
vt 0.982481 0.200899
vt 0.777074 0.179613
vt 0.776865 0.148570
vt 0.939272 0.660646
vt 0.070526 0.638400
vt 0.066929 0.778857
vt 0.935675 0.801103
vt 0.621129 0.000000
vt 0.617223 0.771374
vt 0.476721 0.771374
vt 0.480627 0.000000
vt 0.920202 0.870018
vt 0.438437 0.858794
vt 0.439443 0.718303
vt 0.921208 0.729528
vt 0.429749 0.621129
vt 0.570251 0.621129
vt 0.570251 0.480627
vt 0.429749 0.480627
vn 0.0536 0.9977 -0.0409
vn -0.7933 0.0674 0.6050
vn 0.7933 -0.0674 -0.6050
vn -0.0536 -0.9977 0.0409
vn 0.6064 0.0000 0.7952
vn 0.8884 -0.0663 -0.4543
vn -0.6064 0.0000 -0.7951
vn 0.9393 -0.0643 -0.3371
vn -0.6064 -0.0000 -0.7952
vn -0.7934 0.0674 0.6050
usemtl Tronco
s 1
f 161/295/65 162/296/65 163/297/65 164/298/65
f 165/299/66 166/300/66 167/301/66 168/302/66
f 169/303/67 170/304/67 171/305/67 172/306/67
f 163/307/65 170/308/65 173/309/65 174/310/65
f 175/311/68 176/312/68 169/313/68 172/314/68
f 163/307/65 162/315/65 171/316/65 170/308/65
f 168/317/69 167/318/69 177/319/69 178/320/69
f 166/321/68 179/322/68 177/323/68 167/324/68
f 180/325/65 165/326/65 168/327/65 178/328/65
f 179/329/70 180/330/70 178/331/70 177/332/70
f 181/333/71 174/334/71 173/335/71 182/336/71
f 176/337/66 163/338/66 174/339/66 181/340/66
f 169/313/68 176/312/68 181/341/68 182/342/68
f 170/304/67 169/303/67 182/343/67 173/344/67
f 172/306/72 171/305/72 180/330/72 179/329/72
f 171/316/65 162/315/65 165/326/65 180/325/65
f 175/311/68 172/314/68 179/322/68 166/321/68
f 162/345/66 175/346/66 166/300/66 165/299/66
usemtl Colchon
f 164/347/73 163/348/73 176/349/73 183/350/73
f 183/351/68 176/352/68 175/353/68 184/354/68
f 184/355/69 175/356/69 162/357/69 161/358/69
f 164/359/74 183/360/74 184/361/74 161/362/74
