# Blender 3.1.2
# www.blender.org
mtllib Cube.106.mtl
o Colilvl5_1
v 0.279825 -1.000000 7.346807
v 0.279825 1.000000 7.346807
v 0.279825 -1.000000 -7.346807
v 0.279825 1.000000 -7.346807
v -0.279825 -1.000000 7.346807
v -0.279825 1.000000 7.346807
v -0.279825 -1.000000 -7.346807
v -0.279825 1.000000 -7.346807
vn 1.0000 -0.0000 -0.0000
vn -0.0000 -0.0000 -1.0000
vn -1.0000 -0.0000 -0.0000
vn -0.0000 -0.0000 1.0000
vn -0.0000 -1.0000 -0.0000
vn -0.0000 1.0000 -0.0000
vt 0.375000 0.000000
vt 0.375000 1.000000
vt 0.125000 0.750000
vt 0.625000 0.000000
vt 0.625000 1.000000
vt 0.875000 0.750000
vt 0.375000 0.250000
vt 0.125000 0.500000
vt 0.625000 0.250000
vt 0.875000 0.500000
vt 0.375000 0.750000
vt 0.625000 0.750000
vt 0.375000 0.500000
vt 0.625000 0.500000
s 0
f 1/1/1 3/7/1 4/9/1 2/4/1
f 3/7/2 7/13/2 8/14/2 4/9/2
f 7/13/3 5/11/3 6/12/3 8/14/3
f 5/11/4 1/2/4 2/5/4 6/12/4
f 3/8/5 1/3/5 5/11/5 7/13/5
f 8/14/6 6/12/6 2/6/6 4/10/6
o Colilvl5_7
v 0.279825 -1.000000 9.252485
v 0.279825 1.000000 9.252485
v 0.279825 -1.000000 -9.252485
v 0.279825 1.000000 -9.252485
v -0.279825 -1.000000 9.252485
v -0.279825 1.000000 9.252485
v -0.279825 -1.000000 -9.252485
v -0.279825 1.000000 -9.252485
vn 1.0000 -0.0000 -0.0000
vn -0.0000 -0.0000 -1.0000
vn -1.0000 -0.0000 -0.0000
vn -0.0000 -0.0000 1.0000
vn -0.0000 -1.0000 -0.0000
vn -0.0000 1.0000 -0.0000
vt 0.375000 0.000000
vt 0.375000 1.000000
vt 0.125000 0.750000
vt 0.625000 0.000000
vt 0.625000 1.000000
vt 0.875000 0.750000
vt 0.375000 0.250000
vt 0.125000 0.500000
vt 0.625000 0.250000
vt 0.875000 0.500000
vt 0.375000 0.750000
vt 0.625000 0.750000
vt 0.375000 0.500000
vt 0.625000 0.500000
s 0
f 9/15/7 11/21/7 12/23/7 10/18/7
f 11/21/8 15/27/8 16/28/8 12/23/8
f 15/27/9 13/25/9 14/26/9 16/28/9
f 13/25/10 9/16/10 10/19/10 14/26/10
f 11/22/11 9/17/11 13/25/11 15/27/11
f 16/28/12 14/26/12 10/20/12 12/24/12
o Colilvl5_2
v 4.407352 -1.000000 -0.279825
v 4.407352 1.000000 -0.279825
v -4.407352 -1.000000 -0.279824
v -4.407352 1.000000 -0.279824
v 4.407352 -1.000000 0.279824
v 4.407352 1.000000 0.279824
v -4.407352 -1.000000 0.279825
v -4.407352 1.000000 0.279825
vn -0.0000 -0.0000 -1.0000
vn -1.0000 -0.0000 -0.0000
vn -0.0000 -0.0000 1.0000
vn 1.0000 -0.0000 -0.0000
vn -0.0000 -1.0000 -0.0000
vn -0.0000 1.0000 -0.0000
vt 0.375000 0.000000
vt 0.375000 1.000000
vt 0.125000 0.750000
vt 0.625000 0.000000
vt 0.625000 1.000000
vt 0.875000 0.750000
vt 0.375000 0.250000
vt 0.125000 0.500000
vt 0.625000 0.250000
vt 0.875000 0.500000
vt 0.375000 0.750000
vt 0.625000 0.750000
vt 0.375000 0.500000
vt 0.625000 0.500000
s 0
f 17/29/13 19/35/13 20/37/13 18/32/13
f 19/35/14 23/41/14 24/42/14 20/37/14
f 23/41/15 21/39/15 22/40/15 24/42/15
f 21/39/16 17/30/16 18/33/16 22/40/16
f 19/36/17 17/31/17 21/39/17 23/41/17
f 24/42/18 22/40/18 18/34/18 20/38/18
o Colilvl5_3
v -0.279826 -1.000000 -2.880205
v -0.279826 1.000000 -2.880205
v -0.279824 -1.000000 2.880205
v -0.279824 1.000000 2.880205
v 0.279824 -1.000000 -2.880205
v 0.279824 1.000000 -2.880205
v 0.279826 -1.000000 2.880205
v 0.279826 1.000000 2.880205
vn -1.0000 -0.0000 -0.0000
vn -0.0000 -0.0000 1.0000
vn 1.0000 -0.0000 -0.0000
vn -0.0000 -0.0000 -1.0000
vn -0.0000 -1.0000 -0.0000
vn -0.0000 1.0000 -0.0000
vt 0.375000 0.000000
vt 0.375000 1.000000
vt 0.125000 0.750000
vt 0.625000 0.000000
vt 0.625000 1.000000
vt 0.875000 0.750000
vt 0.375000 0.250000
vt 0.125000 0.500000
vt 0.625000 0.250000
vt 0.875000 0.500000
vt 0.375000 0.750000
vt 0.625000 0.750000
vt 0.375000 0.500000
vt 0.625000 0.500000
s 0
f 25/43/19 27/49/19 28/51/19 26/46/19
f 27/49/20 31/55/20 32/56/20 28/51/20
f 31/55/21 29/53/21 30/54/21 32/56/21
f 29/53/22 25/44/22 26/47/22 30/54/22
f 27/50/23 25/45/23 29/53/23 31/55/23
f 32/56/24 30/54/24 26/48/24 28/52/24
o Colilvl5_4
v 1.690583 -1.000000 -0.279825
v 1.690583 1.000000 -0.279825
v -1.690583 -1.000000 -0.279825
v -1.690583 1.000000 -0.279825
v 1.690583 -1.000000 0.279825
v 1.690583 1.000000 0.279825
v -1.690583 -1.000000 0.279825
v -1.690583 1.000000 0.279825
vn -0.0000 -0.0000 -1.0000
vn -1.0000 -0.0000 -0.0000
vn -0.0000 -0.0000 1.0000
vn 1.0000 -0.0000 -0.0000
vn -0.0000 -1.0000 -0.0000
vn -0.0000 1.0000 -0.0000
vt 0.375000 0.000000
vt 0.375000 1.000000
vt 0.125000 0.750000
vt 0.625000 0.000000
vt 0.625000 1.000000
vt 0.875000 0.750000
vt 0.375000 0.250000
vt 0.125000 0.500000
vt 0.625000 0.250000
vt 0.875000 0.500000
vt 0.375000 0.750000
vt 0.625000 0.750000
vt 0.375000 0.500000
vt 0.625000 0.500000
s 0
f 33/57/25 35/63/25 36/65/25 34/60/25
f 35/63/26 39/69/26 40/70/26 36/65/26
f 39/69/27 37/67/27 38/68/27 40/70/27
f 37/67/28 33/58/28 34/61/28 38/68/28
f 35/64/29 33/59/29 37/67/29 39/69/29
f 40/70/30 38/68/30 34/62/30 36/66/30
o Colilvl5_5
v -0.279820 -1.000000 13.285642
v -0.279820 1.000000 13.285642
v -0.279829 -1.000000 -13.285642
v -0.279829 1.000000 -13.285642
v 0.279829 -1.000000 13.285642
v 0.279829 1.000000 13.285642
v 0.279820 -1.000000 -13.285642
v 0.279820 1.000000 -13.285642
vn -1.0000 -0.0000 -0.0000
vn -0.0000 -0.0000 -1.0000
vn 1.0000 -0.0000 -0.0000
vn -0.0000 -0.0000 1.0000
vn -0.0000 -1.0000 -0.0000
vn -0.0000 1.0000 -0.0000
vt 0.375000 0.000000
vt 0.375000 1.000000
vt 0.125000 0.750000
vt 0.625000 0.000000
vt 0.625000 1.000000
vt 0.875000 0.750000
vt 0.375000 0.250000
vt 0.125000 0.500000
vt 0.625000 0.250000
vt 0.875000 0.500000
vt 0.375000 0.750000
vt 0.625000 0.750000
vt 0.375000 0.500000
vt 0.625000 0.500000
s 0
f 41/71/31 42/74/31 44/79/31 43/77/31
f 43/77/32 44/79/32 48/84/32 47/83/32
f 47/83/33 48/84/33 46/82/33 45/81/33
f 45/81/34 46/82/34 42/75/34 41/72/34
f 43/78/35 47/83/35 45/81/35 41/73/35
f 48/84/36 44/80/36 42/76/36 46/82/36
o Colilvl5_6
v 3.408479 -1.000000 -0.279825
v 3.408479 1.000000 -0.279825
v -3.408479 -1.000000 -0.279824
v -3.408479 1.000000 -0.279824
v 3.408479 -1.000000 0.279824
v 3.408479 1.000000 0.279824
v -3.408479 -1.000000 0.279825
v -3.408479 1.000000 0.279825
vn -0.0000 -0.0000 -1.0000
vn -1.0000 -0.0000 -0.0000
vn -0.0000 -0.0000 1.0000
vn 1.0000 -0.0000 -0.0000
vn -0.0000 -1.0000 -0.0000
vn -0.0000 1.0000 -0.0000
vt 0.375000 0.000000
vt 0.375000 1.000000
vt 0.125000 0.750000
vt 0.625000 0.000000
vt 0.625000 1.000000
vt 0.875000 0.750000
vt 0.375000 0.250000
vt 0.125000 0.500000
vt 0.625000 0.250000
vt 0.875000 0.500000
vt 0.375000 0.750000
vt 0.625000 0.750000
vt 0.375000 0.500000
vt 0.625000 0.500000
s 0
f 49/85/37 51/91/37 52/93/37 50/88/37
f 51/91/38 55/97/38 56/98/38 52/93/38
f 55/97/39 53/95/39 54/96/39 56/98/39
f 53/95/40 49/86/40 50/89/40 54/96/40
f 51/92/41 49/87/41 53/95/41 55/97/41
f 56/98/42 54/96/42 50/90/42 52/94/42
o Colilvl5_10
v 7.249374 -1.000000 -0.279825
v 7.249374 1.000000 -0.279825
v -7.249374 -1.000000 -0.279824
v -7.249374 1.000000 -0.279824
v 7.249374 -1.000000 0.279824
v 7.249374 1.000000 0.279824
v -7.249374 -1.000000 0.279825
v -7.249374 1.000000 0.279825
vn -0.0000 -0.0000 -1.0000
vn -1.0000 -0.0000 -0.0000
vn -0.0000 -0.0000 1.0000
vn 1.0000 -0.0000 -0.0000
vn -0.0000 -1.0000 -0.0000
vn -0.0000 1.0000 -0.0000
vt 0.375000 0.000000
vt 0.375000 1.000000
vt 0.125000 0.750000
vt 0.625000 0.000000
vt 0.625000 1.000000
vt 0.875000 0.750000
vt 0.375000 0.250000
vt 0.125000 0.500000
vt 0.625000 0.250000
vt 0.875000 0.500000
vt 0.375000 0.750000
vt 0.625000 0.750000
vt 0.375000 0.500000
vt 0.625000 0.500000
s 0
f 57/99/43 59/105/43 60/107/43 58/102/43
f 59/105/44 63/111/44 64/112/44 60/107/44
f 63/111/45 61/109/45 62/110/45 64/112/45
f 61/109/46 57/100/46 58/103/46 62/110/46
f 59/106/47 57/101/47 61/109/47 63/111/47
f 64/112/48 62/110/48 58/104/48 60/108/48
o Colilvl5_8
v 4.518767 -1.000000 -0.279825
v 4.518767 1.000000 -0.279825
v -4.518767 -1.000000 -0.279824
v -4.518767 1.000000 -0.279824
v 4.518767 -1.000000 0.279824
v 4.518767 1.000000 0.279824
v -4.518767 -1.000000 0.279825
v -4.518767 1.000000 0.279825
vn -0.0000 -0.0000 -1.0000
vn -1.0000 -0.0000 -0.0000
vn -0.0000 -0.0000 1.0000
vn 1.0000 -0.0000 -0.0000
vn -0.0000 -1.0000 -0.0000
vn -0.0000 1.0000 -0.0000
vt 0.375000 0.000000
vt 0.375000 1.000000
vt 0.125000 0.750000
vt 0.625000 0.000000
vt 0.625000 1.000000
vt 0.875000 0.750000
vt 0.375000 0.250000
vt 0.125000 0.500000
vt 0.625000 0.250000
vt 0.875000 0.500000
vt 0.375000 0.750000
vt 0.625000 0.750000
vt 0.375000 0.500000
vt 0.625000 0.500000
s 0
f 65/113/49 67/119/49 68/121/49 66/116/49
f 67/119/50 71/125/50 72/126/50 68/121/50
f 71/125/51 69/123/51 70/124/51 72/126/51
f 69/123/52 65/114/52 66/117/52 70/124/52
f 67/120/53 65/115/53 69/123/53 71/125/53
f 72/126/54 70/124/54 66/118/54 68/122/54
o Colilvl5_11
v 0.279825 -1.000000 3.187048
v 0.279825 1.000000 3.187048
v 0.279825 -1.000000 -3.187048
v 0.279825 1.000000 -3.187048
v -0.279825 -1.000000 3.187048
v -0.279825 1.000000 3.187048
v -0.279825 -1.000000 -3.187048
v -0.279825 1.000000 -3.187048
vn 1.0000 -0.0000 -0.0000
vn -0.0000 -0.0000 -1.0000
vn -1.0000 -0.0000 -0.0000
vn -0.0000 -0.0000 1.0000
vn -0.0000 -1.0000 -0.0000
vn -0.0000 1.0000 -0.0000
vt 0.375000 0.000000
vt 0.375000 1.000000
vt 0.125000 0.750000
vt 0.625000 0.000000
vt 0.625000 1.000000
vt 0.875000 0.750000
vt 0.375000 0.250000
vt 0.125000 0.500000
vt 0.625000 0.250000
vt 0.875000 0.500000
vt 0.375000 0.750000
vt 0.625000 0.750000
vt 0.375000 0.500000
vt 0.625000 0.500000
s 0
f 73/127/55 75/133/55 76/135/55 74/130/55
f 75/133/56 79/139/56 80/140/56 76/135/56
f 79/139/57 77/137/57 78/138/57 80/140/57
f 77/137/58 73/128/58 74/131/58 78/138/58
f 75/134/59 73/129/59 77/137/59 79/139/59
f 80/140/60 78/138/60 74/132/60 76/136/60
o Colilvl5_9
v 0.279825 -1.000000 1.546128
v 0.279825 1.000000 1.546128
v 0.279825 -1.000000 -1.546128
v 0.279825 1.000000 -1.546128
v -0.279825 -1.000000 1.546128
v -0.279825 1.000000 1.546128
v -0.279825 -1.000000 -1.546128
v -0.279825 1.000000 -1.546128
vn 1.0000 -0.0000 -0.0000
vn -0.0000 -0.0000 -1.0000
vn -1.0000 -0.0000 -0.0000
vn -0.0000 -0.0000 1.0000
vn -0.0000 -1.0000 -0.0000
vn -0.0000 1.0000 -0.0000
vt 0.375000 0.000000
vt 0.375000 1.000000
vt 0.125000 0.750000
vt 0.625000 0.000000
vt 0.625000 1.000000
vt 0.875000 0.750000
vt 0.375000 0.250000
vt 0.125000 0.500000
vt 0.625000 0.250000
vt 0.875000 0.500000
vt 0.375000 0.750000
vt 0.625000 0.750000
vt 0.375000 0.500000
vt 0.625000 0.500000
s 0
f 81/141/61 83/147/61 84/149/61 82/144/61
f 83/147/62 87/153/62 88/154/62 84/149/62
f 87/153/63 85/151/63 86/152/63 88/154/63
f 85/151/64 81/142/64 82/145/64 86/152/64
f 83/148/65 81/143/65 85/151/65 87/153/65
f 88/154/66 86/152/66 82/146/66 84/150/66
o Colilvl5_12
v 8.937160 -1.000000 -0.279825
v 8.937160 1.000000 -0.279825
v -8.937160 -1.000000 -0.279824
v -8.937160 1.000000 -0.279824
v 8.937160 -1.000000 0.279824
v 8.937160 1.000000 0.279824
v -8.937160 -1.000000 0.279825
v -8.937160 1.000000 0.279825
vn -0.0000 -0.0000 -1.0000
vn -1.0000 -0.0000 -0.0000
vn -0.0000 -0.0000 1.0000
vn 1.0000 -0.0000 -0.0000
vn -0.0000 -1.0000 -0.0000
vn -0.0000 1.0000 -0.0000
vt 0.375000 0.000000
vt 0.375000 1.000000
vt 0.125000 0.750000
vt 0.625000 0.000000
vt 0.625000 1.000000
vt 0.875000 0.750000
vt 0.375000 0.250000
vt 0.125000 0.500000
vt 0.625000 0.250000
vt 0.875000 0.500000
vt 0.375000 0.750000
vt 0.625000 0.750000
vt 0.375000 0.500000
vt 0.625000 0.500000
s 0
f 89/155/67 91/161/67 92/163/67 90/158/67
f 91/161/68 95/167/68 96/168/68 92/163/68
f 95/167/69 93/165/69 94/166/69 96/168/69
f 93/165/70 89/156/70 90/159/70 94/166/70
f 91/162/71 89/157/71 93/165/71 95/167/71
f 96/168/72 94/166/72 90/160/72 92/164/72
o Colilvl5_13
v 0.279825 -1.000000 8.198503
v 0.279825 1.000000 8.198503
v 0.279825 -1.000000 -8.198503
v 0.279825 1.000000 -8.198503
v -0.279825 -1.000000 8.198503
v -0.279825 1.000000 8.198503
v -0.279825 -1.000000 -8.198503
v -0.279825 1.000000 -8.198503
vn 1.0000 -0.0000 -0.0000
vn -0.0000 -0.0000 -1.0000
vn -1.0000 -0.0000 -0.0000
vn -0.0000 -0.0000 1.0000
vn -0.0000 -1.0000 -0.0000
vn -0.0000 1.0000 -0.0000
vt 0.375000 0.000000
vt 0.375000 1.000000
vt 0.125000 0.750000
vt 0.625000 0.000000
vt 0.625000 1.000000
vt 0.875000 0.750000
vt 0.375000 0.250000
vt 0.125000 0.500000
vt 0.625000 0.250000
vt 0.875000 0.500000
vt 0.375000 0.750000
vt 0.625000 0.750000
vt 0.375000 0.500000
vt 0.625000 0.500000
s 0
f 97/169/73 99/175/73 100/177/73 98/172/73
f 99/175/74 103/181/74 104/182/74 100/177/74
f 103/181/75 101/179/75 102/180/75 104/182/75
f 101/179/76 97/170/76 98/173/76 102/180/76
f 99/176/77 97/171/77 101/179/77 103/181/77
f 104/182/78 102/180/78 98/174/78 100/178/78
o Transitionlvl5to2
v 2.845397 -0.904639 -2.845397
v 2.845397 0.904639 -2.845397
v 2.845397 -0.904639 2.845397
v 2.845397 0.904639 2.845397
v -2.845397 -0.904639 -2.845397
v -2.845397 0.904639 -2.845397
v -2.845397 -0.904639 2.845397
v -2.845397 0.904639 2.845397
vn 1.0000 -0.0000 -0.0000
vn -0.0000 -0.0000 1.0000
vn -1.0000 -0.0000 -0.0000
vn -0.0000 -0.0000 -1.0000
vn -0.0000 -1.0000 -0.0000
vn -0.0000 1.0000 -0.0000
vt 0.375000 0.000000
vt 0.375000 1.000000
vt 0.125000 0.750000
vt 0.625000 0.000000
vt 0.625000 1.000000
vt 0.875000 0.750000
vt 0.375000 0.250000
vt 0.125000 0.500000
vt 0.625000 0.250000
vt 0.875000 0.500000
vt 0.375000 0.750000
vt 0.625000 0.750000
vt 0.375000 0.500000
vt 0.625000 0.500000
s 0
f 105/183/79 106/186/79 108/191/79 107/189/79
f 107/189/80 108/191/80 112/196/80 111/195/80
f 111/195/81 112/196/81 110/194/81 109/193/81
f 109/193/82 110/194/82 106/187/82 105/184/82
f 107/190/83 111/195/83 109/193/83 105/185/83
f 112/196/84 108/192/84 106/188/84 110/194/84
o Colilvl5_14
v -0.360072 -1.265579 -17.872623
v -0.360072 1.265579 -17.872623
v -0.360070 -1.265579 17.872623
v -0.360070 1.265579 17.872623
v 0.360070 -1.265579 -17.872623
v 0.360070 1.265579 -17.872623
v 0.360072 -1.265579 17.872623
v 0.360072 1.265579 17.872623
vn -1.0000 -0.0000 -0.0000
vn -0.0000 -0.0000 1.0000
vn 1.0000 -0.0000 -0.0000
vn -0.0000 -0.0000 -1.0000
vn -0.0000 -1.0000 -0.0000
vn -0.0000 1.0000 -0.0000
vt 0.375000 0.000000
vt 0.375000 1.000000
vt 0.125000 0.750000
vt 0.625000 0.000000
vt 0.625000 1.000000
vt 0.875000 0.750000
vt 0.375000 0.250000
vt 0.125000 0.500000
vt 0.625000 0.250000
vt 0.875000 0.500000
vt 0.375000 0.750000
vt 0.625000 0.750000
vt 0.375000 0.500000
vt 0.625000 0.500000
s 0
f 113/197/85 115/203/85 116/205/85 114/200/85
f 115/203/86 119/209/86 120/210/86 116/205/86
f 119/209/87 117/207/87 118/208/87 120/210/87
f 117/207/88 113/198/88 114/201/88 118/208/88
f 115/204/89 113/199/89 117/207/89 119/209/89
f 120/210/90 118/208/90 114/202/90 116/206/90
o Colilvl5_16
v -12.232012 -1.265579 0.360075
v -12.232012 1.265579 0.360075
v 12.232012 -1.265579 0.360067
v 12.232012 1.265579 0.360067
v -12.232012 -1.265579 -0.360067
v -12.232012 1.265579 -0.360067
v 12.232012 -1.265579 -0.360075
v 12.232012 1.265579 -0.360075
vn -0.0000 -0.0000 1.0000
vn 1.0000 -0.0000 -0.0000
vn -0.0000 -0.0000 -1.0000
vn -1.0000 -0.0000 -0.0000
vn -0.0000 -1.0000 -0.0000
vn -0.0000 1.0000 -0.0000
vt 0.375000 0.000000
vt 0.375000 1.000000
vt 0.125000 0.750000
vt 0.625000 0.000000
vt 0.625000 1.000000
vt 0.875000 0.750000
vt 0.375000 0.250000
vt 0.125000 0.500000
vt 0.625000 0.250000
vt 0.875000 0.500000
vt 0.375000 0.750000
vt 0.625000 0.750000
vt 0.375000 0.500000
vt 0.625000 0.500000
s 0
f 121/211/91 123/217/91 124/219/91 122/214/91
f 123/217/92 127/223/92 128/224/92 124/219/92
f 127/223/93 125/221/93 126/222/93 128/224/93
f 125/221/94 121/212/94 122/215/94 126/222/94
f 123/218/95 121/213/95 125/221/95 127/223/95
f 128/224/96 126/222/96 122/216/96 124/220/96
o Colilvl5_19
v 0.360077 -1.265579 17.392981
v 0.360077 1.265579 17.392981
v 0.360065 -1.265579 -17.392979
v 0.360065 1.265579 -17.392979
v -0.360065 -1.265579 17.392981
v -0.360065 1.265579 17.392981
v -0.360077 -1.265579 -17.392979
v -0.360077 1.265579 -17.392979
vn 1.0000 -0.0000 -0.0000
vn -0.0000 -0.0000 -1.0000
vn -1.0000 -0.0000 -0.0000
vn -0.0000 -0.0000 1.0000
vn -0.0000 -1.0000 -0.0000
vn -0.0000 1.0000 -0.0000
vt 0.375000 0.000000
vt 0.375000 1.000000
vt 0.125000 0.750000
vt 0.625000 0.000000
vt 0.625000 1.000000
vt 0.875000 0.750000
vt 0.375000 0.250000
vt 0.125000 0.500000
vt 0.625000 0.250000
vt 0.875000 0.500000
vt 0.375000 0.750000
vt 0.625000 0.750000
vt 0.375000 0.500000
vt 0.625000 0.500000
s 0
f 129/225/97 131/231/97 132/233/97 130/228/97
f 131/231/98 135/237/98 136/238/98 132/233/98
f 135/237/99 133/235/99 134/236/99 136/238/99
f 133/235/100 129/226/100 130/229/100 134/236/100
f 131/232/101 129/227/101 133/235/101 135/237/101
f 136/238/102 134/236/102 130/230/102 132/234/102
o Colilvl5_17
v 4.568689 -1.265579 -0.360080
v 4.568689 1.265579 -0.360080
v -4.568690 -1.265579 -0.360062
v -4.568690 1.265579 -0.360062
v 4.568690 -1.265579 0.360062
v 4.568690 1.265579 0.360062
v -4.568689 -1.265579 0.360080
v -4.568689 1.265579 0.360080
vn -0.0000 -0.0000 -1.0000
vn -1.0000 -0.0000 -0.0000
vn -0.0000 -0.0000 1.0000
vn 1.0000 -0.0000 -0.0000
vn -0.0000 -1.0000 -0.0000
vn -0.0000 1.0000 -0.0000
vt 0.375000 0.000000
vt 0.375000 1.000000
vt 0.125000 0.750000
vt 0.625000 0.000000
vt 0.625000 1.000000
vt 0.875000 0.750000
vt 0.375000 0.250000
vt 0.125000 0.500000
vt 0.625000 0.250000
vt 0.875000 0.500000
vt 0.375000 0.750000
vt 0.625000 0.750000
vt 0.375000 0.500000
vt 0.625000 0.500000
s 0
f 137/239/103 139/245/103 140/247/103 138/242/103
f 139/245/104 143/251/104 144/252/104 140/247/104
f 143/251/105 141/249/105 142/250/105 144/252/105
f 141/249/106 137/240/106 138/243/106 142/250/106
f 139/246/107 137/241/107 141/249/107 143/251/107
f 144/252/108 142/250/108 138/244/108 140/248/108
o Colilvl5_18
v 4.568689 -1.265579 -0.360080
v 4.568689 1.265579 -0.360080
v -4.568690 -1.265579 -0.360062
v -4.568690 1.265579 -0.360062
v 4.568690 -1.265579 0.360062
v 4.568690 1.265579 0.360062
v -4.568689 -1.265579 0.360080
v -4.568689 1.265579 0.360080
vn -0.0000 -0.0000 -1.0000
vn -1.0000 -0.0000 -0.0000
vn -0.0000 -0.0000 1.0000
vn 1.0000 -0.0000 -0.0000
vn -0.0000 -1.0000 -0.0000
vn -0.0000 1.0000 -0.0000
vt 0.375000 0.000000
vt 0.375000 1.000000
vt 0.125000 0.750000
vt 0.625000 0.000000
vt 0.625000 1.000000
vt 0.875000 0.750000
vt 0.375000 0.250000
vt 0.125000 0.500000
vt 0.625000 0.250000
vt 0.875000 0.500000
vt 0.375000 0.750000
vt 0.625000 0.750000
vt 0.375000 0.500000
vt 0.625000 0.500000
s 0
f 145/253/109 147/259/109 148/261/109 146/256/109
f 147/259/110 151/265/110 152/266/110 148/261/110
f 151/265/111 149/263/111 150/264/111 152/266/111
f 149/263/112 145/254/112 146/257/112 150/264/112
f 147/260/113 145/255/113 149/263/113 151/265/113
f 152/266/114 150/264/114 146/258/114 148/262/114
o Colilvl5_15
v 4.330655 -1.000000 -0.279825
v 4.330655 1.000000 -0.279825
v -4.330655 -1.000000 -0.279824
v -4.330655 1.000000 -0.279824
v 4.330655 -1.000000 0.279824
v 4.330655 1.000000 0.279824
v -4.330655 -1.000000 0.279825
v -4.330655 1.000000 0.279825
vn -0.0000 -0.0000 -1.0000
vn -1.0000 -0.0000 -0.0000
vn -0.0000 -0.0000 1.0000
vn 1.0000 -0.0000 -0.0000
vn -0.0000 -1.0000 -0.0000
vn -0.0000 1.0000 -0.0000
vt 0.375000 0.000000
vt 0.375000 1.000000
vt 0.125000 0.750000
vt 0.625000 0.000000
vt 0.625000 1.000000
vt 0.875000 0.750000
vt 0.375000 0.250000
vt 0.125000 0.500000
vt 0.625000 0.250000
vt 0.875000 0.500000
vt 0.375000 0.750000
vt 0.625000 0.750000
vt 0.375000 0.500000
vt 0.625000 0.500000
s 0
f 153/267/115 155/273/115 156/275/115 154/270/115
f 155/273/116 159/279/116 160/280/116 156/275/116
f 159/279/117 157/277/117 158/278/117 160/280/117
f 157/277/118 153/268/118 154/271/118 158/278/118
f 155/274/119 153/269/119 157/277/119 159/279/119
f 160/280/120 158/278/120 154/272/120 156/276/120
o Colilvl5_20
v 3.509881 -1.000000 -0.279825
v 3.509881 1.000000 -0.279825
v -3.509880 -1.000000 -0.279824
v -3.509880 1.000000 -0.279824
v 3.509881 -1.000000 0.279824
v 3.509881 1.000000 0.279824
v -3.509880 -1.000000 0.279825
v -3.509880 1.000000 0.279825
vn -0.0000 -0.0000 -1.0000
vn -1.0000 -0.0000 -0.0000
vn -0.0000 -0.0000 1.0000
vn 1.0000 -0.0000 -0.0000
vn -0.0000 -1.0000 -0.0000
vn -0.0000 1.0000 -0.0000
vt 0.375000 0.000000
vt 0.375000 1.000000
vt 0.125000 0.750000
vt 0.625000 0.000000
vt 0.625000 1.000000
vt 0.875000 0.750000
vt 0.375000 0.250000
vt 0.125000 0.500000
vt 0.625000 0.250000
vt 0.875000 0.500000
vt 0.375000 0.750000
vt 0.625000 0.750000
vt 0.375000 0.500000
vt 0.625000 0.500000
s 0
f 161/281/121 163/287/121 164/289/121 162/284/121
f 163/287/122 167/293/122 168/294/122 164/289/122
f 167/293/123 165/291/123 166/292/123 168/294/123
f 165/291/124 161/282/124 162/285/124 166/292/124
f 163/288/125 161/283/125 165/291/125 167/293/125
f 168/294/126 166/292/126 162/286/126 164/290/126
o Colilvl5_21
v 0.279825 -1.000000 -5.010314
v 0.279825 1.000000 -5.010314
v 0.279825 -1.000000 5.010314
v 0.279825 1.000000 5.010314
v -0.279825 -1.000000 -5.010314
v -0.279825 1.000000 -5.010314
v -0.279825 -1.000000 5.010314
v -0.279825 1.000000 5.010314
vn 1.0000 -0.0000 -0.0000
vn -0.0000 -0.0000 1.0000
vn -1.0000 -0.0000 -0.0000
vn -0.0000 -0.0000 -1.0000
vn -0.0000 -1.0000 -0.0000
vn -0.0000 1.0000 -0.0000
vt 0.375000 0.000000
vt 0.375000 1.000000
vt 0.125000 0.750000
vt 0.625000 0.000000
vt 0.625000 1.000000
vt 0.875000 0.750000
vt 0.375000 0.250000
vt 0.125000 0.500000
vt 0.625000 0.250000
vt 0.875000 0.500000
vt 0.375000 0.750000
vt 0.625000 0.750000
vt 0.375000 0.500000
vt 0.625000 0.500000
s 0
f 169/295/127 170/298/127 172/303/127 171/301/127
f 171/301/128 172/303/128 176/308/128 175/307/128
f 175/307/129 176/308/129 174/306/129 173/305/129
f 173/305/130 174/306/130 170/299/130 169/296/130
f 171/302/131 175/307/131 173/305/131 169/297/131
f 176/308/132 172/304/132 170/300/132 174/306/132
o Sotano
v 0.857587 -0.272653 -0.857587
v 0.857587 0.272653 -0.857587
v 0.857587 -0.272653 0.857587
v 0.857587 0.272653 0.857587
v -0.857587 -0.272653 -0.857587
v -0.857587 0.272653 -0.857587
v -0.857587 -0.272653 0.857587
v -0.857587 0.272653 0.857587
vn 1.0000 -0.0000 -0.0000
vn -0.0000 -0.0000 1.0000
vn -1.0000 -0.0000 -0.0000
vn -0.0000 -0.0000 -1.0000
vn -0.0000 -1.0000 -0.0000
vn -0.0000 1.0000 -0.0000
vt 0.375000 0.000000
vt 0.375000 1.000000
vt 0.125000 0.750000
vt 0.625000 0.000000
vt 0.625000 1.000000
vt 0.875000 0.750000
vt 0.375000 0.250000
vt 0.125000 0.500000
vt 0.625000 0.250000
vt 0.875000 0.500000
vt 0.375000 0.750000
vt 0.625000 0.750000
vt 0.375000 0.500000
vt 0.625000 0.500000
s 0
f 177/309/133 178/312/133 180/317/133 179/315/133
f 179/315/134 180/317/134 184/322/134 183/321/134
f 183/321/135 184/322/135 182/320/135 181/319/135
f 181/319/136 182/320/136 178/313/136 177/310/136
f 179/316/137 183/321/137 181/319/137 177/311/137
f 184/322/138 180/318/138 178/314/138 182/320/138
