# Blender v3.1.2 OBJ File: 'level5.blend'
# www.blender.org
mtllib Valla_tablones2.mtl
o Cube.115_Cube.120
v 0.053912 0.291648 -0.820967
v 0.053912 0.871902 -0.796067
v 0.053912 0.871902 -0.528065
v 0.053912 0.291648 -0.552965
v 0.053912 1.452158 -0.795622
v 0.053912 1.452158 -0.527619
v -0.053968 0.871902 -0.796067
v -0.053968 1.452158 -0.795622
v -0.053968 0.291648 -0.820967
v -0.053968 0.291648 -0.552965
v -0.053968 0.871902 -0.528065
v -0.053968 1.452158 -0.527619
v -0.053968 -0.288607 -0.560949
v 0.053912 -0.288607 -0.560949
v -0.053968 -0.288607 -0.828951
v -0.053968 -0.868862 -0.816935
v -0.053968 -0.868862 -0.548933
v 0.053912 -0.868862 -0.548933
v 0.053912 -0.288607 -0.828951
v 0.053912 -0.868862 -0.816935
v 0.053912 -1.449117 -0.793686
v 0.053912 -1.449117 -0.525684
v -0.053968 -1.449117 -0.793686
v -0.053968 -1.449117 -0.525684
v 0.053912 0.291648 -0.119286
v 0.053912 0.871902 -0.105112
v 0.053912 0.871902 0.162890
v 0.053912 0.291648 0.148716
v 0.053912 1.452158 -0.125876
v 0.053912 1.452158 0.142127
v -0.053968 0.871902 -0.105112
v -0.053968 1.452158 -0.125876
v -0.053968 0.291648 -0.119286
v -0.053968 0.291648 0.148716
v -0.053968 0.871902 0.162890
v -0.053968 1.452158 0.142127
v -0.053968 -0.288607 0.130099
v 0.053912 -0.288607 0.130099
v -0.053968 -0.288607 -0.137903
v -0.053968 -0.868862 -0.167611
v -0.053968 -0.868862 0.100391
v 0.053912 -0.868862 0.100391
v 0.053912 -0.288607 -0.137903
v 0.053912 -0.868862 -0.167611
v 0.053912 -1.449117 -0.123940
v 0.053912 -1.449117 0.144062
v -0.053968 -1.449117 -0.123940
v -0.053968 -1.449117 0.144062
vt 0.530317 0.362793
vt 0.596607 0.332000
vt 0.596607 0.000552
vt 0.530317 0.031345
vt 0.662896 0.331448
vt 0.662896 0.000000
vt 0.994344 0.337104
vt 0.994344 0.271753
vt 0.662896 0.271753
vt 0.662896 0.337104
vt 0.994344 0.201076
vt 0.662896 0.201076
vt 0.265159 0.062299
vt 0.198869 0.031505
vt 0.198869 0.362953
vt 0.265159 0.393747
vt 0.331448 0.062850
vt 0.331448 0.394298
vt 0.331448 0.731402
vt 0.331448 0.666052
vt 0.000000 0.666052
vt 0.000000 0.731402
vt 0.331448 0.595374
vt 0.000000 0.595374
vt 0.331448 0.528382
vt 0.000000 0.528382
vt 0.132579 0.021631
vt 0.132579 0.353079
vt 0.066290 0.000000
vt 0.066290 0.331448
vt 0.331448 0.459319
vt 0.000000 0.459319
vt 0.994344 0.134084
vt 0.662896 0.134084
vt 0.994344 0.065020
vt 0.662896 0.065020
vt 0.464027 0.372668
vt 0.464027 0.041220
vt 0.397738 0.394298
vt 0.397738 0.062850
vt 0.331448 0.392977
vt 0.331448 0.061528
vt 0.994344 0.000000
vt 0.662896 0.000000
vt 0.331448 0.394298
vt 0.000000 0.394298
vt 0.994344 0.668552
vt 0.662896 0.668552
vt 0.662896 1.000000
vt 0.994344 1.000000
vt 0.000000 0.001322
vt 0.000000 0.332770
vt 0.662896 0.668552
vt 0.994344 0.668552
vt 0.530317 0.362793
vt 0.596607 0.332000
vt 0.596607 0.000552
vt 0.530317 0.031345
vt 0.662896 0.331448
vt 0.662896 0.000000
vt 0.994344 0.337104
vt 0.994344 0.271753
vt 0.662896 0.271753
vt 0.662896 0.337104
vt 0.994344 0.201076
vt 0.662896 0.201076
vt 0.265159 0.062299
vt 0.198869 0.031505
vt 0.198869 0.362953
vt 0.265159 0.393747
vt 0.331448 0.062850
vt 0.331448 0.394298
vt 0.331448 0.731402
vt 0.331448 0.666052
vt 0.000000 0.666052
vt 0.000000 0.731402
vt 0.331448 0.595374
vt 0.000000 0.595374
vt 0.331448 0.528382
vt 0.000000 0.528382
vt 0.132579 0.021631
vt 0.132579 0.353079
vt 0.066290 0.000000
vt 0.066290 0.331448
vt 0.331448 0.459319
vt 0.000000 0.459319
vt 0.994344 0.134084
vt 0.662896 0.134084
vt 0.994344 0.065020
vt 0.662896 0.065020
vt 0.464027 0.372668
vt 0.464027 0.041220
vt 0.397738 0.394298
vt 0.397738 0.062850
vt 0.331448 0.392977
vt 0.331448 0.061528
vt 0.994344 0.000000
vt 0.662896 0.000000
vt 0.331448 0.394298
vt 0.000000 0.394298
vt 0.994344 0.668552
vt 0.662896 0.668552
vt 0.662896 1.000000
vt 0.994344 1.000000
vt 0.000000 0.001322
vt 0.000000 0.332770
vt 0.662896 0.668552
vt 0.994344 0.668552
vn 1.0000 -0.0000 0.0000
vn -0.0000 0.0008 -1.0000
vn -0.0000 0.0429 -0.9991
vn -1.0000 0.0000 -0.0000
vn 0.0000 -0.0008 1.0000
vn 0.0000 -0.0429 0.9991
vn 0.0000 -0.0138 0.9999
vn 0.0000 0.0207 0.9998
vn 0.0000 0.0138 -0.9999
vn 0.0000 -0.0207 -0.9998
vn 0.0000 -0.0400 -0.9992
vn 0.0000 0.0400 0.9992
vn 0.0000 -1.0000 0.0000
vn 0.0000 1.0000 0.0000
vn 0.0000 -0.0358 -0.9994
vn 0.0000 0.0244 -0.9997
vn 0.0000 0.0282 -0.9996
vn 0.0000 0.0358 0.9994
vn -0.0000 -0.0244 0.9997
vn -0.0000 -0.0282 0.9996
vn -0.0000 -0.0321 0.9995
vn 0.0000 -0.0511 0.9987
vn 0.0000 0.0321 -0.9995
vn 0.0000 0.0511 -0.9987
vn 0.0000 -0.0750 -0.9972
vn 0.0000 0.0750 0.9972
usemtl None.001
s 1
f 1/1/1 2/2/1 3/3/1 4/4/1
f 2/2/1 5/5/1 6/6/1 3/3/1
f 5/7/2 2/8/2 7/9/2 8/10/2
f 2/8/3 1/11/3 9/12/3 7/9/3
f 7/13/4 9/14/4 10/15/4 11/16/4
f 8/17/4 7/13/4 11/16/4 12/18/4
f 12/19/5 11/20/5 3/21/5 6/22/5
f 11/20/6 10/23/6 4/24/6 3/21/6
f 10/23/7 13/25/7 14/26/7 4/24/7
f 9/14/4 15/27/4 13/28/4 10/15/4
f 15/27/4 16/29/4 17/30/4 13/28/4
f 13/25/8 17/31/8 18/32/8 14/26/8
f 1/11/9 19/33/9 15/34/9 9/12/9
f 19/33/10 20/35/10 16/36/10 15/34/10
f 19/37/1 1/1/1 4/4/1 14/38/1
f 20/39/1 19/37/1 14/38/1 18/40/1
f 21/41/1 20/39/1 18/40/1 22/42/1
f 20/35/11 21/43/11 23/44/11 16/36/11
f 17/31/12 24/45/12 22/46/12 18/32/12
f 23/47/13 21/48/13 22/49/13 24/50/13
f 16/29/4 23/51/4 24/52/4 17/30/4
f 5/7/14 8/10/14 12/53/14 6/54/14
f 25/55/1 26/56/1 27/57/1 28/58/1
f 26/56/1 29/59/1 30/60/1 27/57/1
f 29/61/15 26/62/15 31/63/15 32/64/15
f 26/62/16 25/65/17 33/66/17 31/63/16
f 31/67/4 33/68/4 34/69/4 35/70/4
f 32/71/4 31/67/4 35/70/4 36/72/4
f 36/73/18 35/74/18 27/75/18 30/76/18
f 35/74/19 34/77/20 28/78/20 27/75/19
f 34/77/20 37/79/21 38/80/21 28/78/20
f 33/68/4 39/81/4 37/82/4 34/69/4
f 39/81/4 40/83/4 41/84/4 37/82/4
f 37/79/22 41/85/22 42/86/22 38/80/22
f 25/65/17 43/87/23 39/88/23 33/66/17
f 43/87/24 44/89/24 40/90/24 39/88/24
f 43/91/1 25/55/1 28/58/1 38/92/1
f 44/93/1 43/91/1 38/92/1 42/94/1
f 45/95/1 44/93/1 42/94/1 46/96/1
f 44/89/25 45/97/25 47/98/25 40/90/25
f 41/85/26 48/99/26 46/100/26 42/86/26
f 47/101/13 45/102/13 46/103/13 48/104/13
f 40/83/4 47/105/4 48/106/4 41/84/4
f 29/61/14 32/64/14 36/107/14 30/108/14
