# Blender v3.1.2 OBJ File: 'level5.blend'
# www.blender.org
mtllib Valla_pico2.mtl
o Cube.034_Cube.039
v -0.139641 0.139640 0.643475
v 0.139640 0.139640 0.643475
v -0.139641 -0.139641 0.643475
v -0.139641 0.139640 -0.643475
v 0.139640 0.139640 -0.643475
v -0.139641 -0.139640 -0.643475
v 0.139640 -0.139640 -0.643475
v 0.139640 -0.139641 0.643475
vt 0.375000 0.250000
vt 0.375000 0.500000
vt 0.625000 0.500000
vt 0.625000 0.250000
vt 0.625000 0.750000
vt 0.875000 0.750000
vt 0.875000 0.500000
vt 0.375000 0.750000
vt 0.125000 0.500000
vt 0.125000 0.750000
vt 0.375000 1.000000
vt 0.625000 1.000000
vt 0.375000 0.000000
vt 0.625000 0.000000
vn 0.0000 1.0000 0.0000
vn 0.0000 0.0000 1.0000
vn -1.0000 0.0000 0.0000
vn 0.0000 0.0000 -1.0000
vn 0.0000 -1.0000 -0.0000
vn 1.0000 0.0000 0.0000
usemtl Material.001
s 1
f 5/1/1 4/2/1 1/3/1 2/4/1
f 1/3/2 3/5/2 8/6/2 2/7/2
f 4/2/3 6/8/3 3/5/3 1/3/3
f 5/9/4 7/10/4 6/8/4 4/2/4
f 6/8/5 7/11/5 8/12/5 3/5/5
f 7/13/6 5/1/6 2/4/6 8/14/6
